{"glyphs":{"0":{"ha":816,"x_min":44,"x_max":813,"o":"m 363 52 q 497 155 435 63 q 599 382 559 247 q 638 652 638 518 q 603 854 638 780 q 511 934 568 928 q 504 935 508 935 q 402 882 453 935 q 310 742 352 829 q 243 548 269 655 q 218 334 218 441 q 254 130 218 209 q 353 52 290 52 l 363 52 m 346 8 q 189 57 257 8 q 82 192 121 106 q 44 388 44 278 q 83 607 44 501 q 187 796 121 713 q 337 928 253 879 q 511 977 421 977 q 668 928 600 977 q 775 793 736 879 q 813 598 813 707 q 768 363 813 481 q 637 153 722 245 q 500 47 575 85 q 346 8 425 8 z "},"1":{"ha":434,"x_min":44,"x_max":479,"o":"m 224 3 l 44 3 l 256 814 l 201 755 l 142 755 l 344 972 l 479 972 l 224 3 z "},"2":{"ha":824,"x_min":44,"x_max":831,"o":"m 521 1 q 475 5 498 1 q 248 29 332 29 q 177 23 199 29 q 125 1 155 18 l 44 1 l 45 6 q 184 311 75 187 q 290 409 233 366 q 403 488 346 451 q 563 608 491 543 q 667 772 634 672 q 675 820 675 797 q 640 908 675 875 q 560 942 606 942 q 458 894 484 942 q 442 842 446 871 q 437 784 438 814 q 434 743 436 763 q 404 677 429 700 q 347 654 379 654 q 286 679 313 654 q 276 691 281 684 q 268 710 271 699 q 264 736 264 722 q 300 835 264 780 q 397 929 336 890 q 553 973 471 973 l 561 973 q 712 941 651 969 q 802 866 773 912 q 831 761 831 819 q 703 528 831 640 q 579 437 647 480 q 440 354 511 394 q 292 263 361 309 q 178 170 222 218 q 127 67 133 122 q 206 94 165 87 q 290 101 247 101 q 358 99 326 101 q 425 97 390 97 q 525 107 476 97 q 618 149 574 117 q 699 241 662 180 l 700 241 q 730 196 720 220 q 739 153 739 172 q 675 47 739 93 q 521 1 611 1 z "},"3":{"ha":753,"x_min":44,"x_max":718,"o":"m 315 2 q 203 20 253 2 q 124 60 154 37 q 44 205 44 123 q 58 265 44 234 q 101 322 72 296 q 178 365 131 349 q 166 313 169 343 q 163 271 163 282 q 172 188 163 231 q 197 110 180 146 q 240 52 214 75 q 298 30 265 30 q 408 77 357 30 q 492 199 460 125 q 524 355 524 274 q 488 485 524 436 q 384 534 452 534 q 368 535 368 534 l 369 535 l 369 575 l 370 575 q 459 625 418 582 q 528 729 501 669 q 554 843 554 789 q 530 920 554 892 q 463 948 505 948 q 393 920 425 948 q 368 873 374 900 q 362 821 363 847 q 351 761 361 784 q 325 736 340 744 q 294 728 310 728 q 246 746 269 728 q 223 795 223 763 q 227 818 223 806 q 282 905 242 871 q 376 956 322 939 q 484 972 429 972 q 647 930 587 972 q 716 822 707 888 l 718 803 q 689 707 718 755 q 604 618 661 658 q 461 556 547 578 q 638 467 580 527 q 697 328 697 407 q 644 173 697 248 q 504 50 591 98 q 315 2 417 2 z "},"4":{"ha":680,"x_min":44,"x_max":705,"o":"m 448 3 l 268 3 l 353 334 l 44 334 q 74 423 44 366 q 136 526 104 479 q 177 584 168 573 q 246 747 246 663 q 220 862 246 800 q 208 916 208 892 q 235 982 208 958 q 298 1006 263 1006 q 354 986 328 1006 q 392 924 380 966 q 397 878 397 900 q 377 787 397 831 q 327 703 357 743 q 264 624 297 663 l 227 579 q 173 505 197 541 q 133 437 150 469 q 107 378 117 405 l 365 378 l 510 939 l 705 976 l 547 378 l 601 378 l 589 334 l 535 334 l 448 3 z "},"5":{"ha":797,"x_min":44,"x_max":753,"o":"m 332 2 q 171 34 235 2 q 76 113 107 65 q 44 209 44 160 q 75 297 44 257 q 165 352 105 336 q 155 276 155 316 q 175 163 155 218 q 232 72 195 108 q 317 36 269 36 q 400 70 360 36 q 472 157 441 104 q 523 271 504 210 q 541 387 541 332 q 519 490 541 443 q 446 566 496 538 q 308 595 395 595 q 194 583 257 595 l 295 976 l 349 975 q 513 962 441 972 q 632 953 578 953 q 694 959 665 953 q 747 983 723 966 q 753 945 753 963 q 740 891 753 915 q 708 850 726 867 q 671 823 689 833 q 613 810 644 810 q 545 821 581 810 q 472 844 509 831 q 393 870 433 859 q 315 882 353 882 l 259 641 q 370 659 313 659 q 408 657 389 659 q 582 601 514 645 q 683 492 650 556 q 715 356 715 427 q 690 229 715 292 q 615 115 664 165 q 494 33 566 64 q 332 2 423 2 z "},"6":{"ha":779,"x_min":44,"x_max":735,"o":"m 367 39 q 435 68 404 39 q 490 139 466 96 q 529 229 514 182 q 549 315 545 276 q 553 372 553 345 q 512 516 553 469 q 406 564 471 564 q 316 544 363 564 q 227 486 270 524 q 220 424 224 463 q 216 336 216 385 q 227 212 216 277 q 279 84 242 130 q 367 39 316 39 m 378 3 q 200 52 275 3 q 85 190 125 101 q 44 396 44 279 q 77 602 44 500 q 171 787 109 704 q 320 921 233 871 q 517 972 408 972 q 611 958 566 970 q 689 911 656 945 q 733 810 722 877 q 735 785 735 798 q 712 718 735 743 q 655 692 688 692 q 605 712 626 692 q 585 770 585 732 q 590 806 585 792 q 595 845 595 820 q 577 907 595 880 q 523 935 559 935 q 370 836 456 935 q 302 731 343 806 q 235 536 262 656 q 350 610 291 586 q 464 633 409 633 q 592 600 534 633 q 687 505 651 566 q 722 364 722 444 q 685 200 722 279 q 583 71 648 121 q 378 3 491 3 z "},"7":{"ha":638,"x_min":44,"x_max":683,"o":"m 225 7 q 107 45 146 7 q 68 150 68 82 q 83 252 68 195 q 179 438 114 357 q 323 595 244 519 q 432 709 379 650 q 530 838 486 768 q 482 833 509 833 q 416 838 449 833 q 352 847 383 842 q 295 855 323 852 q 242 859 268 859 q 182 850 210 859 q 130 820 153 842 q 89 758 106 798 l 88 758 q 58 792 71 768 q 44 848 44 817 q 68 917 44 886 q 142 970 92 949 q 212 979 170 979 q 359 968 275 979 q 450 960 404 964 q 538 956 496 956 q 614 960 578 956 q 678 977 650 965 l 682 978 l 683 975 q 681 968 683 972 q 677 961 679 964 q 643 884 667 936 q 546 708 598 789 q 444 555 494 627 q 333 386 382 468 q 260 217 284 303 q 242 122 247 163 q 237 53 237 80 q 240 10 237 18 l 240 9 l 241 8 l 225 7 z "},"8":{"ha":745,"x_min":44,"x_max":701,"o":"m 472 606 q 549 681 525 631 q 573 785 573 731 q 546 892 573 848 q 473 936 519 936 q 386 900 413 932 q 358 821 358 867 q 389 707 358 767 q 472 606 420 648 m 368 51 q 458 69 423 51 q 510 118 493 87 q 526 190 526 150 q 480 341 526 259 q 349 489 433 422 q 250 373 286 448 q 214 222 214 297 q 228 139 214 178 q 274 77 243 101 q 355 51 305 54 l 368 51 m 343 9 l 326 9 q 174 41 237 9 q 77 126 111 73 q 44 241 44 179 q 72 351 44 296 q 158 454 100 406 q 308 536 216 503 q 254 635 272 582 q 236 741 236 688 q 262 857 236 804 q 342 944 288 911 q 478 977 395 977 q 601 954 553 977 q 673 893 650 931 q 697 810 697 856 q 649 680 697 746 q 509 571 602 614 l 552 526 q 640 421 595 481 q 697 307 685 360 q 701 269 701 288 q 654 140 701 198 q 526 48 607 83 q 343 9 446 14 z "},"9":{"ha":781,"x_min":44,"x_max":736,"o":"m 389 419 q 475 438 431 419 q 560 495 519 458 q 567 557 564 517 q 571 644 571 597 q 561 768 571 705 q 434 940 533 924 q 420 941 428 941 q 355 915 388 941 q 272 794 303 869 q 238 665 241 720 l 237 632 q 257 513 237 560 q 311 443 277 466 q 389 419 345 419 m 279 5 q 170 26 224 5 q 80 87 115 46 q 44 188 44 127 q 72 269 44 241 q 137 298 100 298 q 183 282 163 298 q 201 261 193 276 q 210 220 210 245 q 205 183 210 198 q 200 141 200 169 q 218 75 200 103 q 270 46 235 46 q 342 72 303 46 q 420 144 382 98 q 487 251 451 182 q 547 426 522 320 l 551 444 q 434 367 495 393 q 312 340 372 340 q 186 374 242 340 q 98 470 131 408 q 66 614 66 532 q 99 779 66 701 q 202 909 133 857 q 420 977 298 977 q 621 906 542 977 q 726 697 700 836 q 736 585 736 644 q 713 398 736 488 q 649 237 690 309 l 654 248 q 385 20 555 70 q 279 5 332 5 z "}," ":{"ha":450,"x_min":0,"x_max":0,"o":""}," ":{"ha":450,"x_min":0,"x_max":0,"o":""},"!":{"ha":494,"x_min":40,"x_max":446,"o":"m 200 264 l 142 266 l 264 970 l 446 970 l 200 264 m 134 6 q 67 34 95 6 q 40 100 40 61 q 67 166 40 138 q 134 193 95 193 q 200 166 172 193 q 227 100 227 138 q 200 34 227 61 q 134 6 172 6 z "},"\"":{"ha":245,"x_min":44,"x_max":195,"o":"m 71 867 l 44 867 l 62 972 l 115 972 l 71 867 m 152 867 l 125 867 l 142 972 l 195 972 l 152 867 z "},"#":{"ha":785,"x_min":38,"x_max":735,"o":"m 476 70 l 397 70 l 450 276 l 220 276 l 166 74 l 87 74 l 140 276 l 38 276 l 50 319 l 151 319 l 228 614 l 127 614 l 138 656 l 239 656 l 286 833 l 366 833 l 320 656 l 550 656 l 596 833 l 677 833 l 631 656 l 735 656 l 724 614 l 619 614 l 541 319 l 647 319 l 635 276 l 530 276 l 476 70 m 461 319 l 538 614 l 309 614 l 231 319 l 461 319 z "},"$":{"ha":795,"x_min":40,"x_max":747,"o":"m 354 -53 l 311 -53 l 320 5 q 163 58 226 16 q 71 159 101 100 q 40 277 40 218 q 59 364 40 324 q 116 428 78 404 q 210 452 154 452 q 269 446 237 452 q 209 344 231 401 q 188 231 188 287 q 221 116 188 165 q 328 55 255 66 l 393 459 q 321 529 357 494 q 256 601 286 564 q 209 677 227 637 q 191 763 191 718 q 214 857 191 818 q 276 922 237 897 q 364 960 315 947 q 464 972 413 972 l 475 972 l 484 1026 l 527 1026 l 517 969 q 648 931 597 960 q 723 861 699 902 q 747 772 747 819 q 724 697 747 730 q 656 665 702 665 q 596 686 624 665 q 569 743 569 707 q 574 782 569 762 q 586 821 580 802 q 591 856 591 840 q 569 907 591 887 q 512 935 546 927 l 464 631 q 545 551 504 592 q 622 465 587 509 q 679 372 657 420 q 701 269 701 323 q 681 170 701 218 q 619 85 661 123 q 513 25 577 47 q 363 3 450 3 l 354 -53 m 427 669 l 470 941 l 468 941 q 370 911 408 941 q 333 833 333 882 q 359 751 333 792 q 427 669 385 711 m 371 54 q 487 109 442 62 q 532 220 532 156 q 518 296 532 261 q 481 362 504 331 q 430 422 458 393 l 371 54 z "},"%":{"ha":757,"x_min":35,"x_max":704,"o":"m 125 3 l 35 3 l 612 970 l 704 970 l 125 3 m 243 604 q 165 633 197 604 q 118 705 134 663 q 102 788 102 747 q 118 871 102 829 q 165 943 134 914 q 243 972 197 972 q 321 943 290 972 q 368 871 352 914 q 385 788 385 829 q 368 705 385 747 q 321 633 352 663 q 243 604 290 604 m 243 647 q 281 668 266 647 q 304 721 296 688 q 311 788 311 753 q 304 856 311 823 q 281 908 296 888 q 243 929 266 929 q 206 908 220 929 q 184 856 191 888 q 176 788 176 823 q 184 721 176 753 q 206 668 191 688 q 243 647 220 647 m 524 5 q 446 34 477 5 q 399 106 415 63 q 382 189 382 149 q 399 272 382 230 q 446 344 415 315 q 524 373 477 373 q 602 344 570 373 q 649 272 633 315 q 665 189 665 230 q 649 106 665 149 q 602 34 633 63 q 524 5 570 5 m 524 48 q 562 69 547 48 q 585 122 577 90 q 593 189 593 154 q 585 256 593 224 q 562 309 577 288 q 524 330 547 330 q 487 309 502 330 q 465 256 473 288 q 458 189 458 224 q 465 122 458 154 q 487 69 473 90 q 524 48 502 48 z "},"&":{"ha":1031,"x_min":41,"x_max":985,"o":"m 352 1 q 157 61 239 1 q 50 220 75 121 q 41 291 41 255 q 105 500 41 401 q 267 647 169 600 q 245 756 245 705 q 308 907 245 847 q 483 973 371 968 l 507 974 q 619 959 566 974 q 708 907 672 945 q 754 804 744 870 q 755 783 755 793 q 743 731 755 752 q 711 701 730 711 q 671 690 692 690 q 619 710 642 690 q 595 767 595 729 q 603 809 595 792 q 610 851 610 825 q 578 919 610 895 q 500 942 547 942 q 416 917 452 942 q 381 843 381 892 q 400 766 381 806 q 446 686 418 726 q 502 612 473 647 q 551 549 530 576 l 736 294 q 761 346 748 309 q 782 426 773 382 q 791 503 791 469 q 759 506 774 505 q 729 508 743 508 q 699 505 712 508 q 677 492 686 501 q 698 554 680 533 q 745 583 716 576 q 806 591 773 591 q 871 587 838 591 q 932 583 905 583 q 963 586 949 583 q 985 597 977 589 q 960 535 978 556 q 917 506 943 513 q 862 498 891 498 q 836 498 849 498 q 819 409 831 460 q 763 259 800 331 q 812 190 786 227 q 870 126 839 153 q 937 98 901 98 q 961 102 949 98 q 935 66 954 90 q 888 24 917 43 q 819 5 859 5 q 729 36 772 5 q 648 117 687 68 q 497 28 573 56 q 352 1 422 1 m 460 79 q 541 96 500 79 q 624 149 583 113 l 289 605 q 206 514 232 567 q 180 403 180 461 q 219 250 180 325 q 320 127 257 176 q 460 79 384 79 z "},"'":{"ha":159,"x_min":39,"x_max":110,"o":"m 66 867 l 39 867 l 57 972 l 110 972 l 66 867 z "},"(":{"ha":328,"x_min":34,"x_max":458,"o":"m 189 -83 q 72 94 110 -8 q 34 313 34 197 q 139 715 34 513 q 441 1046 245 916 l 458 1012 q 283 815 357 939 q 168 544 209 691 q 127 261 127 397 q 151 84 127 165 q 222 -50 174 3 l 189 -83 z "},")":{"ha":457,"x_min":-7,"x_max":379,"o":"m 14 -80 l -7 -47 q 148 144 83 26 q 247 400 212 262 q 282 669 282 539 q 254 874 282 781 q 166 1023 226 967 l 198 1058 q 335 870 290 981 q 379 631 379 759 q 285 246 379 439 q 14 -80 191 53 z "},"*":{"ha":441,"x_min":43,"x_max":368,"o":"m 225 654 l 199 795 l 103 654 l 51 702 l 189 805 l 43 821 l 86 897 l 197 821 l 203 971 l 281 971 l 213 821 l 363 897 l 368 821 l 214 805 l 300 702 l 225 654 z "},"+":{"ha":552,"x_min":44,"x_max":508,"o":"m 257 235 l 178 235 l 227 418 l 44 418 l 64 496 l 248 496 l 295 679 l 374 679 l 326 496 l 508 496 l 488 418 l 305 418 l 257 235 z "},",":{"ha":259,"x_min":47,"x_max":209,"o":"m 92 -113 l 53 -113 q 102 -41 102 -73 q 78 12 102 -12 q 66 23 71 17 l 66 24 q 47 79 47 47 l 47 81 q 72 135 49 113 q 130 157 95 157 q 148 155 140 157 q 209 73 208 135 q 207 56 209 64 q 156 -45 191 -1 q 92 -113 122 -88 z "},"-":{"ha":552,"x_min":44,"x_max":508,"o":"m 488 420 l 44 420 l 64 498 l 508 498 l 488 420 z "},"­":{"ha":552,"x_min":44,"x_max":508,"o":"m 488 420 l 44 420 l 64 498 l 508 498 l 488 420 z "},".":{"ha":258,"x_min":42,"x_max":204,"o":"m 123 5 q 66 28 90 5 q 42 86 42 52 q 66 144 42 120 q 123 168 90 168 q 180 144 157 168 q 204 86 204 120 q 180 28 204 52 q 123 5 157 5 z "},"/":{"ha":509,"x_min":44,"x_max":492,"o":"m 125 -34 l 44 -34 l 411 972 l 492 972 l 125 -34 z "},":":{"ha":365,"x_min":42,"x_max":282,"o":"m 123 5 q 66 28 90 5 q 42 86 42 52 q 66 144 42 120 q 123 168 90 168 q 181 144 157 168 q 205 86 205 120 q 181 28 205 52 q 123 5 157 5 m 201 404 q 143 427 167 404 q 119 485 119 451 q 143 543 119 519 q 201 566 167 566 q 258 543 234 566 q 282 485 282 519 q 258 427 282 451 q 201 404 234 404 z "},";":{"ha":264,"x_min":47,"x_max":282,"o":"m 201 404 q 143 427 167 404 q 119 485 119 451 q 143 543 119 519 q 201 566 167 566 q 258 543 234 566 q 282 485 282 519 q 258 427 282 451 q 201 404 234 404 m 92 -113 l 53 -113 q 102 -41 102 -73 q 78 12 102 -12 q 66 23 71 17 l 66 24 q 47 79 47 47 l 47 81 q 72 135 49 113 q 130 157 95 157 q 148 155 140 157 q 209 73 208 135 q 207 56 209 64 q 156 -45 191 -1 q 92 -113 122 -88 z "},"<":{"ha":544,"x_min":54,"x_max":510,"o":"m 385 214 l 54 421 l 75 498 l 510 694 l 490 617 l 139 458 l 405 291 l 385 214 z "},"=":{"ha":595,"x_min":44,"x_max":551,"o":"m 488 336 l 44 336 l 64 414 l 508 414 l 488 336 m 530 496 l 87 496 l 107 575 l 551 575 l 530 496 z "},">":{"ha":533,"x_min":59,"x_max":504,"o":"m 59 222 l 80 304 q 422 460 251 382 l 161 627 l 181 707 l 504 500 l 484 420 l 59 222 z "},"?":{"ha":654,"x_min":46,"x_max":612,"o":"m 191 272 q 141 275 152 273 q 130 276 130 276 q 195 458 155 402 q 279 538 234 513 q 365 596 323 563 q 437 712 407 630 q 452 800 452 757 q 419 903 452 864 q 321 943 387 943 q 254 932 277 943 q 223 902 231 921 q 215 859 215 883 q 218 814 215 838 q 221 766 221 790 q 200 694 221 720 q 146 668 180 668 q 107 680 126 668 q 75 715 87 692 q 62 773 62 739 q 108 887 67 843 q 211 952 149 932 q 335 973 273 973 q 473 939 410 973 q 574 848 536 905 q 612 723 612 791 q 599 648 612 686 q 513 538 570 570 q 390 485 456 506 q 270 419 325 464 q 191 272 216 375 m 140 3 q 74 31 101 3 q 46 97 46 58 q 74 163 46 136 q 140 191 101 191 q 206 163 178 191 q 233 97 233 136 q 206 31 233 58 q 140 3 178 3 z "},"@":{"ha":861,"x_min":36,"x_max":809,"o":"m 409 3 q 345 9 377 3 l 337 10 q 118 150 200 41 q 36 401 36 259 q 67 565 36 487 q 154 705 98 644 q 284 802 210 766 q 446 838 359 838 q 473 837 446 838 q 518 831 500 836 q 757 663 675 795 l 766 647 q 809 476 809 560 q 778 336 809 401 q 689 233 747 272 q 551 193 631 193 q 484 208 515 193 q 435 257 454 222 q 426 282 429 268 q 363 232 396 246 q 304 218 331 218 q 249 236 270 218 q 217 282 227 253 q 207 348 207 311 q 231 462 207 407 q 299 553 256 517 q 398 588 342 588 q 487 557 457 588 l 495 588 l 605 588 l 538 335 q 535 314 535 324 q 556 269 540 283 q 595 255 573 255 q 669 284 631 255 q 735 365 708 313 q 762 484 762 416 q 758 535 762 509 q 750 577 757 546 q 722 642 743 608 q 632 738 686 699 q 510 791 578 777 q 503 793 507 791 q 446 798 475 798 q 217 710 319 798 q 85 482 116 622 q 83 473 85 478 q 77 400 77 436 q 151 174 77 271 q 345 50 225 77 q 352 49 349 50 q 409 44 380 44 q 607 108 515 44 l 673 108 q 547 30 617 57 q 409 3 476 3 m 361 274 q 401 294 385 274 q 430 340 418 313 l 479 528 q 435 553 458 553 q 375 520 404 553 q 328 438 345 488 q 317 396 323 422 q 311 345 311 370 q 323 294 311 314 q 361 274 335 274 z "},"A":{"ha":852,"x_min":88,"x_max":843,"o":"m 255 -77 q 218 -64 235 -77 q 190 -21 201 -51 q 167 132 167 50 q 185 306 167 218 q 228 466 203 393 q 274 581 252 538 l 276 585 l 256 585 q 144 570 192 585 q 88 543 97 555 l 88 552 q 110 627 88 597 q 169 672 132 657 q 251 688 205 688 q 323 679 286 688 q 451 852 383 783 q 586 950 519 921 q 689 975 645 975 q 780 940 747 975 q 828 847 814 905 q 843 720 843 789 q 832 585 843 654 q 804 454 821 515 l 804 454 l 685 3 l 505 3 l 552 182 q 555 250 555 218 q 535 396 555 336 q 481 494 515 456 q 406 553 448 532 q 319 581 363 574 l 312 564 q 263 434 281 497 q 245 309 245 371 q 265 192 245 250 q 330 72 285 133 q 347 22 347 47 q 318 -47 347 -16 q 255 -77 289 -77 m 600 368 l 692 720 q 705 779 700 747 q 711 839 711 810 q 698 900 711 875 q 652 924 686 924 q 592 908 627 924 q 519 859 557 892 q 440 778 480 827 q 363 666 401 730 q 513 561 447 635 q 600 368 579 486 z "},"B":{"ha":989,"x_min":86,"x_max":918,"o":"m 572 1 l 169 1 l 410 924 q 270 868 323 913 q 217 762 217 822 q 230 708 217 736 q 269 653 242 680 q 172 619 213 619 q 109 646 132 619 q 86 715 86 672 q 110 807 86 755 q 189 897 138 863 q 301 947 239 930 q 429 968 363 963 q 551 973 494 973 q 618 972 585 973 q 684 967 652 970 q 741 958 715 964 q 843 916 804 943 q 900 853 882 889 q 918 780 918 818 q 857 634 918 703 q 693 543 795 565 q 817 497 768 532 q 891 413 867 463 q 915 307 915 363 q 876 166 915 235 q 761 52 838 97 q 572 1 685 6 m 357 33 q 449 34 397 34 q 538 39 501 34 q 642 94 598 50 q 710 198 686 137 q 734 321 734 259 q 705 433 734 387 q 625 501 675 478 q 508 524 574 524 l 486 524 l 357 33 m 495 556 q 636 606 581 569 q 720 692 692 643 q 748 791 748 742 q 710 893 748 850 q 597 943 671 937 l 495 556 z "},"C":{"ha":812,"x_min":88,"x_max":777,"o":"m 384 6 q 254 35 309 6 q 162 115 199 64 q 106 230 125 165 q 88 367 88 295 q 110 535 88 450 q 174 699 132 621 q 275 838 215 777 q 411 936 335 899 q 578 972 488 972 q 695 941 644 972 q 768 848 746 911 q 777 799 777 823 q 745 701 777 755 q 711 668 732 678 q 667 657 690 657 q 609 677 635 657 q 583 732 583 697 q 608 798 583 761 q 637 877 637 845 q 620 920 637 905 q 574 935 602 935 q 458 887 511 935 q 367 762 406 839 q 307 593 328 685 q 286 414 286 502 q 306 264 286 332 q 370 154 326 195 q 483 112 414 112 q 550 121 514 112 q 629 151 587 131 q 719 203 671 172 l 736 180 q 553 48 643 90 q 384 6 463 6 z "},"D":{"ha":1047,"x_min":74,"x_max":1033,"o":"m 366 1 l 169 1 l 410 926 q 261 871 319 918 q 203 762 203 825 q 256 653 203 709 q 240 645 256 653 q 202 628 225 636 q 157 619 180 619 q 95 646 117 619 q 74 714 74 673 q 111 824 74 766 q 224 924 147 883 q 422 970 301 966 l 604 970 l 632 970 q 846 909 757 968 q 984 756 936 851 q 1033 552 1033 661 q 1016 428 1033 490 q 950 273 995 349 q 828 137 905 198 q 638 38 752 75 q 366 1 524 1 m 358 36 q 653 163 534 52 q 821 455 772 275 q 845 628 845 545 q 819 778 845 710 q 738 886 793 845 q 594 933 683 928 l 358 36 z "},"E":{"ha":852,"x_min":88,"x_max":952,"o":"m 603 1 l 506 1 q 351 15 411 1 q 263 65 292 30 q 235 161 235 100 q 256 294 235 215 l 422 926 q 274 870 331 917 q 218 762 218 824 q 230 708 218 735 q 270 653 243 680 l 255 645 q 217 628 239 636 q 172 619 194 619 q 110 646 131 619 q 88 714 88 673 q 124 824 88 765 q 237 924 161 882 q 433 970 314 966 l 952 970 l 941 926 l 602 926 l 480 467 q 543 547 508 510 q 620 608 578 585 q 711 632 661 632 q 783 609 759 632 q 807 557 807 586 q 787 510 807 531 q 730 489 768 489 q 693 494 709 489 q 644 500 675 500 q 558 479 595 500 q 496 428 522 458 q 453 364 470 397 l 448 346 q 420 238 431 284 q 410 149 410 191 q 418 103 410 122 q 444 72 426 83 q 491 54 462 60 q 564 48 521 49 l 731 48 l 720 1 q 603 1 603 1 z "},"F":{"ha":851,"x_min":88,"x_max":972,"o":"m 363 1 l 183 1 l 425 926 q 275 871 333 918 q 218 762 218 824 q 230 708 218 735 q 270 653 243 680 q 255 645 270 653 q 217 628 239 636 q 172 619 194 619 q 110 646 131 619 q 88 714 88 673 q 125 824 88 765 q 239 925 161 883 q 437 970 316 966 l 972 970 l 960 926 l 607 926 l 494 500 q 556 574 522 540 q 629 629 589 608 q 717 650 669 650 q 787 627 763 650 q 811 574 811 604 q 791 527 811 548 q 734 506 772 506 q 707 509 719 506 q 682 515 695 512 q 648 517 668 517 q 571 500 604 517 q 512 457 537 484 q 469 401 486 431 l 363 1 z "},"G":{"ha":1049,"x_min":88,"x_max":996,"o":"m 469 2 q 268 58 353 2 q 135 208 182 114 q 88 416 88 302 q 129 618 88 519 q 239 797 169 717 q 402 924 309 876 q 600 972 495 972 q 636 970 618 972 q 793 929 734 961 q 878 852 852 897 q 903 765 903 808 q 873 673 903 712 q 800 635 844 635 q 743 655 768 635 q 718 709 718 676 q 726 745 718 728 q 743 780 734 763 q 756 811 752 796 q 759 831 759 822 q 734 889 759 867 q 674 921 709 911 q 612 931 640 931 q 498 895 551 931 q 402 797 445 859 q 329 659 359 736 q 281 499 298 582 q 264 338 264 416 q 284 190 264 257 q 347 84 304 123 q 458 44 390 44 q 617 93 537 44 q 730 212 697 141 l 806 499 l 591 499 l 602 541 l 996 540 l 914 231 q 899 169 907 203 q 892 100 892 134 q 900 46 892 71 q 930 3 909 20 l 854 3 l 852 3 q 775 24 809 3 q 727 85 742 44 q 469 2 605 2 z "},"H":{"ha":986,"x_min":88,"x_max":1063,"o":"m 808 3 l 628 3 l 749 465 l 485 465 l 363 3 l 183 3 l 425 927 q 275 872 333 919 q 218 764 218 826 q 230 709 218 737 q 270 654 243 682 q 255 646 270 654 q 217 629 239 637 q 172 621 194 621 q 110 648 131 621 q 88 715 88 675 q 125 825 88 766 q 238 926 161 884 q 436 972 315 968 l 618 972 l 496 509 l 760 509 l 881 972 l 1063 972 l 808 3 z "},"I":{"ha":538,"x_min":88,"x_max":618,"o":"m 363 3 l 183 3 l 425 927 q 275 872 333 919 q 218 764 218 826 q 230 709 218 737 q 270 654 243 682 q 255 646 270 654 q 217 629 239 637 q 172 621 194 621 q 110 648 131 621 q 88 715 88 675 q 125 825 88 766 q 239 926 161 884 q 437 972 316 968 l 618 972 l 363 3 z "},"J":{"ha":862,"x_min":88,"x_max":945,"o":"m 750 924 q 627 873 676 912 q 569 764 569 826 q 582 709 569 737 q 621 654 594 682 l 621 654 q 620 654 621 654 q 606 646 616 652 q 568 629 591 637 q 523 621 545 621 q 461 648 482 621 q 439 715 439 675 q 476 825 439 766 q 590 926 513 884 q 762 970 659 963 l 763 972 l 945 972 l 807 447 q 747 278 781 358 q 660 137 712 199 q 532 39 608 75 q 347 3 456 3 l 339 3 q 213 30 270 3 q 122 109 156 58 q 88 231 88 160 q 92 277 88 253 q 131 345 100 321 q 195 370 161 370 q 249 348 225 370 q 272 278 272 326 q 265 223 272 249 q 259 190 262 208 q 256 150 256 172 q 278 72 256 98 q 340 47 300 47 q 452 79 407 47 q 527 164 497 112 q 576 278 557 216 q 610 399 595 339 l 617 425 l 750 924 z "},"K":{"ha":982,"x_min":88,"x_max":1034,"o":"m 754 3 q 658 32 698 3 q 590 111 618 62 q 542 219 562 159 q 509 339 523 279 q 482 454 494 400 l 363 3 l 183 3 l 425 927 q 275 872 333 919 q 218 764 218 826 q 230 709 218 737 q 270 654 243 682 q 255 646 270 654 q 217 629 239 637 q 172 621 194 621 q 110 648 131 621 q 88 715 88 675 q 125 825 88 766 q 239 926 161 884 q 437 972 316 968 l 618 972 l 509 554 l 606 700 q 664 791 632 744 q 735 879 696 838 q 822 946 774 920 q 924 972 869 972 q 1006 944 977 972 q 1034 877 1034 916 q 1023 834 1034 854 q 991 800 1013 813 q 939 787 970 787 q 897 792 916 787 q 842 798 878 798 q 742 776 785 798 q 665 715 699 755 q 526 512 609 635 l 648 509 q 655 469 649 501 q 671 390 661 437 q 698 291 682 342 q 738 195 715 240 q 792 121 762 150 q 863 93 823 93 q 901 100 881 93 q 846 28 880 54 q 754 3 811 3 z "},"L":{"ha":659,"x_min":88,"x_max":877,"o":"m 717 -245 q 626 -220 666 -245 q 549 -159 587 -195 q 471 -84 512 -122 q 378 -16 429 -45 q 317 0 351 -3 q 254 3 284 3 q 183 3 186 3 l 425 927 q 275 872 333 919 q 218 764 218 826 q 230 709 218 737 q 270 654 243 682 q 255 646 270 654 q 217 629 239 637 q 172 621 194 621 q 110 648 131 621 q 88 715 88 675 q 125 825 88 766 q 239 926 161 884 q 437 972 316 968 l 618 972 l 373 41 q 469 -9 421 26 q 569 -79 517 -45 q 684 -122 622 -113 q 709 -123 696 -123 q 769 -113 745 -123 q 809 -88 793 -103 q 832 -58 824 -73 q 845 -33 841 -43 q 850 -22 849 -22 l 851 -23 q 877 -101 877 -63 q 853 -174 877 -141 q 793 -225 829 -206 q 717 -245 756 -245 z "},"M":{"ha":1101,"x_min":88,"x_max":1106,"o":"m 968 3 l 793 3 l 910 842 l 546 3 l 418 3 l 429 814 l 141 3 l 95 3 l 425 928 q 275 873 333 920 q 218 764 218 826 q 230 709 218 737 q 270 654 243 682 q 255 646 270 654 q 217 629 240 637 q 171 621 195 621 q 109 649 130 621 q 88 716 88 676 q 122 822 88 765 q 227 920 156 878 q 409 970 298 962 q 440 972 421 972 l 608 972 l 595 227 l 920 972 l 1106 972 l 968 3 z "},"N":{"ha":1015,"x_min":88,"x_max":1092,"o":"m 214 2 l 169 2 l 408 913 l 405 925 q 269 868 321 913 q 218 764 218 823 q 230 709 218 737 q 270 654 243 682 q 255 646 270 654 q 217 629 239 637 q 172 621 194 621 q 110 648 131 621 q 88 715 88 675 q 125 825 88 766 q 239 926 161 884 q 437 972 316 968 l 581 972 l 826 130 l 1047 972 l 1092 972 l 850 47 l 863 3 l 680 3 l 432 834 l 214 2 z "},"O":{"ha":886,"x_min":88,"x_max":858,"o":"m 394 3 l 391 3 q 254 30 311 3 q 159 103 196 57 q 105 210 123 150 q 88 335 88 269 q 141 570 88 454 q 289 751 194 686 q 359 787 320 771 q 436 802 398 802 q 488 791 463 802 q 531 756 512 781 q 386 663 446 739 q 295 483 326 587 q 263 281 263 378 q 278 163 263 217 q 324 78 293 110 q 402 46 355 46 q 491 84 448 46 q 570 186 534 122 q 633 329 606 250 q 675 493 660 408 q 690 656 690 578 q 673 799 690 736 q 619 896 656 861 q 524 930 583 930 q 360 883 444 930 q 245 765 277 836 q 224 830 224 800 q 251 893 224 867 q 320 938 278 920 q 410 965 362 956 q 497 974 457 974 q 659 940 591 974 q 771 849 727 907 q 837 718 815 792 q 858 564 858 644 q 804 303 858 432 q 646 91 749 175 q 394 3 542 7 z "},"P":{"ha":925,"x_min":88,"x_max":972,"o":"m 184 4 l 425 929 q 276 874 333 921 q 218 765 218 827 q 231 711 218 739 q 270 656 243 684 q 174 622 214 622 q 110 652 132 622 q 88 723 88 682 q 99 781 88 751 q 130 838 109 811 q 248 922 175 892 q 399 964 320 952 q 538 975 478 975 q 735 952 653 975 q 870 890 818 930 q 948 800 923 850 q 972 692 972 749 q 935 546 972 620 q 826 412 897 473 q 659 314 756 351 q 444 277 562 277 l 435 277 l 363 5 l 184 4 m 447 321 q 635 392 557 332 q 756 539 714 452 q 798 709 798 625 q 778 812 798 765 q 715 891 758 860 q 607 929 673 922 l 447 321 z "},"Q":{"ha":871,"x_min":88,"x_max":850,"o":"m 599 -227 q 513 -202 557 -227 q 434 -126 469 -178 q 387 4 400 -75 q 217 52 283 5 q 119 175 151 99 q 88 340 88 252 q 140 570 88 456 q 288 750 192 684 q 356 786 318 771 q 433 802 395 802 q 484 791 459 802 q 526 756 508 781 q 383 663 442 739 q 293 483 324 587 q 262 282 262 379 q 291 126 262 191 q 381 48 320 60 l 380 81 q 383 139 380 109 l 427 139 q 441 55 427 94 q 562 180 508 85 q 649 402 616 275 q 682 646 682 529 q 664 793 682 729 q 608 893 646 857 q 510 930 570 930 q 381 890 446 930 q 288 778 315 851 q 270 838 270 810 q 334 937 270 895 q 489 978 397 978 q 614 956 551 978 q 731 884 678 933 q 817 756 784 835 q 850 564 850 677 q 804 324 850 444 q 671 120 758 205 q 459 10 584 35 q 527 -67 486 -39 q 617 -96 569 -96 q 702 -70 659 -96 q 709 -119 709 -96 q 676 -199 709 -171 q 599 -227 644 -227 z "},"R":{"ha":971,"x_min":88,"x_max":974,"o":"m 728 1 l 715 2 q 601 63 648 9 q 515 179 554 117 q 434 270 476 240 l 363 2 l 183 1 l 425 926 q 275 871 333 918 q 218 763 218 825 q 230 708 218 736 q 270 654 243 681 q 255 645 270 654 q 217 628 240 637 q 172 620 195 620 q 110 647 131 620 q 88 715 88 674 q 116 810 88 760 q 201 903 144 861 q 256 931 223 918 q 330 952 289 943 q 417 966 371 962 q 513 971 464 971 q 677 956 595 971 q 826 908 759 941 q 933 822 892 875 q 974 691 974 768 l 972 667 q 860 436 961 543 q 585 289 760 330 q 667 249 636 273 q 716 195 697 224 q 751 142 735 167 q 787 100 766 117 q 842 84 807 84 q 878 88 858 84 q 838 34 863 53 q 782 8 812 15 q 728 1 753 1 m 446 319 q 627 385 551 329 q 747 519 703 440 q 797 682 790 599 q 798 707 798 694 q 777 810 798 762 q 715 889 757 858 q 607 926 673 920 l 446 319 z "},"S":{"ha":829,"x_min":88,"x_max":795,"o":"m 412 3 q 270 28 331 3 q 169 92 209 52 q 108 180 128 132 q 88 277 88 229 q 107 363 88 323 q 164 428 127 404 q 258 452 202 452 q 317 446 286 452 q 257 344 279 401 q 236 231 236 287 q 254 143 236 184 q 308 78 271 103 q 401 54 344 54 q 529 103 477 54 q 581 221 581 152 q 556 319 581 273 q 492 407 531 365 q 410 490 453 449 q 327 574 366 531 q 263 663 288 616 q 239 764 239 710 q 248 827 239 794 q 512 972 287 956 q 672 943 609 970 q 765 870 734 915 q 795 772 795 825 q 772 697 795 730 q 705 665 750 665 q 645 686 672 665 q 617 743 617 707 q 623 782 617 762 q 634 821 628 802 q 640 856 640 840 q 622 903 640 884 q 576 931 604 922 q 516 941 547 941 q 434 921 473 941 q 385 861 396 902 q 381 833 381 847 q 408 750 381 791 q 476 666 435 709 q 565 579 518 624 q 654 486 612 534 q 723 383 696 437 q 749 268 749 329 q 729 170 749 218 q 667 85 709 123 q 562 26 625 48 q 412 3 498 3 z "},"T":{"ha":738,"x_min":88,"x_max":1010,"o":"m 501 3 l 321 3 l 562 928 l 425 927 q 275 872 333 919 q 218 764 218 826 q 230 709 218 737 q 270 654 243 682 q 255 646 270 654 q 217 629 239 637 q 172 621 194 621 q 110 648 131 621 q 88 715 88 675 q 124 825 88 766 q 237 925 161 884 q 432 972 313 967 l 1010 972 l 998 928 l 745 928 l 501 3 z "},"U":{"ha":1080,"x_min":88,"x_max":1128,"o":"m 871 3 l 869 3 q 781 32 819 3 q 736 119 743 61 q 603 34 682 65 q 445 3 523 3 q 343 21 389 3 q 268 79 296 39 q 239 184 239 119 q 249 259 239 218 l 425 927 q 275 872 333 919 q 218 764 218 825 q 230 709 218 736 q 270 654 243 682 q 255 646 270 654 q 217 629 240 637 q 172 621 195 621 q 110 648 131 621 q 88 715 88 675 q 125 825 88 766 q 239 926 161 884 q 437 972 316 968 l 615 972 l 421 231 q 417 202 417 216 q 438 143 417 168 q 494 106 460 119 q 568 93 528 93 q 669 118 620 93 q 744 199 719 144 l 949 972 l 1128 972 l 922 194 q 916 146 916 170 q 924 109 916 125 q 957 94 933 94 q 991 100 971 94 q 947 29 982 56 q 871 3 911 3 z "},"V":{"ha":951,"x_min":88,"x_max":1057,"o":"m 515 2 q 433 42 468 2 q 394 164 399 81 l 365 917 q 258 857 298 898 q 218 764 218 815 q 230 709 218 737 q 270 654 243 682 q 255 646 270 654 q 217 629 239 637 q 172 621 194 621 q 110 648 131 621 q 88 715 88 675 q 124 825 88 766 q 236 925 160 883 q 430 972 311 966 l 545 972 l 572 170 q 579 121 573 136 q 595 106 585 106 q 652 168 618 106 q 749 345 713 273 q 873 608 785 416 q 899 757 899 675 q 878 901 899 828 q 873 932 873 917 q 905 1003 873 975 q 974 1031 937 1031 q 1026 1011 1002 1031 q 1057 945 1049 991 q 1057 932 1057 939 q 1035 829 1057 895 q 975 683 1012 764 q 894 515 939 602 q 805 348 850 429 q 724 202 761 267 q 663 98 686 137 q 592 26 631 51 q 515 2 553 2 z "},"W":{"ha":1473,"x_min":88,"x_max":1569,"o":"m 1027 3 q 945 42 980 3 q 906 164 911 81 l 886 664 q 675 98 812 320 q 604 27 644 51 q 527 3 565 3 q 445 42 479 3 q 406 164 410 81 l 376 920 q 261 860 304 903 q 218 764 218 817 q 231 709 218 736 q 270 654 243 682 q 255 646 270 654 q 217 629 239 637 q 172 621 194 621 q 110 648 131 621 q 88 715 88 675 q 125 826 88 767 q 239 926 161 884 q 436 972 316 968 l 557 972 l 583 170 q 587 133 584 147 q 595 113 590 119 q 608 106 601 106 q 625 114 616 106 q 645 136 635 122 q 664 168 654 149 q 795 500 733 297 q 876 951 857 703 l 875 969 q 881 969 879 969 q 883 970 882 970 q 885 970 884 970 l 890 970 l 1057 972 l 1084 170 q 1091 121 1085 136 q 1107 106 1097 106 q 1164 168 1131 106 q 1261 345 1225 274 q 1385 608 1297 416 q 1411 757 1411 675 q 1390 901 1411 828 q 1385 932 1385 917 q 1417 1003 1385 975 q 1487 1031 1449 1031 q 1538 1011 1515 1031 q 1569 945 1562 991 q 1569 932 1569 939 q 1547 829 1569 895 q 1487 683 1524 764 q 1406 515 1451 602 q 1318 348 1362 429 q 1236 202 1274 267 q 1176 98 1199 137 q 1104 27 1144 51 q 1027 3 1065 3 z "},"X":{"ha":884,"x_min":88,"x_max":922,"o":"m 764 3 l 582 3 l 479 368 l 211 3 l 152 3 l 463 425 l 330 905 q 218 764 218 852 q 230 709 218 737 q 270 654 243 682 q 255 646 270 654 q 217 629 240 637 q 171 621 195 621 q 109 648 130 621 q 88 715 88 675 q 119 821 88 774 q 201 902 150 868 q 313 954 252 936 q 437 972 375 972 l 499 972 l 599 607 l 869 972 l 922 972 l 614 551 l 764 3 z "},"Y":{"ha":890,"x_min":88,"x_max":994,"o":"m 600 3 l 419 3 l 530 429 l 383 922 q 263 862 309 905 q 218 764 218 819 q 230 709 218 736 q 270 654 243 682 q 255 646 270 654 q 217 629 239 637 q 172 621 194 621 q 110 648 131 621 q 88 715 88 675 q 125 825 88 766 q 238 926 161 884 q 435 972 315 968 l 551 972 l 703 458 q 786 606 736 515 q 825 791 825 688 q 812 899 825 844 q 810 923 810 911 q 825 974 810 952 q 864 1008 840 996 q 911 1021 887 1021 q 948 1011 929 1021 q 981 981 968 1002 q 994 924 994 960 q 976 846 994 895 q 926 735 958 797 q 856 606 895 674 q 773 469 816 538 q 688 336 730 399 l 600 3 z "},"Z":{"ha":893,"x_min":88,"x_max":956,"o":"m 532 2 q 438 9 477 2 q 364 24 398 17 q 289 32 330 32 q 153 3 231 32 l 125 2 l 88 3 l 90 4 l 726 930 l 610 929 l 608 928 l 596 929 q 550 926 579 929 q 490 910 522 922 q 433 872 458 898 q 395 802 407 846 q 356 734 383 755 q 300 713 329 713 q 246 734 270 713 q 222 792 222 755 q 254 880 222 829 q 358 954 293 937 q 503 970 424 970 l 877 972 l 877 971 l 956 971 l 336 71 q 405 60 370 66 q 480 54 439 54 q 518 56 498 54 q 628 95 587 64 q 689 163 669 126 q 715 229 709 201 q 721 257 721 257 l 731 257 q 798 236 776 257 q 819 185 819 216 q 798 119 819 154 q 736 56 777 85 q 638 14 692 26 q 532 2 585 2 z "},"[":{"ha":378,"x_min":44,"x_max":499,"o":"m 203 -74 l 44 -70 l 340 1044 l 499 1044 l 486 994 l 427 994 l 157 -22 l 218 -22 l 203 -74 z "},"\\":{"ha":509,"x_min":44,"x_max":492,"o":"m 411 -34 l 44 972 l 125 972 l 492 -34 l 411 -34 z "},"]":{"ha":543,"x_min":44,"x_max":499,"o":"m 201 -75 l 44 -73 l 57 -22 l 115 -22 l 387 995 l 330 995 l 343 1044 l 499 1044 l 201 -75 z "},"^":{"ha":338,"x_min":44,"x_max":294,"o":"m 294 810 l 257 810 l 197 911 l 81 810 l 44 810 l 176 974 l 250 974 l 294 810 z "},"_":{"ha":693,"x_min":62,"x_max":599,"o":"m 587 -77 l 62 -78 l 75 -26 l 599 -25 l 587 -77 z "},"`":{"ha":273,"x_min":44,"x_max":229,"o":"m 229 806 l 191 806 l 44 970 l 140 970 l 229 806 z "},"a":{"ha":703,"x_min":-7,"x_max":746,"o":"m 154 1 q 62 30 97 1 q 10 106 26 58 q -7 214 -7 155 q 24 379 -7 294 q 118 526 56 463 q 271 608 180 589 q 307 610 290 610 q 399 594 360 610 q 463 549 437 578 l 465 546 l 482 610 l 662 610 l 551 194 q 547 158 547 174 q 561 110 547 127 q 594 93 574 93 q 648 119 618 93 q 702 202 677 145 l 746 202 q 638 52 710 102 q 498 2 567 2 q 409 32 446 2 q 365 123 371 62 q 295 50 332 76 q 221 12 258 23 q 154 1 185 1 m 245 93 q 294 111 272 93 q 334 158 316 130 q 366 217 352 186 q 393 274 380 248 l 452 498 q 412 538 433 526 q 368 551 391 551 q 269 498 317 551 q 193 363 221 445 q 174 294 183 337 q 164 208 164 251 q 172 151 164 178 q 197 109 179 125 q 245 93 214 93 z "},"b":{"ha":717,"x_min":-54,"x_max":763,"o":"m 300 3 q 243 12 272 3 q 187 49 211 23 q 152 104 163 75 l 125 3 l -54 3 l 199 970 l 380 970 l 270 549 q 429 610 341 610 q 531 582 491 610 q 590 506 571 553 q 610 399 610 458 q 579 246 610 321 q 499 113 549 171 q 562 94 529 94 q 653 126 610 94 q 718 203 696 158 l 763 203 q 717 128 748 163 q 642 72 686 94 q 545 51 597 51 q 499 55 522 51 q 456 69 477 60 q 381 20 421 38 q 300 3 342 3 m 255 98 q 296 107 275 98 q 338 138 317 117 q 379 196 359 160 l 378 214 q 391 292 378 253 q 432 358 404 331 q 441 450 441 408 q 427 529 441 498 q 379 561 412 561 q 312 535 348 561 q 248 465 275 510 l 169 166 q 195 120 171 141 q 255 98 220 98 z "},"c":{"ha":559,"x_min":-7,"x_max":602,"o":"m 252 1 q 110 32 168 1 q 23 116 52 62 q -7 239 -7 170 q 17 369 -7 303 q 85 488 41 434 q 190 576 130 543 q 323 609 250 609 q 453 569 408 609 q 498 467 498 528 q 483 396 498 431 q 442 340 468 362 q 384 318 416 318 q 329 339 352 318 q 305 392 305 361 q 319 438 305 414 q 341 464 327 449 q 367 497 355 479 q 379 535 379 515 q 367 565 379 554 q 338 575 355 575 q 294 559 318 575 q 200 438 233 514 q 168 286 168 362 q 207 145 168 199 q 326 92 246 92 q 455 119 388 92 q 559 202 522 147 l 602 202 q 451 54 544 107 q 252 1 357 1 z "},"d":{"ha":688,"x_min":-7,"x_max":743,"o":"m 487 3 l 485 3 q 399 29 436 3 q 353 109 363 56 q 286 45 321 68 q 217 12 251 22 q 153 3 182 3 q 62 31 97 3 q 10 108 26 60 q -7 215 -7 156 q 16 356 -7 286 q 80 483 39 426 q 180 575 122 541 q 309 610 238 610 q 454 557 401 610 l 563 972 l 743 972 l 538 195 q 534 159 534 175 q 547 111 534 127 q 581 94 560 94 q 634 120 605 94 q 688 203 663 146 l 732 203 q 627 54 696 104 q 487 3 557 3 m 246 94 q 295 111 274 94 q 332 154 316 127 q 362 210 349 180 l 441 511 q 367 551 406 551 q 269 498 317 551 q 192 363 220 444 q 173 295 182 337 q 164 210 164 252 q 183 127 164 159 q 246 94 202 94 z "},"e":{"ha":524,"x_min":-7,"x_max":568,"o":"m 164 298 q 251 361 216 319 q 307 441 287 403 q 336 540 336 500 q 328 570 336 562 q 306 579 320 579 q 242 551 269 579 q 198 479 215 522 q 172 387 180 435 q 164 300 164 339 l 164 298 m 258 4 q 194 11 227 4 q 79 65 123 27 q 14 154 35 102 q -7 264 -7 206 q 15 387 -7 326 q 76 500 37 449 q 169 581 115 551 q 287 612 222 612 q 373 596 330 612 q 446 548 417 580 q 475 472 475 517 q 470 435 475 454 q 423 357 456 389 q 345 305 389 325 q 254 276 300 285 q 172 267 208 267 l 165 267 q 225 138 177 180 q 336 96 274 96 q 436 123 387 96 q 524 203 486 150 l 568 203 q 490 104 537 149 q 384 32 444 59 q 258 4 325 4 z "},"f":{"ha":387,"x_min":-61,"x_max":467,"o":"m 96 -308 q 20 -286 56 -308 q -39 -216 -16 -263 q -61 -93 -61 -168 q -11 173 -61 -33 q 90 566 39 380 q 140 752 140 752 q 204 855 159 819 q 304 891 250 891 q 408 854 362 891 q 467 759 454 817 l 427 750 q 416 778 422 766 q 404 797 410 789 q 391 807 398 804 q 378 811 385 811 q 343 789 359 811 q 316 729 326 767 l 176 199 l 180 195 q 208 185 195 189 q 232 178 220 181 q 255 173 244 175 q 276 170 266 171 q 294 170 286 170 q 337 175 319 170 q 365 186 354 180 q 380 198 375 193 q 385 203 385 203 l 430 203 q 370 151 410 166 q 287 135 330 135 q 220 143 252 135 q 267 38 251 94 q 282 -73 282 -18 q 253 -208 282 -147 q 185 -282 227 -256 q 96 -308 142 -308 m 169 -237 q 220 -189 197 -237 q 243 -67 243 -140 q 226 47 243 -14 q 168 167 209 108 l 156 123 q 127 -2 141 66 q 113 -128 113 -71 q 124 -199 113 -170 q 161 -237 135 -229 q 169 -237 165 -237 z "},"g":{"ha":701,"x_min":-54,"x_max":746,"o":"m 96 -412 q -12 -384 30 -412 q -54 -294 -54 -355 q -30 -211 -54 -248 q 31 -147 -6 -174 q 106 -102 67 -120 q 311 -35 204 -59 l 344 88 q 249 21 297 39 q 160 3 200 3 q 68 31 104 3 q 17 108 33 60 q 1 216 1 156 q 23 356 1 286 q 88 483 46 426 q 188 575 130 541 q 316 610 245 610 q 467 553 414 610 l 482 610 l 662 610 l 505 22 q 619 89 568 46 q 702 203 670 132 l 746 203 q 643 56 710 109 q 493 -25 576 3 q 460 -125 481 -73 q 409 -229 440 -178 q 334 -321 378 -279 q 232 -387 290 -362 q 96 -412 173 -412 m 254 94 q 311 117 288 94 q 353 174 335 140 q 385 243 370 208 l 454 505 q 416 541 436 530 q 375 552 396 552 q 276 499 324 552 q 199 364 229 446 q 181 295 190 338 q 172 210 172 252 q 191 126 172 159 q 254 94 210 94 m 77 -333 q 137 -318 104 -333 q 201 -269 170 -303 q 266 -169 243 -220 q 297 -86 289 -117 l 299 -79 q 240 -96 276 -85 q 162 -123 203 -106 q 85 -161 121 -139 q 25 -211 49 -183 q 2 -274 2 -239 q 23 -316 2 -300 q 77 -333 44 -333 z "},"h":{"ha":671,"x_min":-54,"x_max":717,"o":"m 467 2 q 401 17 431 2 q 353 61 371 31 q 335 136 335 90 q 342 191 335 161 l 403 422 q 406 450 406 437 q 389 501 406 483 q 349 519 373 519 q 289 493 321 519 q 233 410 257 467 l 125 2 l -54 2 l 200 972 l 380 972 l 264 530 q 354 589 305 569 q 450 609 404 609 q 519 594 488 609 q 570 550 551 580 q 589 475 589 520 q 583 420 589 450 l 521 189 q 517 157 517 172 q 531 110 517 127 q 565 93 545 93 q 619 119 589 93 q 673 203 648 146 l 717 203 q 609 53 682 104 q 467 2 536 2 z "},"i":{"ha":323,"x_min":-14,"x_max":368,"o":"m 122 3 l 121 3 q 53 18 83 3 q 4 62 22 33 q -14 138 -14 92 q -7 192 -14 163 l 104 610 l 283 610 l 173 194 q 169 158 169 174 q 182 110 169 127 q 216 93 195 93 q 270 119 241 93 q 323 203 299 146 l 368 203 q 263 54 332 104 q 122 3 193 3 m 233 701 q 163 730 193 701 q 134 798 134 758 q 163 866 134 838 q 233 894 193 894 q 303 866 274 894 q 332 798 332 838 q 303 730 332 758 q 233 701 274 701 z "},"j":{"ha":329,"x_min":-429,"x_max":372,"o":"m -277 -412 q -350 -401 -315 -412 q -407 -364 -385 -390 q -429 -294 -429 -338 q -405 -210 -429 -247 q -344 -146 -380 -174 q -269 -101 -307 -119 q -64 -35 -170 -58 l 108 610 l 288 610 l 131 22 q 245 90 194 47 q 328 203 296 133 l 372 203 q 269 56 336 109 q 119 -24 202 3 q 87 -120 107 -68 q 37 -223 68 -172 q -37 -317 7 -275 q -140 -386 -81 -359 q -277 -412 -200 -412 m -298 -333 q -237 -318 -270 -333 q -173 -268 -205 -302 q -109 -169 -132 -220 q -77 -86 -85 -117 l -75 -79 q -135 -96 -98 -85 q -212 -123 -171 -106 q -289 -161 -253 -139 q -349 -211 -326 -183 q -372 -273 -372 -239 q -351 -316 -372 -299 q -298 -333 -330 -333 m 235 691 q 165 720 194 691 q 136 788 136 748 q 165 856 136 827 q 235 884 194 884 q 304 856 275 884 q 334 788 334 827 q 304 720 334 748 q 235 691 275 691 z "},"k":{"ha":614,"x_min":-54,"x_max":656,"o":"m 420 3 l 419 3 q 326 27 363 3 q 264 91 288 52 q 224 178 240 131 q 196 272 208 225 l 125 3 l -54 3 l 200 972 l 380 972 l 231 405 q 300 508 262 462 q 384 583 338 555 q 484 610 429 610 q 539 597 517 610 q 573 562 562 583 q 585 517 585 541 q 573 474 585 494 q 539 440 562 453 q 481 427 517 427 q 441 429 464 427 q 320 401 370 429 q 238 323 271 373 l 363 323 q 392 221 374 283 q 446 118 410 158 q 500 93 473 93 q 545 109 524 93 q 584 150 567 125 q 612 203 601 175 l 656 203 q 605 108 640 153 q 524 33 571 62 q 420 3 476 3 z "},"l":{"ha":323,"x_min":-14,"x_max":379,"o":"m 122 3 l 121 3 q 53 18 83 3 q 4 63 22 33 q -14 138 -14 93 q -7 192 -14 163 l 200 972 l 379 972 l 173 195 q 169 159 169 175 q 182 111 169 127 q 216 94 195 94 q 270 120 241 94 q 323 203 299 146 l 368 203 q 263 54 332 104 q 122 3 193 3 z "},"m":{"ha":977,"x_min":-54,"x_max":1020,"o":"m 770 3 q 704 17 734 3 q 656 61 674 32 q 638 136 638 91 q 645 192 638 161 l 707 424 q 710 454 710 441 q 696 503 710 486 q 663 519 683 519 q 614 498 640 519 q 564 429 587 476 q 562 421 562 425 l 451 3 l 271 3 l 381 418 q 385 455 385 438 q 372 503 385 486 q 338 519 359 519 q 288 496 315 519 q 237 424 261 473 l 125 3 l -54 3 l 106 610 l 287 610 l 268 539 q 350 592 306 574 q 434 610 393 610 q 518 585 482 610 q 565 509 554 559 q 660 584 607 558 q 762 610 713 610 q 827 595 798 610 q 875 552 857 581 q 892 477 892 523 q 886 421 892 452 l 825 189 q 821 158 821 172 q 835 110 821 127 q 869 93 848 93 q 922 119 893 93 q 976 203 951 146 l 1020 203 q 912 54 985 104 q 770 3 840 3 z "},"n":{"ha":671,"x_min":-54,"x_max":716,"o":"m 467 3 q 400 17 430 3 q 352 61 370 32 q 334 136 334 91 q 341 192 334 161 l 403 424 q 406 451 406 438 q 389 502 406 484 q 349 519 373 519 q 291 495 321 519 q 235 417 260 471 l 125 3 l -54 3 l 106 610 l 286 610 l 266 532 q 355 590 307 570 q 449 610 404 610 q 519 595 487 610 q 569 551 551 581 q 588 475 588 521 q 582 421 588 450 l 521 189 q 517 158 517 172 q 531 110 517 127 q 565 93 545 93 q 618 119 589 93 q 672 203 648 146 l 716 203 q 608 54 681 104 q 467 3 536 3 z "},"o":{"ha":633,"x_min":-7,"x_max":677,"o":"m 223 1 q 111 30 163 1 q 26 114 58 58 q -7 252 -7 170 q 0 325 -7 286 q 62 484 18 421 q 166 578 106 547 q 286 609 225 609 q 398 580 345 609 q 484 494 451 551 q 516 355 516 437 q 494 220 516 288 q 429 100 472 152 q 474 90 450 90 q 570 122 523 90 q 633 202 616 155 l 677 202 q 592 93 659 140 q 456 45 526 45 q 430 47 441 45 q 409 52 418 49 q 389 61 399 56 q 308 16 351 31 q 223 1 266 1 m 231 85 q 285 110 260 85 q 330 174 310 134 l 329 188 q 337 261 329 224 q 357 327 345 298 q 383 372 369 356 q 385 417 385 395 q 367 520 385 481 q 314 559 348 559 q 258 526 284 559 q 213 441 232 493 q 182 329 193 389 q 172 217 172 269 q 178 146 172 176 q 198 101 184 117 q 231 85 211 85 z "},"p":{"ha":713,"x_min":-149,"x_max":758,"o":"m 31 -358 l -149 -358 l 104 610 l 286 610 l 271 553 q 428 610 341 610 q 529 582 489 610 q 588 507 568 554 q 607 401 607 459 q 575 243 607 319 q 495 111 543 167 q 556 94 525 94 q 648 125 604 94 q 713 203 692 157 l 758 203 q 711 128 743 163 q 636 72 680 94 q 540 51 593 51 q 453 68 492 51 q 378 21 418 38 q 298 3 339 3 q 241 12 269 3 q 186 47 209 22 q 151 100 163 71 l 31 -358 m 252 98 q 292 107 271 98 q 334 137 313 117 q 374 193 355 158 l 374 213 q 387 293 374 253 q 429 361 400 333 q 438 450 438 409 q 424 530 438 498 q 376 561 410 561 q 312 538 346 561 q 250 473 277 515 l 167 159 q 196 117 172 136 q 252 98 219 98 z "},"q":{"ha":692,"x_min":0,"x_max":736,"o":"m 410 -396 q 328 -376 359 -396 q 282 -320 296 -356 q 267 -237 267 -285 q 273 -169 267 -203 q 286 -105 278 -135 l 334 77 q 244 18 290 35 q 159 2 198 2 q 68 30 104 2 q 17 106 33 58 q 0 214 0 155 q 22 354 0 283 q 86 482 45 424 q 186 575 128 540 q 315 610 244 610 q 460 559 409 610 l 473 610 l 655 610 l 495 1 q 607 88 555 39 q 692 203 660 137 l 736 203 q 639 61 701 121 q 499 -45 576 2 q 525 -138 514 -87 q 535 -238 535 -189 q 524 -317 535 -281 q 485 -374 512 -353 q 410 -396 457 -396 m 254 94 q 300 109 280 94 q 337 149 321 124 q 366 201 353 173 l 448 513 q 375 551 413 551 q 276 498 324 551 q 199 363 228 445 q 181 295 190 337 q 172 210 172 252 q 188 132 172 165 q 247 94 204 98 l 254 94 m 452 -323 q 458 -322 455 -323 q 464 -317 461 -320 q 470 -308 467 -313 q 475 -297 473 -303 q 479 -282 477 -290 q 483 -264 481 -274 q 486 -243 485 -255 q 486 -220 486 -232 q 483 -164 486 -195 q 470 -96 479 -133 q 448 -179 463 -121 q 433 -280 433 -237 q 437 -308 433 -297 q 449 -323 440 -319 l 452 -323 z "},"r":{"ha":509,"x_min":-2,"x_max":553,"o":"m 308 2 l 307 2 q 239 17 269 2 q 190 62 208 32 q 172 137 172 92 q 178 191 172 162 l 256 482 q 260 504 258 494 q 262 522 262 514 q 250 556 262 545 q 209 568 237 568 l 181 568 q 43 200 105 356 l -2 201 q 39 341 5 217 q 100 671 73 465 l 210 671 q 193 610 203 645 l 352 610 q 420 589 398 610 q 441 528 441 568 q 440 511 441 520 q 438 493 439 503 q 434 473 436 484 q 428 452 431 463 l 359 193 q 355 157 355 174 q 368 109 355 126 q 402 92 381 92 q 456 119 427 92 q 509 202 485 145 l 553 202 q 449 53 518 103 q 308 2 379 3 z "},"s":{"ha":555,"x_min":-34,"x_max":599,"o":"m 191 3 q 79 25 130 3 q -3 89 28 47 q -34 191 -34 131 q -7 273 -34 245 q 56 301 20 301 l 57 301 q 64 300 61 301 q 145 450 105 366 q 215 606 186 535 q 216 610 215 608 l 393 610 q 367 531 375 559 q 359 481 359 503 q 372 414 359 450 q 401 342 385 379 q 430 268 417 304 q 443 197 443 231 q 427 131 443 167 q 376 64 412 94 q 475 111 425 76 q 555 204 526 145 l 599 204 q 502 80 570 123 q 350 21 433 37 q 191 3 266 4 m 193 35 q 253 65 226 35 q 280 139 280 94 q 269 204 280 170 q 242 272 258 238 q 211 338 226 306 q 189 398 196 370 q 183 437 183 412 q 105 286 155 370 q 126 259 119 275 q 132 226 132 243 q 125 183 132 205 q 118 125 118 162 q 125 81 118 101 q 148 48 132 60 q 193 35 163 35 z "},"t":{"ha":385,"x_min":-14,"x_max":429,"o":"m 130 3 q 28 38 69 3 q -14 137 -14 73 q -6 193 -14 162 l 94 570 l 14 570 l 24 611 q 102 640 66 616 q 161 704 138 663 q 183 803 183 745 q 180 841 183 826 q 178 871 178 856 q 191 925 178 903 q 225 957 204 946 q 270 967 246 967 q 316 956 294 967 q 354 921 339 944 q 368 863 368 897 q 341 753 368 798 q 275 679 314 708 q 196 634 235 650 q 132 611 157 618 l 389 611 l 378 570 l 273 570 l 174 195 q 171 169 171 181 q 192 115 171 134 q 244 96 214 96 q 318 122 279 96 q 385 203 356 148 l 429 203 q 356 94 406 139 q 245 26 307 50 q 130 3 184 3 z "},"u":{"ha":670,"x_min":-13,"x_max":714,"o":"m 469 3 l 467 3 q 382 30 418 3 q 336 109 345 56 q 230 30 289 56 q 121 3 172 3 q 54 18 85 3 q 5 63 24 33 q -13 139 -13 94 q -7 193 -13 163 l 104 611 l 284 611 l 174 195 q 170 164 170 178 q 187 113 170 131 q 228 94 203 94 q 284 118 254 94 q 339 191 315 141 l 450 611 l 630 611 l 520 195 q 516 159 516 176 q 529 111 516 128 q 564 94 543 94 q 616 120 587 94 q 670 203 646 146 l 714 203 q 610 54 679 104 q 469 3 541 4 z "},"v":{"ha":551,"x_min":45,"x_max":546,"o":"m 169 1 q 115 26 134 1 q 86 89 96 50 q 74 170 77 127 q 66 251 70 212 l 45 610 l 219 610 q 232 378 222 540 q 254 136 241 217 q 257 119 256 125 q 262 114 259 114 q 286 137 267 114 q 325 186 306 161 q 348 220 343 212 q 383 306 371 264 q 395 391 395 347 q 366 540 395 458 q 360 574 360 557 q 391 642 360 615 q 457 668 421 668 q 497 656 477 668 q 532 621 517 645 q 546 558 546 597 q 522 448 546 511 q 460 317 498 385 q 378 186 422 249 q 290 75 333 123 q 233 23 263 45 q 169 1 203 1 z "},"w":{"ha":868,"x_min":33,"x_max":864,"o":"m 487 1 q 433 26 452 1 q 405 89 414 50 q 392 170 396 127 q 385 251 388 212 l 385 256 q 277 75 345 153 q 219 22 249 43 q 155 1 190 1 q 102 25 121 1 q 74 87 83 50 q 61 168 65 125 q 54 251 57 211 l 33 610 l 206 610 q 219 378 210 540 q 241 136 229 217 q 244 119 243 125 q 249 114 246 114 q 256 118 252 114 q 266 129 260 121 q 329 243 301 174 q 363 365 356 313 q 369 463 369 415 q 366 555 369 514 q 367 559 366 557 l 363 610 l 538 610 q 550 378 541 540 q 572 136 559 217 q 575 119 574 125 q 580 114 577 114 q 604 137 585 114 q 643 186 624 161 q 666 220 661 212 q 701 305 689 264 q 713 391 713 347 q 684 539 713 458 q 678 573 678 557 q 709 642 678 615 q 775 668 739 668 q 815 656 795 668 q 850 621 836 645 q 864 557 864 596 q 848 471 864 519 q 807 369 833 422 q 748 263 781 316 q 679 162 715 210 q 608 75 643 114 q 552 23 581 45 q 487 1 522 1 z "},"x":{"ha":586,"x_min":0,"x_max":632,"o":"m 54 1 l 0 1 l 209 254 l 101 610 l 285 610 l 343 415 l 504 610 l 564 610 l 358 364 l 421 153 q 444 107 430 121 q 474 94 458 94 q 537 129 505 94 q 587 203 570 163 l 632 203 q 578 104 614 149 q 493 31 542 59 q 385 3 444 3 q 297 29 326 3 q 253 107 267 56 l 224 203 l 54 1 z "},"y":{"ha":675,"x_min":-81,"x_max":719,"o":"m 70 -412 q -6 -400 28 -412 q -61 -362 -41 -388 q -81 -294 -81 -336 q -57 -210 -81 -247 q 3 -146 -33 -174 q 79 -101 40 -119 q 283 -35 177 -58 l 315 85 q 219 23 271 44 q 124 3 168 3 q 57 18 87 3 q 8 63 26 33 q -10 138 -10 93 q -4 192 -10 163 l 107 610 l 287 610 l 176 195 q 173 163 173 178 q 190 112 173 130 q 231 94 206 94 q 290 119 258 94 q 346 199 321 144 l 455 610 l 635 610 l 478 22 q 592 90 541 47 q 674 203 642 132 l 719 203 q 616 56 683 109 q 466 -24 549 3 q 435 -120 454 -68 q 385 -223 415 -172 q 310 -317 354 -275 q 207 -386 267 -359 q 70 -412 147 -412 m 50 -333 q 110 -318 77 -333 q 174 -268 142 -302 q 239 -169 216 -220 q 270 -86 262 -117 l 272 -79 q 213 -96 249 -85 q 135 -123 176 -106 q 58 -161 94 -139 q -2 -211 22 -183 q -25 -273 -25 -239 q -4 -316 -25 -299 q 50 -333 17 -333 z "},"z":{"ha":662,"x_min":2,"x_max":710,"o":"m 662 202 l 710 202 q 661 119 686 154 q 612 62 637 85 q 562 26 588 39 q 507 8 536 14 q 447 3 479 3 q 379 6 416 3 q 301 16 342 10 q 242 23 270 20 q 189 27 215 27 q 134 21 162 27 q 75 1 106 16 q 45 1 75 1 q 12 1 23 1 l 2 1 l 392 566 l 359 566 q 282 560 304 566 q 248 536 260 553 q 218 486 237 519 q 169 439 197 455 q 113 423 140 423 q 76 434 92 423 q 58 455 63 443 q 52 481 52 467 q 71 538 52 509 q 113 581 89 566 q 188 604 146 598 q 265 609 229 609 l 422 609 l 631 610 l 282 106 l 289 106 q 333 103 311 106 q 399 94 369 99 q 455 86 429 90 q 503 83 481 83 q 586 107 549 83 q 662 202 623 132 z "},"{":{"ha":358,"x_min":44,"x_max":469,"o":"m 174 -73 l 143 -73 q 72 -40 100 -70 q 44 29 44 -11 q 47 56 44 42 l 139 400 q 141 413 141 407 q 127 446 141 432 q 94 460 114 460 l 107 511 q 156 528 135 511 q 185 571 178 544 l 286 952 q 331 1019 298 994 q 407 1044 364 1044 l 469 1044 l 456 995 l 435 995 q 388 958 402 995 l 283 565 q 245 507 273 529 q 180 486 216 486 l 146 486 q 210 459 184 486 q 236 397 236 433 q 233 374 236 385 l 138 21 l 138 12 q 147 -11 138 -1 q 170 -22 156 -21 l 188 -22 l 174 -73 z "},"|":{"ha":429,"x_min":44,"x_max":407,"o":"m 125 -54 l 44 -54 l 326 1025 l 407 1025 l 125 -54 z "},"}":{"ha":513,"x_min":44,"x_max":469,"o":"m 105 -64 q 44 -63 45 -64 l 57 -12 l 77 -12 q 107 -1 94 -12 q 125 25 120 9 l 229 416 q 268 473 239 451 q 332 494 296 494 l 366 494 q 303 521 328 494 q 277 583 277 547 q 280 606 277 595 l 375 962 l 376 970 q 367 994 376 984 q 342 1004 357 1004 l 330 1004 l 343 1055 l 367 1055 q 439 1024 410 1055 q 469 952 469 994 q 465 926 469 939 l 374 587 q 372 573 372 580 q 388 536 372 551 q 426 520 403 520 q 412 469 418 494 q 358 450 382 469 q 326 402 334 432 l 226 28 q 181 -39 214 -14 q 105 -64 148 -64 z "},"~":{"ha":688,"x_min":64,"x_max":626,"o":"m 626 595 l 626 490 q 543 424 583 441 q 465 406 503 406 q 344 439 424 406 q 224 472 264 472 q 152 453 190 472 q 64 377 113 434 l 64 483 q 147 550 107 532 q 224 568 187 568 q 348 534 268 568 q 465 500 427 500 q 538 519 500 500 q 626 595 576 538 z "},"¡":{"ha":494,"x_min":13,"x_max":419,"o":"m 259 580 l 318 578 l 195 -126 l 13 -126 l 259 580 m 326 838 q 392 810 364 838 q 419 744 419 783 q 392 678 419 705 q 326 650 364 650 q 259 678 287 650 q 232 744 232 705 q 259 810 232 783 q 326 838 287 838 z "},"¢":{"ha":2195,"x_min":50,"x_max":2097,"o":"m 306 148 l 152 148 l 152 159 q 174 207 152 191 q 229 222 197 222 q 283 207 261 222 q 306 159 306 191 l 306 148 m 395 4 l 50 4 l 50 906 l 395 906 l 395 4 m 229 625 q 292 651 266 625 q 319 715 319 677 q 293 778 319 751 q 229 804 267 804 q 165 778 193 804 q 139 715 139 750 q 166 651 139 677 q 229 625 193 625 m 319 106 l 319 159 q 292 222 319 196 q 229 249 266 249 q 165 223 191 249 q 139 159 139 197 l 139 106 l 151 106 q 152 116 151 113 q 156 120 153 119 q 166 121 159 121 l 292 121 q 301 120 298 121 q 306 116 304 119 q 307 106 307 113 l 319 106 m 319 260 l 319 387 l 248 401 l 248 389 q 275 381 262 387 q 297 366 288 376 q 306 338 306 356 l 306 302 l 218 302 l 218 318 q 228 332 218 332 l 237 330 l 237 342 l 190 353 l 190 340 q 205 319 205 334 l 205 302 l 152 302 l 152 333 q 189 379 152 374 l 189 391 l 139 383 l 139 260 l 152 260 q 154 272 152 269 q 166 275 157 275 l 292 275 q 304 272 301 275 q 307 260 307 269 l 319 260 m 319 414 l 319 459 l 307 459 q 305 448 307 452 q 300 444 304 445 q 289 443 297 443 l 187 443 l 319 500 l 319 512 l 182 572 l 291 572 q 304 569 301 572 q 307 556 307 566 l 319 556 l 319 614 l 307 614 q 306 607 307 610 q 304 602 305 604 q 299 600 302 600 q 291 599 296 599 l 167 599 q 154 602 157 599 q 151 614 151 604 l 139 614 l 139 577 l 283 514 q 224 486 233 488 q 139 451 214 484 l 139 414 l 151 414 q 154 428 151 425 q 169 431 157 431 l 289 431 q 300 429 297 431 q 305 425 304 428 q 307 414 307 421 l 319 414 m 229 652 q 174 667 196 652 q 152 715 152 683 q 174 762 152 746 q 229 777 196 777 q 283 762 261 777 q 306 715 306 746 q 283 667 306 683 q 229 652 261 652 m 794 500 l 684 500 l 684 524 q 699 525 693 524 q 708 528 705 526 q 712 536 711 531 q 713 550 713 541 l 713 678 l 589 678 l 589 581 q 591 544 589 551 q 591 537 591 540 q 593 532 592 534 q 596 528 595 530 q 600 526 598 527 q 605 524 602 525 q 612 524 608 524 q 620 524 615 524 l 620 500 l 509 500 l 509 524 q 529 526 523 524 q 537 533 535 528 q 539 550 539 539 l 539 789 q 536 808 539 802 q 527 815 534 814 q 509 817 521 817 l 509 841 l 619 841 l 619 817 q 596 813 602 817 q 589 797 590 810 l 589 702 l 713 702 l 713 789 q 708 812 713 806 q 684 817 703 817 l 684 841 l 793 841 l 793 817 q 770 813 775 817 q 764 797 765 810 l 764 553 q 769 528 764 533 q 794 524 775 524 l 794 500 m 935 500 q 888 509 910 500 q 834 553 856 522 q 813 632 813 585 q 849 729 813 694 q 932 764 884 764 q 1016 729 985 764 q 1046 640 1046 694 l 865 640 q 873 590 865 615 q 899 549 881 566 q 947 532 917 532 q 1021 590 996 531 l 1043 581 q 999 522 1029 545 q 935 500 968 500 m 996 663 q 992 690 995 675 q 973 727 987 714 q 932 740 958 740 q 885 722 902 740 q 865 663 867 703 l 996 663 m 1185 500 l 1075 500 l 1075 524 q 1094 526 1088 524 q 1102 534 1100 528 q 1105 553 1105 540 l 1105 691 q 1102 710 1105 704 q 1094 718 1100 716 q 1075 720 1088 720 l 1075 742 l 1155 766 l 1155 553 q 1157 534 1155 540 q 1166 526 1160 528 q 1185 524 1173 524 l 1185 500 m 1127 781 q 1106 790 1116 781 q 1097 810 1097 799 q 1106 831 1097 823 q 1127 840 1116 840 q 1148 831 1139 840 q 1157 810 1157 823 q 1148 790 1157 799 q 1127 781 1139 781 m 1472 500 l 1361 500 l 1361 524 q 1386 529 1380 524 q 1391 553 1392 534 l 1391 706 q 1381 730 1391 721 q 1356 740 1371 740 q 1315 726 1332 740 q 1295 692 1298 713 l 1295 553 q 1301 529 1295 534 q 1326 524 1307 524 l 1326 500 l 1215 500 l 1215 524 q 1234 526 1228 524 q 1243 534 1240 528 q 1245 553 1245 540 l 1245 691 q 1240 715 1245 710 q 1215 720 1234 720 l 1215 742 l 1295 766 l 1295 744 q 1315 756 1299 748 q 1353 764 1332 764 q 1392 758 1376 763 q 1417 743 1407 752 q 1433 724 1428 734 q 1440 703 1438 713 q 1442 683 1442 692 l 1442 550 q 1452 527 1442 530 q 1472 524 1461 524 l 1472 500 m 1684 500 l 1501 500 l 1632 740 q 1559 726 1584 740 q 1528 669 1535 712 l 1504 669 l 1520 764 l 1702 764 l 1572 524 q 1645 538 1620 524 q 1676 595 1669 553 l 1699 595 l 1684 500 m 1854 500 q 1807 509 1829 500 q 1753 553 1774 522 q 1732 632 1732 585 q 1768 729 1732 694 q 1851 764 1803 764 q 1934 729 1904 764 q 1965 640 1965 694 l 1784 640 q 1792 590 1784 615 q 1818 549 1800 566 q 1866 532 1836 532 q 1940 590 1914 531 l 1961 581 q 1918 522 1948 544 q 1854 500 1887 500 m 1914 663 q 1911 690 1914 675 q 1892 727 1906 714 q 1851 740 1877 740 q 1804 722 1821 740 q 1784 663 1786 703 l 1914 663 m 2097 500 l 1986 500 l 1986 524 q 2002 525 1996 524 q 2010 529 2007 526 q 2015 537 2013 532 q 2016 553 2016 543 l 2016 793 q 2014 813 2016 806 q 2005 821 2011 819 q 1986 823 1999 823 l 1986 845 l 2066 869 l 2066 553 q 2069 534 2066 540 q 2078 526 2071 528 q 2097 524 2084 524 l 2097 500 m 635 61 q 575 70 603 61 q 530 87 547 78 q 509 100 512 96 l 522 198 l 545 198 q 557 130 545 154 q 590 95 569 105 q 636 85 610 85 q 689 99 673 85 q 705 136 705 113 q 685 179 705 163 q 637 207 665 195 q 581 232 609 219 q 533 266 553 245 q 514 319 514 286 q 530 366 514 348 q 570 393 546 384 q 618 401 593 401 q 663 396 642 401 q 700 384 684 391 q 726 370 715 377 q 739 360 736 363 l 726 269 l 703 269 q 679 352 703 328 q 618 377 655 377 q 571 367 590 377 q 553 335 553 357 q 572 299 553 313 q 621 274 592 286 q 679 248 650 262 q 727 211 707 233 q 747 152 747 189 q 716 86 747 111 q 635 61 686 61 m 871 60 q 824 82 838 60 q 810 143 810 104 l 810 300 l 775 300 l 775 324 q 836 404 836 323 l 861 404 l 861 325 l 925 325 l 925 300 l 861 300 l 861 154 q 864 108 861 123 q 887 93 867 93 q 912 106 903 94 q 930 142 922 118 l 954 137 q 937 99 947 117 q 911 71 927 82 q 871 60 895 60 m 1217 61 l 1137 61 l 1137 81 q 1115 68 1133 76 q 1075 61 1097 61 q 1018 82 1042 61 q 990 134 993 103 l 990 252 q 985 276 990 271 q 960 281 979 281 l 960 302 l 1040 327 l 1040 119 q 1050 95 1040 104 q 1075 85 1060 85 q 1117 99 1100 85 q 1137 134 1134 113 l 1137 252 q 1131 276 1137 271 q 1106 281 1125 281 l 1106 302 l 1187 327 l 1187 113 q 1192 89 1187 94 q 1217 84 1198 84 l 1217 61 m 1501 60 l 1421 60 l 1421 83 q 1394 67 1413 75 q 1354 60 1375 60 q 1272 100 1306 60 q 1238 193 1238 139 q 1272 286 1238 246 q 1354 325 1306 325 q 1382 321 1369 325 q 1405 313 1395 318 q 1421 302 1415 308 l 1421 354 q 1419 373 1421 367 q 1410 381 1417 379 q 1391 383 1404 383 l 1391 405 l 1472 429 l 1472 113 q 1474 94 1472 100 q 1482 86 1476 88 q 1501 84 1489 84 l 1501 60 m 1354 85 q 1407 116 1392 85 q 1421 193 1421 146 q 1407 270 1421 239 q 1354 300 1392 300 q 1306 267 1322 298 q 1290 195 1290 235 q 1306 119 1290 153 q 1354 85 1322 85 m 1642 61 l 1531 61 l 1531 84 q 1550 86 1544 84 q 1559 94 1556 88 q 1561 113 1561 100 l 1561 252 q 1559 271 1561 264 q 1550 279 1556 277 q 1531 281 1544 281 l 1531 302 l 1612 326 l 1612 113 q 1614 94 1612 100 q 1623 86 1616 88 q 1642 84 1629 84 l 1642 61 m 1584 341 q 1563 350 1572 341 q 1554 371 1554 359 q 1563 392 1554 383 q 1584 401 1572 401 q 1605 392 1596 401 q 1613 371 1613 383 q 1605 350 1613 359 q 1584 341 1596 341 m 1796 61 q 1703 100 1742 61 q 1664 193 1664 139 q 1703 286 1664 247 q 1796 325 1742 325 q 1889 286 1850 325 q 1928 193 1928 247 q 1889 100 1928 139 q 1796 61 1850 61 m 1796 85 q 1859 116 1841 85 q 1876 193 1876 146 q 1859 270 1876 239 q 1796 300 1841 300 q 1734 270 1752 300 q 1716 193 1716 239 q 1734 116 1716 146 q 1796 85 1752 85 z "},"£":{"ha":2195,"x_min":50,"x_max":2097,"o":"m 306 148 l 152 148 l 152 159 q 174 207 152 191 q 229 222 197 222 q 283 207 261 222 q 306 159 306 191 l 306 148 m 395 4 l 50 4 l 50 906 l 395 906 l 395 4 m 229 625 q 292 651 266 625 q 319 715 319 677 q 293 778 319 751 q 229 804 267 804 q 165 778 193 804 q 139 715 139 750 q 166 651 139 677 q 229 625 193 625 m 319 106 l 319 159 q 292 222 319 196 q 229 249 266 249 q 165 223 191 249 q 139 159 139 197 l 139 106 l 151 106 q 152 116 151 113 q 156 120 153 119 q 166 121 159 121 l 292 121 q 301 120 298 121 q 306 116 304 119 q 307 106 307 113 l 319 106 m 319 260 l 319 387 l 248 401 l 248 389 q 275 381 262 387 q 297 366 288 376 q 306 338 306 356 l 306 302 l 218 302 l 218 318 q 228 332 218 332 l 237 330 l 237 342 l 190 353 l 190 340 q 205 319 205 334 l 205 302 l 152 302 l 152 333 q 189 379 152 374 l 189 391 l 139 383 l 139 260 l 152 260 q 154 272 152 269 q 166 275 157 275 l 292 275 q 304 272 301 275 q 307 260 307 269 l 319 260 m 319 414 l 319 459 l 307 459 q 305 448 307 452 q 300 444 304 445 q 289 443 297 443 l 187 443 l 319 500 l 319 512 l 182 572 l 291 572 q 304 569 301 572 q 307 556 307 566 l 319 556 l 319 614 l 307 614 q 306 607 307 610 q 304 602 305 604 q 299 600 302 600 q 291 599 296 599 l 167 599 q 154 602 157 599 q 151 614 151 604 l 139 614 l 139 577 l 283 514 q 224 486 233 488 q 139 451 214 484 l 139 414 l 151 414 q 154 428 151 425 q 169 431 157 431 l 289 431 q 300 429 297 431 q 305 425 304 428 q 307 414 307 421 l 319 414 m 229 652 q 174 667 196 652 q 152 715 152 683 q 174 762 152 746 q 229 777 196 777 q 283 762 261 777 q 306 715 306 746 q 283 667 306 683 q 229 652 261 652 m 794 500 l 684 500 l 684 524 q 699 525 693 524 q 708 528 705 526 q 712 536 711 531 q 713 550 713 541 l 713 678 l 589 678 l 589 581 q 591 544 589 551 q 591 537 591 540 q 593 532 592 534 q 596 528 595 530 q 600 526 598 527 q 605 524 602 525 q 612 524 608 524 q 620 524 615 524 l 620 500 l 509 500 l 509 524 q 529 526 523 524 q 537 533 535 528 q 539 550 539 539 l 539 789 q 536 808 539 802 q 527 815 534 814 q 509 817 521 817 l 509 841 l 619 841 l 619 817 q 596 813 602 817 q 589 797 590 810 l 589 702 l 713 702 l 713 789 q 708 812 713 806 q 684 817 703 817 l 684 841 l 793 841 l 793 817 q 770 813 775 817 q 764 797 765 810 l 764 553 q 769 528 764 533 q 794 524 775 524 l 794 500 m 935 500 q 888 509 910 500 q 834 553 856 522 q 813 632 813 585 q 849 729 813 694 q 932 764 884 764 q 1016 729 985 764 q 1046 640 1046 694 l 865 640 q 873 590 865 615 q 899 549 881 566 q 947 532 917 532 q 1021 590 996 531 l 1043 581 q 999 522 1029 545 q 935 500 968 500 m 996 663 q 992 690 995 675 q 973 727 987 714 q 932 740 958 740 q 885 722 902 740 q 865 663 867 703 l 996 663 m 1185 500 l 1075 500 l 1075 524 q 1094 526 1088 524 q 1102 534 1100 528 q 1105 553 1105 540 l 1105 691 q 1102 710 1105 704 q 1094 718 1100 716 q 1075 720 1088 720 l 1075 742 l 1155 766 l 1155 553 q 1157 534 1155 540 q 1166 526 1160 528 q 1185 524 1173 524 l 1185 500 m 1127 781 q 1106 790 1116 781 q 1097 810 1097 799 q 1106 831 1097 823 q 1127 840 1116 840 q 1148 831 1139 840 q 1157 810 1157 823 q 1148 790 1157 799 q 1127 781 1139 781 m 1472 500 l 1361 500 l 1361 524 q 1386 529 1380 524 q 1391 553 1392 534 l 1391 706 q 1381 730 1391 721 q 1356 740 1371 740 q 1315 726 1332 740 q 1295 692 1298 713 l 1295 553 q 1301 529 1295 534 q 1326 524 1307 524 l 1326 500 l 1215 500 l 1215 524 q 1234 526 1228 524 q 1243 534 1240 528 q 1245 553 1245 540 l 1245 691 q 1240 715 1245 710 q 1215 720 1234 720 l 1215 742 l 1295 766 l 1295 744 q 1315 756 1299 748 q 1353 764 1332 764 q 1392 758 1376 763 q 1417 743 1407 752 q 1433 724 1428 734 q 1440 703 1438 713 q 1442 683 1442 692 l 1442 550 q 1452 527 1442 530 q 1472 524 1461 524 l 1472 500 m 1684 500 l 1501 500 l 1632 740 q 1559 726 1584 740 q 1528 669 1535 712 l 1504 669 l 1520 764 l 1702 764 l 1572 524 q 1645 538 1620 524 q 1676 595 1669 553 l 1699 595 l 1684 500 m 1854 500 q 1807 509 1829 500 q 1753 553 1774 522 q 1732 632 1732 585 q 1768 729 1732 694 q 1851 764 1803 764 q 1934 729 1904 764 q 1965 640 1965 694 l 1784 640 q 1792 590 1784 615 q 1818 549 1800 566 q 1866 532 1836 532 q 1940 590 1914 531 l 1961 581 q 1918 522 1948 544 q 1854 500 1887 500 m 1914 663 q 1911 690 1914 675 q 1892 727 1906 714 q 1851 740 1877 740 q 1804 722 1821 740 q 1784 663 1786 703 l 1914 663 m 2097 500 l 1986 500 l 1986 524 q 2002 525 1996 524 q 2010 529 2007 526 q 2015 537 2013 532 q 2016 553 2016 543 l 2016 793 q 2014 813 2016 806 q 2005 821 2011 819 q 1986 823 1999 823 l 1986 845 l 2066 869 l 2066 553 q 2069 534 2066 540 q 2078 526 2071 528 q 2097 524 2084 524 l 2097 500 m 635 61 q 575 70 603 61 q 530 87 547 78 q 509 100 512 96 l 522 198 l 545 198 q 557 130 545 154 q 590 95 569 105 q 636 85 610 85 q 689 99 673 85 q 705 136 705 113 q 685 179 705 163 q 637 207 665 195 q 581 232 609 219 q 533 266 553 245 q 514 319 514 286 q 530 366 514 348 q 570 393 546 384 q 618 401 593 401 q 663 396 642 401 q 700 384 684 391 q 726 370 715 377 q 739 360 736 363 l 726 269 l 703 269 q 679 352 703 328 q 618 377 655 377 q 571 367 590 377 q 553 335 553 357 q 572 299 553 313 q 621 274 592 286 q 679 248 650 262 q 727 211 707 233 q 747 152 747 189 q 716 86 747 111 q 635 61 686 61 m 871 60 q 824 82 838 60 q 810 143 810 104 l 810 300 l 775 300 l 775 324 q 836 404 836 323 l 861 404 l 861 325 l 925 325 l 925 300 l 861 300 l 861 154 q 864 108 861 123 q 887 93 867 93 q 912 106 903 94 q 930 142 922 118 l 954 137 q 937 99 947 117 q 911 71 927 82 q 871 60 895 60 m 1217 61 l 1137 61 l 1137 81 q 1115 68 1133 76 q 1075 61 1097 61 q 1018 82 1042 61 q 990 134 993 103 l 990 252 q 985 276 990 271 q 960 281 979 281 l 960 302 l 1040 327 l 1040 119 q 1050 95 1040 104 q 1075 85 1060 85 q 1117 99 1100 85 q 1137 134 1134 113 l 1137 252 q 1131 276 1137 271 q 1106 281 1125 281 l 1106 302 l 1187 327 l 1187 113 q 1192 89 1187 94 q 1217 84 1198 84 l 1217 61 m 1501 60 l 1421 60 l 1421 83 q 1394 67 1413 75 q 1354 60 1375 60 q 1272 100 1306 60 q 1238 193 1238 139 q 1272 286 1238 246 q 1354 325 1306 325 q 1382 321 1369 325 q 1405 313 1395 318 q 1421 302 1415 308 l 1421 354 q 1419 373 1421 367 q 1410 381 1417 379 q 1391 383 1404 383 l 1391 405 l 1472 429 l 1472 113 q 1474 94 1472 100 q 1482 86 1476 88 q 1501 84 1489 84 l 1501 60 m 1354 85 q 1407 116 1392 85 q 1421 193 1421 146 q 1407 270 1421 239 q 1354 300 1392 300 q 1306 267 1322 298 q 1290 195 1290 235 q 1306 119 1290 153 q 1354 85 1322 85 m 1642 61 l 1531 61 l 1531 84 q 1550 86 1544 84 q 1559 94 1556 88 q 1561 113 1561 100 l 1561 252 q 1559 271 1561 264 q 1550 279 1556 277 q 1531 281 1544 281 l 1531 302 l 1612 326 l 1612 113 q 1614 94 1612 100 q 1623 86 1616 88 q 1642 84 1629 84 l 1642 61 m 1584 341 q 1563 350 1572 341 q 1554 371 1554 359 q 1563 392 1554 383 q 1584 401 1572 401 q 1605 392 1596 401 q 1613 371 1613 383 q 1605 350 1613 359 q 1584 341 1596 341 m 1796 61 q 1703 100 1742 61 q 1664 193 1664 139 q 1703 286 1664 247 q 1796 325 1742 325 q 1889 286 1850 325 q 1928 193 1928 247 q 1889 100 1928 139 q 1796 61 1850 61 m 1796 85 q 1859 116 1841 85 q 1876 193 1876 146 q 1859 270 1876 239 q 1796 300 1841 300 q 1734 270 1752 300 q 1716 193 1716 239 q 1734 116 1716 146 q 1796 85 1752 85 z "},"¤":{"ha":688,"x_min":83,"x_max":604,"o":"m 237 380 q 304 341 265 353 q 344 336 324 336 q 383 341 363 336 q 450 380 422 353 q 489 447 477 408 q 495 486 495 467 q 489 526 495 506 q 450 593 477 565 q 382 631 422 620 q 343 637 363 637 q 304 631 323 637 q 237 593 264 619 q 199 526 211 566 q 193 486 193 506 q 199 448 193 467 q 237 380 210 408 m 163 612 l 83 692 l 137 747 l 217 667 q 284 699 247 688 q 345 708 314 708 q 401 700 372 708 q 470 667 439 688 l 550 747 l 604 692 l 525 613 q 557 544 546 582 q 566 486 566 515 q 557 429 566 458 q 525 359 546 391 l 604 280 l 550 225 l 470 305 q 401 273 439 283 q 344 264 373 264 q 286 273 315 264 q 217 305 248 283 l 137 225 l 83 280 l 163 359 q 130 429 141 391 q 122 486 122 458 q 131 545 122 516 q 163 612 142 583 z "},"¥":{"ha":2195,"x_min":50,"x_max":2097,"o":"m 306 148 l 152 148 l 152 159 q 174 207 152 191 q 229 222 197 222 q 283 207 261 222 q 306 159 306 191 l 306 148 m 395 4 l 50 4 l 50 906 l 395 906 l 395 4 m 229 625 q 292 651 266 625 q 319 715 319 677 q 293 778 319 751 q 229 804 267 804 q 165 778 193 804 q 139 715 139 750 q 166 651 139 677 q 229 625 193 625 m 319 106 l 319 159 q 292 222 319 196 q 229 249 266 249 q 165 223 191 249 q 139 159 139 197 l 139 106 l 151 106 q 152 116 151 113 q 156 120 153 119 q 166 121 159 121 l 292 121 q 301 120 298 121 q 306 116 304 119 q 307 106 307 113 l 319 106 m 319 260 l 319 387 l 248 401 l 248 389 q 275 381 262 387 q 297 366 288 376 q 306 338 306 356 l 306 302 l 218 302 l 218 318 q 228 332 218 332 l 237 330 l 237 342 l 190 353 l 190 340 q 205 319 205 334 l 205 302 l 152 302 l 152 333 q 189 379 152 374 l 189 391 l 139 383 l 139 260 l 152 260 q 154 272 152 269 q 166 275 157 275 l 292 275 q 304 272 301 275 q 307 260 307 269 l 319 260 m 319 414 l 319 459 l 307 459 q 305 448 307 452 q 300 444 304 445 q 289 443 297 443 l 187 443 l 319 500 l 319 512 l 182 572 l 291 572 q 304 569 301 572 q 307 556 307 566 l 319 556 l 319 614 l 307 614 q 306 607 307 610 q 304 602 305 604 q 299 600 302 600 q 291 599 296 599 l 167 599 q 154 602 157 599 q 151 614 151 604 l 139 614 l 139 577 l 283 514 q 224 486 233 488 q 139 451 214 484 l 139 414 l 151 414 q 154 428 151 425 q 169 431 157 431 l 289 431 q 300 429 297 431 q 305 425 304 428 q 307 414 307 421 l 319 414 m 229 652 q 174 667 196 652 q 152 715 152 683 q 174 762 152 746 q 229 777 196 777 q 283 762 261 777 q 306 715 306 746 q 283 667 306 683 q 229 652 261 652 m 794 500 l 684 500 l 684 524 q 699 525 693 524 q 708 528 705 526 q 712 536 711 531 q 713 550 713 541 l 713 678 l 589 678 l 589 581 q 591 544 589 551 q 591 537 591 540 q 593 532 592 534 q 596 528 595 530 q 600 526 598 527 q 605 524 602 525 q 612 524 608 524 q 620 524 615 524 l 620 500 l 509 500 l 509 524 q 529 526 523 524 q 537 533 535 528 q 539 550 539 539 l 539 789 q 536 808 539 802 q 527 815 534 814 q 509 817 521 817 l 509 841 l 619 841 l 619 817 q 596 813 602 817 q 589 797 590 810 l 589 702 l 713 702 l 713 789 q 708 812 713 806 q 684 817 703 817 l 684 841 l 793 841 l 793 817 q 770 813 775 817 q 764 797 765 810 l 764 553 q 769 528 764 533 q 794 524 775 524 l 794 500 m 935 500 q 888 509 910 500 q 834 553 856 522 q 813 632 813 585 q 849 729 813 694 q 932 764 884 764 q 1016 729 985 764 q 1046 640 1046 694 l 865 640 q 873 590 865 615 q 899 549 881 566 q 947 532 917 532 q 1021 590 996 531 l 1043 581 q 999 522 1029 545 q 935 500 968 500 m 996 663 q 992 690 995 675 q 973 727 987 714 q 932 740 958 740 q 885 722 902 740 q 865 663 867 703 l 996 663 m 1185 500 l 1075 500 l 1075 524 q 1094 526 1088 524 q 1102 534 1100 528 q 1105 553 1105 540 l 1105 691 q 1102 710 1105 704 q 1094 718 1100 716 q 1075 720 1088 720 l 1075 742 l 1155 766 l 1155 553 q 1157 534 1155 540 q 1166 526 1160 528 q 1185 524 1173 524 l 1185 500 m 1127 781 q 1106 790 1116 781 q 1097 810 1097 799 q 1106 831 1097 823 q 1127 840 1116 840 q 1148 831 1139 840 q 1157 810 1157 823 q 1148 790 1157 799 q 1127 781 1139 781 m 1472 500 l 1361 500 l 1361 524 q 1386 529 1380 524 q 1391 553 1392 534 l 1391 706 q 1381 730 1391 721 q 1356 740 1371 740 q 1315 726 1332 740 q 1295 692 1298 713 l 1295 553 q 1301 529 1295 534 q 1326 524 1307 524 l 1326 500 l 1215 500 l 1215 524 q 1234 526 1228 524 q 1243 534 1240 528 q 1245 553 1245 540 l 1245 691 q 1240 715 1245 710 q 1215 720 1234 720 l 1215 742 l 1295 766 l 1295 744 q 1315 756 1299 748 q 1353 764 1332 764 q 1392 758 1376 763 q 1417 743 1407 752 q 1433 724 1428 734 q 1440 703 1438 713 q 1442 683 1442 692 l 1442 550 q 1452 527 1442 530 q 1472 524 1461 524 l 1472 500 m 1684 500 l 1501 500 l 1632 740 q 1559 726 1584 740 q 1528 669 1535 712 l 1504 669 l 1520 764 l 1702 764 l 1572 524 q 1645 538 1620 524 q 1676 595 1669 553 l 1699 595 l 1684 500 m 1854 500 q 1807 509 1829 500 q 1753 553 1774 522 q 1732 632 1732 585 q 1768 729 1732 694 q 1851 764 1803 764 q 1934 729 1904 764 q 1965 640 1965 694 l 1784 640 q 1792 590 1784 615 q 1818 549 1800 566 q 1866 532 1836 532 q 1940 590 1914 531 l 1961 581 q 1918 522 1948 544 q 1854 500 1887 500 m 1914 663 q 1911 690 1914 675 q 1892 727 1906 714 q 1851 740 1877 740 q 1804 722 1821 740 q 1784 663 1786 703 l 1914 663 m 2097 500 l 1986 500 l 1986 524 q 2002 525 1996 524 q 2010 529 2007 526 q 2015 537 2013 532 q 2016 553 2016 543 l 2016 793 q 2014 813 2016 806 q 2005 821 2011 819 q 1986 823 1999 823 l 1986 845 l 2066 869 l 2066 553 q 2069 534 2066 540 q 2078 526 2071 528 q 2097 524 2084 524 l 2097 500 m 635 61 q 575 70 603 61 q 530 87 547 78 q 509 100 512 96 l 522 198 l 545 198 q 557 130 545 154 q 590 95 569 105 q 636 85 610 85 q 689 99 673 85 q 705 136 705 113 q 685 179 705 163 q 637 207 665 195 q 581 232 609 219 q 533 266 553 245 q 514 319 514 286 q 530 366 514 348 q 570 393 546 384 q 618 401 593 401 q 663 396 642 401 q 700 384 684 391 q 726 370 715 377 q 739 360 736 363 l 726 269 l 703 269 q 679 352 703 328 q 618 377 655 377 q 571 367 590 377 q 553 335 553 357 q 572 299 553 313 q 621 274 592 286 q 679 248 650 262 q 727 211 707 233 q 747 152 747 189 q 716 86 747 111 q 635 61 686 61 m 871 60 q 824 82 838 60 q 810 143 810 104 l 810 300 l 775 300 l 775 324 q 836 404 836 323 l 861 404 l 861 325 l 925 325 l 925 300 l 861 300 l 861 154 q 864 108 861 123 q 887 93 867 93 q 912 106 903 94 q 930 142 922 118 l 954 137 q 937 99 947 117 q 911 71 927 82 q 871 60 895 60 m 1217 61 l 1137 61 l 1137 81 q 1115 68 1133 76 q 1075 61 1097 61 q 1018 82 1042 61 q 990 134 993 103 l 990 252 q 985 276 990 271 q 960 281 979 281 l 960 302 l 1040 327 l 1040 119 q 1050 95 1040 104 q 1075 85 1060 85 q 1117 99 1100 85 q 1137 134 1134 113 l 1137 252 q 1131 276 1137 271 q 1106 281 1125 281 l 1106 302 l 1187 327 l 1187 113 q 1192 89 1187 94 q 1217 84 1198 84 l 1217 61 m 1501 60 l 1421 60 l 1421 83 q 1394 67 1413 75 q 1354 60 1375 60 q 1272 100 1306 60 q 1238 193 1238 139 q 1272 286 1238 246 q 1354 325 1306 325 q 1382 321 1369 325 q 1405 313 1395 318 q 1421 302 1415 308 l 1421 354 q 1419 373 1421 367 q 1410 381 1417 379 q 1391 383 1404 383 l 1391 405 l 1472 429 l 1472 113 q 1474 94 1472 100 q 1482 86 1476 88 q 1501 84 1489 84 l 1501 60 m 1354 85 q 1407 116 1392 85 q 1421 193 1421 146 q 1407 270 1421 239 q 1354 300 1392 300 q 1306 267 1322 298 q 1290 195 1290 235 q 1306 119 1290 153 q 1354 85 1322 85 m 1642 61 l 1531 61 l 1531 84 q 1550 86 1544 84 q 1559 94 1556 88 q 1561 113 1561 100 l 1561 252 q 1559 271 1561 264 q 1550 279 1556 277 q 1531 281 1544 281 l 1531 302 l 1612 326 l 1612 113 q 1614 94 1612 100 q 1623 86 1616 88 q 1642 84 1629 84 l 1642 61 m 1584 341 q 1563 350 1572 341 q 1554 371 1554 359 q 1563 392 1554 383 q 1584 401 1572 401 q 1605 392 1596 401 q 1613 371 1613 383 q 1605 350 1613 359 q 1584 341 1596 341 m 1796 61 q 1703 100 1742 61 q 1664 193 1664 139 q 1703 286 1664 247 q 1796 325 1742 325 q 1889 286 1850 325 q 1928 193 1928 247 q 1889 100 1928 139 q 1796 61 1850 61 m 1796 85 q 1859 116 1841 85 q 1876 193 1876 146 q 1859 270 1876 239 q 1796 300 1841 300 q 1734 270 1752 300 q 1716 193 1716 239 q 1734 116 1716 146 q 1796 85 1752 85 z "},"¦":{"ha":688,"x_min":290,"x_max":398,"o":"m 290 252 l 398 252 l 398 -283 l 290 -283 l 290 252 m 290 1070 l 398 1070 l 398 535 l 290 535 l 290 1070 z "},"§":{"ha":688,"x_min":115,"x_max":572,"o":"m 370 218 q 435 254 408 229 q 485 366 485 298 q 484 373 485 370 l 483 373 q 480 391 482 382 q 404 477 465 433 q 318 497 363 497 q 233 467 265 497 q 201 387 201 437 q 370 218 201 304 m 316 -235 q 441 -188 393 -231 q 490 -76 490 -144 q 276 111 490 9 q 157 204 193 155 q 121 324 121 254 q 182 485 121 425 q 297 541 227 529 l 270 553 q 151 646 186 597 q 115 766 115 696 q 176 927 115 867 q 322 985 231 981 q 334 986 328 986 l 336 986 q 446 975 380 986 q 512 947 512 964 l 512 815 l 477 815 q 423 905 474 870 q 322 939 376 937 l 312 939 q 227 909 259 939 q 195 829 195 879 q 390 647 195 740 q 529 550 491 602 q 566 422 566 498 q 498 231 566 307 q 431 188 466 205 q 535 108 504 150 q 572 -19 572 56 q 504 -211 572 -135 q 316 -282 420 -280 l 316 -281 q 307 -282 312 -282 l 305 -282 q 195 -271 260 -282 q 129 -243 129 -260 l 129 -111 l 163 -111 q 218 -201 167 -166 q 316 -235 264 -231 z "},"¨":{"ha":315,"x_min":44,"x_max":271,"o":"m 90 875 q 57 888 71 875 q 44 921 44 902 q 57 954 44 940 q 90 967 71 967 q 122 954 109 967 q 136 921 136 940 q 122 888 136 902 q 90 875 109 875 m 225 875 q 193 888 206 875 q 179 921 179 902 q 193 954 179 940 q 225 967 206 967 q 258 954 244 967 q 271 921 271 940 q 258 888 271 902 q 225 875 244 875 z "},"©":{"ha":1135,"x_min":68,"x_max":1067,"o":"m 587 151 q 408 197 490 151 q 281 323 325 243 q 238 488 238 402 q 282 653 238 573 q 410 778 327 733 q 582 823 492 823 q 633 819 608 823 q 684 805 658 814 q 690 804 688 804 q 708 825 703 804 l 736 825 l 785 690 l 755 690 q 667 774 720 754 q 567 792 618 792 l 557 792 q 444 744 498 787 q 361 624 389 701 q 339 499 339 563 q 340 465 339 482 q 388 313 348 383 q 489 210 427 243 q 602 182 538 183 q 733 220 686 182 q 781 305 781 258 l 817 305 l 817 237 q 751 179 817 206 q 587 151 686 151 m 568 28 q 892 163 758 28 q 1027 488 1027 298 q 892 812 1027 677 q 568 947 758 947 q 243 812 378 947 q 109 488 109 677 q 243 163 109 298 q 568 28 378 28 m 568 -12 q 214 134 361 -12 q 68 488 68 281 q 214 841 68 694 q 568 987 361 987 q 921 841 774 987 q 1067 488 1067 694 q 921 134 1067 281 q 568 -12 774 -12 z "},"ª":{"ha":539,"x_min":44,"x_max":495,"o":"m 205 586 q 243 604 220 586 q 318 726 292 643 l 347 832 q 326 833 336 833 q 261 814 290 833 q 214 764 233 794 q 185 701 195 734 q 175 640 175 667 q 182 601 175 616 q 205 586 190 586 m 156 532 q 75 565 106 532 q 44 645 44 598 q 61 716 44 678 q 112 787 77 754 q 200 841 146 820 q 328 863 254 863 l 353 862 q 355 891 355 876 q 347 927 355 910 q 317 945 338 945 q 297 935 306 945 q 279 913 288 925 q 243 878 263 888 q 222 874 232 874 q 192 885 204 874 q 179 912 179 897 q 185 933 179 922 q 205 952 191 943 q 245 966 220 961 q 309 972 270 972 l 330 971 q 398 957 365 970 q 453 918 431 944 q 475 849 475 891 q 470 810 475 831 l 433 667 q 430 645 430 655 q 439 610 430 623 q 460 598 448 598 l 465 598 q 495 609 487 601 q 456 553 486 573 q 393 533 427 533 q 331 553 357 533 q 299 614 304 573 q 231 553 269 574 q 156 532 193 532 z "},"«":{"ha":2130,"x_min":50,"x_max":2097,"o":"m 306 148 l 152 148 l 152 159 q 174 207 152 191 q 229 222 197 222 q 283 207 261 222 q 306 159 306 191 l 306 148 m 395 4 l 50 4 l 50 906 l 395 906 l 395 4 m 229 625 q 292 651 266 625 q 319 715 319 677 q 293 778 319 751 q 229 804 267 804 q 165 778 193 804 q 139 715 139 750 q 166 651 139 677 q 229 625 193 625 m 319 106 l 319 159 q 292 222 319 196 q 229 249 266 249 q 165 223 191 249 q 139 159 139 197 l 139 106 l 151 106 q 152 116 151 113 q 156 120 153 119 q 166 121 159 121 l 292 121 q 301 120 298 121 q 306 116 304 119 q 307 106 307 113 l 319 106 m 319 260 l 319 387 l 248 401 l 248 389 q 275 381 262 387 q 297 366 288 376 q 306 338 306 356 l 306 302 l 218 302 l 218 318 q 228 332 218 332 l 237 330 l 237 342 l 190 353 l 190 340 q 205 319 205 334 l 205 302 l 152 302 l 152 333 q 189 379 152 374 l 189 391 l 139 383 l 139 260 l 152 260 q 154 272 152 269 q 166 275 157 275 l 292 275 q 304 272 301 275 q 307 260 307 269 l 319 260 m 319 414 l 319 459 l 307 459 q 305 448 307 452 q 300 444 304 445 q 289 443 297 443 l 187 443 l 319 500 l 319 512 l 182 572 l 291 572 q 304 569 301 572 q 307 556 307 566 l 319 556 l 319 614 l 307 614 q 306 607 307 610 q 304 602 305 604 q 299 600 302 600 q 291 599 296 599 l 167 599 q 154 602 157 599 q 151 614 151 604 l 139 614 l 139 577 l 283 514 q 224 486 233 488 q 139 451 214 484 l 139 414 l 151 414 q 154 428 151 425 q 169 431 157 431 l 289 431 q 300 429 297 431 q 305 425 304 428 q 307 414 307 421 l 319 414 m 229 652 q 174 667 196 652 q 152 715 152 683 q 174 762 152 746 q 229 777 196 777 q 283 762 261 777 q 306 715 306 746 q 283 667 306 683 q 229 652 261 652 m 794 500 l 684 500 l 684 524 q 699 525 693 524 q 708 528 705 526 q 712 536 711 531 q 713 550 713 541 l 713 678 l 589 678 l 589 581 q 591 544 589 551 q 591 537 591 540 q 593 532 592 534 q 596 528 595 530 q 600 526 598 527 q 605 524 602 525 q 612 524 608 524 q 620 524 615 524 l 620 500 l 509 500 l 509 524 q 529 526 523 524 q 537 533 535 528 q 539 550 539 539 l 539 789 q 536 808 539 802 q 527 815 534 814 q 509 817 521 817 l 509 841 l 619 841 l 619 817 q 596 813 602 817 q 589 797 590 810 l 589 702 l 713 702 l 713 789 q 708 812 713 806 q 684 817 703 817 l 684 841 l 793 841 l 793 817 q 770 813 775 817 q 764 797 765 810 l 764 553 q 769 528 764 533 q 794 524 775 524 l 794 500 m 935 500 q 888 509 910 500 q 834 553 856 522 q 813 632 813 585 q 849 729 813 694 q 932 764 884 764 q 1016 729 985 764 q 1046 640 1046 694 l 865 640 q 873 590 865 615 q 899 549 881 566 q 947 532 917 532 q 1021 590 996 531 l 1043 581 q 999 522 1029 545 q 935 500 968 500 m 996 663 q 992 690 995 675 q 973 727 987 714 q 932 740 958 740 q 885 722 902 740 q 865 663 867 703 l 996 663 m 1185 500 l 1075 500 l 1075 524 q 1094 526 1088 524 q 1102 534 1100 528 q 1105 553 1105 540 l 1105 691 q 1102 710 1105 704 q 1094 718 1100 716 q 1075 720 1088 720 l 1075 742 l 1155 766 l 1155 553 q 1157 534 1155 540 q 1166 526 1160 528 q 1185 524 1173 524 l 1185 500 m 1127 781 q 1106 790 1116 781 q 1097 810 1097 799 q 1106 831 1097 823 q 1127 840 1116 840 q 1148 831 1139 840 q 1157 810 1157 823 q 1148 790 1157 799 q 1127 781 1139 781 m 1472 500 l 1361 500 l 1361 524 q 1386 529 1380 524 q 1391 553 1392 534 l 1391 706 q 1381 730 1391 721 q 1356 740 1371 740 q 1315 726 1332 740 q 1295 692 1298 713 l 1295 553 q 1301 529 1295 534 q 1326 524 1307 524 l 1326 500 l 1215 500 l 1215 524 q 1234 526 1228 524 q 1243 534 1240 528 q 1245 553 1245 540 l 1245 691 q 1240 715 1245 710 q 1215 720 1234 720 l 1215 742 l 1295 766 l 1295 744 q 1315 756 1299 748 q 1353 764 1332 764 q 1392 758 1376 763 q 1417 743 1407 752 q 1433 724 1428 734 q 1440 703 1438 713 q 1442 683 1442 692 l 1442 550 q 1452 527 1442 530 q 1472 524 1461 524 l 1472 500 m 1684 500 l 1501 500 l 1632 740 q 1559 726 1584 740 q 1528 669 1535 712 l 1504 669 l 1520 764 l 1702 764 l 1572 524 q 1645 538 1620 524 q 1676 595 1669 553 l 1699 595 l 1684 500 m 1854 500 q 1807 509 1829 500 q 1753 553 1774 522 q 1732 632 1732 585 q 1768 729 1732 694 q 1851 764 1803 764 q 1934 729 1904 764 q 1965 640 1965 694 l 1784 640 q 1792 590 1784 615 q 1818 549 1800 566 q 1866 532 1836 532 q 1940 590 1914 531 l 1961 581 q 1918 522 1948 544 q 1854 500 1887 500 m 1914 663 q 1911 690 1914 675 q 1892 727 1906 714 q 1851 740 1877 740 q 1804 722 1821 740 q 1784 663 1786 703 l 1914 663 m 2097 500 l 1986 500 l 1986 524 q 2002 525 1996 524 q 2010 529 2007 526 q 2015 537 2013 532 q 2016 553 2016 543 l 2016 793 q 2014 813 2016 806 q 2005 821 2011 819 q 1986 823 1999 823 l 1986 845 l 2066 869 l 2066 553 q 2069 534 2066 540 q 2078 526 2071 528 q 2097 524 2084 524 l 2097 500 m 635 61 q 575 70 603 61 q 530 87 547 78 q 509 100 512 96 l 522 198 l 545 198 q 557 130 545 154 q 590 95 569 105 q 636 85 610 85 q 689 99 673 85 q 705 136 705 113 q 685 179 705 163 q 637 207 665 195 q 581 232 609 219 q 533 266 553 245 q 514 319 514 286 q 530 366 514 348 q 570 393 546 384 q 618 401 593 401 q 663 396 642 401 q 700 384 684 391 q 726 370 715 377 q 739 360 736 363 l 726 269 l 703 269 q 679 352 703 328 q 618 377 655 377 q 571 367 590 377 q 553 335 553 357 q 572 299 553 313 q 621 274 592 286 q 679 248 650 262 q 727 211 707 233 q 747 152 747 189 q 716 86 747 111 q 635 61 686 61 m 871 60 q 824 82 838 60 q 810 143 810 104 l 810 300 l 775 300 l 775 324 q 836 404 836 323 l 861 404 l 861 325 l 925 325 l 925 300 l 861 300 l 861 154 q 864 108 861 123 q 887 93 867 93 q 912 106 903 94 q 930 142 922 118 l 954 137 q 937 99 947 117 q 911 71 927 82 q 871 60 895 60 m 1217 61 l 1137 61 l 1137 81 q 1115 68 1133 76 q 1075 61 1097 61 q 1018 82 1042 61 q 990 134 993 103 l 990 252 q 985 276 990 271 q 960 281 979 281 l 960 302 l 1040 327 l 1040 119 q 1050 95 1040 104 q 1075 85 1060 85 q 1117 99 1100 85 q 1137 134 1134 113 l 1137 252 q 1131 276 1137 271 q 1106 281 1125 281 l 1106 302 l 1187 327 l 1187 113 q 1192 89 1187 94 q 1217 84 1198 84 l 1217 61 m 1501 60 l 1421 60 l 1421 83 q 1394 67 1413 75 q 1354 60 1375 60 q 1272 100 1306 60 q 1238 193 1238 139 q 1272 286 1238 246 q 1354 325 1306 325 q 1382 321 1369 325 q 1405 313 1395 318 q 1421 302 1415 308 l 1421 354 q 1419 373 1421 367 q 1410 381 1417 379 q 1391 383 1404 383 l 1391 405 l 1472 429 l 1472 113 q 1474 94 1472 100 q 1482 86 1476 88 q 1501 84 1489 84 l 1501 60 m 1354 85 q 1407 116 1392 85 q 1421 193 1421 146 q 1407 270 1421 239 q 1354 300 1392 300 q 1306 267 1322 298 q 1290 195 1290 235 q 1306 119 1290 153 q 1354 85 1322 85 m 1642 61 l 1531 61 l 1531 84 q 1550 86 1544 84 q 1559 94 1556 88 q 1561 113 1561 100 l 1561 252 q 1559 271 1561 264 q 1550 279 1556 277 q 1531 281 1544 281 l 1531 302 l 1612 326 l 1612 113 q 1614 94 1612 100 q 1623 86 1616 88 q 1642 84 1629 84 l 1642 61 m 1584 341 q 1563 350 1572 341 q 1554 371 1554 359 q 1563 392 1554 383 q 1584 401 1572 401 q 1605 392 1596 401 q 1613 371 1613 383 q 1605 350 1613 359 q 1584 341 1596 341 m 1796 61 q 1703 100 1742 61 q 1664 193 1664 139 q 1703 286 1664 247 q 1796 325 1742 325 q 1889 286 1850 325 q 1928 193 1928 247 q 1889 100 1928 139 q 1796 61 1850 61 m 1796 85 q 1859 116 1841 85 q 1876 193 1876 146 q 1859 270 1876 239 q 1796 300 1841 300 q 1734 270 1752 300 q 1716 193 1716 239 q 1734 116 1716 146 q 1796 85 1752 85 z "},"¬":{"ha":688,"x_min":59,"x_max":629,"o":"m 59 520 l 629 520 l 629 187 l 628 186 l 562 186 l 562 452 l 59 452 l 59 520 z "},"®":{"ha":1135,"x_min":68,"x_max":1067,"o":"m 667 391 l 723 312 q 825 216 791 216 l 848 216 l 848 182 l 613 182 l 613 216 l 644 216 q 664 231 664 216 q 617 309 664 251 l 566 378 q 509 406 538 378 l 509 298 q 534 216 509 216 l 570 216 l 570 182 l 355 182 l 355 216 l 385 216 q 410 298 410 216 l 410 663 q 385 745 410 745 l 355 745 l 355 793 l 597 793 q 717 732 667 792 q 766 584 766 671 q 667 391 766 477 m 509 745 l 509 492 q 536 436 510 455 q 591 416 562 416 q 646 471 619 419 q 673 578 673 522 q 642 697 670 649 q 572 745 614 745 l 509 745 m 568 28 q 892 163 758 28 q 1027 488 1027 298 q 892 812 1027 677 q 568 947 758 947 q 243 812 378 947 q 109 488 109 677 q 243 163 109 298 q 568 28 378 28 m 568 -12 q 214 134 361 -12 q 68 488 68 281 q 214 841 68 694 q 568 987 361 987 q 921 841 774 987 q 1067 488 1067 694 q 921 134 1067 281 q 568 -12 774 -12 z "},"¯":{"ha":0,"x_min":-67,"x_max":186,"o":"m 174 928 l -67 929 l -54 971 l 186 971 l 174 928 z "},"°":{"ha":457,"x_min":41,"x_max":418,"o":"m 230 930 q 130 889 172 930 q 88 789 88 848 q 130 689 88 730 q 230 648 171 648 q 330 689 289 648 q 370 789 370 730 q 329 889 370 848 q 230 930 288 930 m 230 978 q 363 923 308 978 q 418 789 418 867 q 362 656 418 712 q 229 601 307 601 q 95 656 149 601 q 41 789 41 711 q 96 923 41 868 q 230 978 151 978 z "},"±":{"ha":2195,"x_min":50,"x_max":2097,"o":"m 306 -291 l 152 -291 l 152 -279 q 174 -232 152 -248 q 229 -216 197 -216 q 283 -232 261 -216 q 306 -279 306 -248 l 306 -291 m 395 -435 l 50 -435 l 50 467 l 395 467 l 395 -435 m 229 186 q 292 212 266 186 q 319 276 319 239 q 293 339 319 312 q 229 366 267 366 q 165 339 193 366 q 139 276 139 311 q 166 212 139 238 q 229 186 193 186 m 319 -333 l 319 -279 q 292 -216 319 -243 q 229 -190 266 -190 q 165 -216 191 -190 q 139 -279 139 -242 l 139 -333 l 151 -333 q 152 -323 151 -326 q 156 -318 153 -319 q 166 -317 159 -317 l 292 -317 q 301 -319 298 -317 q 306 -323 304 -320 q 307 -333 307 -326 l 319 -333 m 319 -179 l 319 -52 l 248 -38 l 248 -50 q 275 -57 262 -52 q 297 -73 288 -62 q 306 -100 306 -83 l 306 -137 l 218 -137 l 218 -121 q 228 -107 218 -107 l 237 -109 l 237 -96 l 190 -86 l 190 -99 q 205 -120 205 -105 l 205 -137 l 152 -137 l 152 -106 q 189 -60 152 -64 l 189 -47 l 139 -56 l 139 -179 l 152 -179 q 154 -166 152 -170 q 166 -163 157 -163 l 292 -163 q 304 -166 301 -163 q 307 -179 307 -170 l 319 -179 m 319 -24 l 319 20 l 307 20 q 305 9 307 13 q 300 5 304 6 q 289 4 297 4 l 187 4 l 319 62 l 319 73 l 182 134 l 291 134 q 304 131 301 134 q 307 117 307 127 l 319 117 l 319 176 l 307 176 q 306 168 307 171 q 304 163 305 165 q 299 161 302 161 q 291 160 296 160 l 167 160 q 154 163 157 160 q 151 176 151 165 l 139 176 l 139 138 l 283 75 q 224 47 233 49 q 139 12 214 45 l 139 -24 l 151 -24 q 154 -11 151 -14 q 169 -8 157 -8 l 289 -8 q 300 -9 297 -8 q 305 -14 304 -11 q 307 -24 307 -18 l 319 -24 m 229 213 q 174 229 196 213 q 152 276 152 244 q 174 323 152 307 q 229 338 196 338 q 283 323 261 338 q 306 276 306 307 q 283 229 306 244 q 229 213 261 213 m 794 61 l 684 61 l 684 85 q 699 86 693 85 q 708 90 705 87 q 712 97 711 92 q 713 111 713 102 l 713 239 l 589 239 l 589 142 q 591 105 589 112 q 591 98 591 101 q 593 93 592 96 q 596 90 595 91 q 600 87 598 88 q 605 85 602 86 q 612 85 608 85 q 620 85 615 85 l 620 61 l 509 61 l 509 85 q 529 87 523 85 q 537 95 535 89 q 539 111 539 100 l 539 351 q 536 369 539 363 q 527 377 534 375 q 509 378 521 378 l 509 402 l 619 402 l 619 378 q 596 375 602 378 q 589 358 590 371 l 589 263 l 713 263 l 713 351 q 708 373 713 368 q 684 378 703 378 l 684 402 l 793 402 l 793 378 q 770 375 775 378 q 764 358 765 371 l 764 115 q 769 90 764 94 q 794 85 775 85 l 794 61 m 935 61 q 888 71 910 61 q 834 115 856 83 q 813 193 813 146 q 849 290 813 255 q 932 325 884 325 q 1016 290 985 325 q 1046 201 1046 255 l 865 201 q 873 152 865 176 q 899 110 881 127 q 947 93 917 93 q 1021 151 996 92 l 1043 142 q 999 83 1029 106 q 935 61 968 61 m 996 224 q 992 251 995 236 q 973 288 987 275 q 932 301 958 301 q 885 283 902 301 q 865 224 867 264 l 996 224 m 1185 62 l 1075 62 l 1075 85 q 1094 87 1088 85 q 1102 95 1100 89 q 1105 114 1105 101 l 1105 252 q 1102 271 1105 265 q 1094 279 1100 277 q 1075 281 1088 281 l 1075 303 l 1155 327 l 1155 114 q 1157 95 1155 101 q 1166 87 1160 89 q 1185 85 1173 85 l 1185 62 m 1127 342 q 1106 351 1116 342 q 1097 372 1097 360 q 1106 393 1097 384 q 1127 401 1116 401 q 1148 393 1139 401 q 1157 372 1157 384 q 1148 351 1157 360 q 1127 342 1139 342 m 1472 62 l 1361 62 l 1361 85 q 1386 90 1380 85 q 1391 114 1392 95 l 1391 267 q 1381 292 1391 282 q 1356 301 1371 301 q 1315 288 1332 301 q 1295 254 1298 274 l 1295 114 q 1301 90 1295 95 q 1326 85 1307 85 l 1326 62 l 1215 62 l 1215 85 q 1234 87 1228 85 q 1243 95 1240 89 q 1245 114 1245 101 l 1245 252 q 1240 276 1245 271 q 1215 281 1234 281 l 1215 303 l 1295 328 l 1295 305 q 1315 317 1299 309 q 1353 326 1332 326 q 1392 319 1376 324 q 1417 304 1407 313 q 1433 285 1428 296 q 1440 264 1438 275 q 1442 244 1442 253 l 1442 111 q 1452 88 1442 92 q 1472 85 1461 85 l 1472 62 m 1684 62 l 1501 62 l 1632 301 q 1559 287 1584 301 q 1528 230 1535 273 l 1504 230 l 1520 326 l 1702 326 l 1572 85 q 1645 100 1620 85 q 1676 157 1669 114 l 1699 157 l 1684 62 m 1854 61 q 1807 71 1829 61 q 1753 115 1774 83 q 1732 193 1732 146 q 1768 290 1732 255 q 1851 325 1803 325 q 1934 290 1904 325 q 1965 201 1965 255 l 1784 201 q 1792 152 1784 176 q 1818 110 1800 127 q 1866 93 1836 93 q 1940 151 1914 92 l 1961 142 q 1918 83 1948 105 q 1854 61 1887 61 m 1914 224 q 1911 251 1914 236 q 1892 288 1906 275 q 1851 301 1877 301 q 1804 283 1821 301 q 1784 224 1786 264 l 1914 224 m 2097 62 l 1986 62 l 1986 85 q 2002 86 1996 85 q 2010 90 2007 87 q 2015 99 2013 93 q 2016 114 2016 104 l 2016 355 q 2014 374 2016 368 q 2005 382 2011 380 q 1986 384 1999 384 l 1986 406 l 2066 430 l 2066 114 q 2069 95 2066 101 q 2078 87 2071 89 q 2097 85 2084 85 l 2097 62 m 635 -378 q 575 -369 603 -378 q 530 -352 547 -361 q 509 -339 512 -342 l 522 -241 l 545 -241 q 557 -309 545 -285 q 590 -344 569 -334 q 636 -354 610 -354 q 689 -340 673 -354 q 705 -303 705 -326 q 685 -260 705 -276 q 637 -232 665 -243 q 581 -207 609 -220 q 533 -173 553 -193 q 514 -119 514 -153 q 530 -73 514 -91 q 570 -46 546 -55 q 618 -37 593 -37 q 663 -42 642 -37 q 700 -55 684 -47 q 726 -68 715 -62 q 739 -79 736 -75 l 726 -170 l 703 -170 q 679 -86 703 -111 q 618 -62 655 -62 q 571 -72 590 -62 q 553 -104 553 -82 q 572 -140 553 -126 q 621 -165 592 -153 q 679 -191 650 -176 q 727 -228 707 -205 q 747 -287 747 -250 q 716 -353 747 -328 q 635 -378 686 -378 m 871 -378 q 824 -356 838 -378 q 810 -296 810 -334 l 810 -138 l 775 -138 l 775 -115 q 836 -35 836 -115 l 861 -35 l 861 -114 l 925 -114 l 925 -138 l 861 -138 l 861 -285 q 864 -331 861 -316 q 887 -346 867 -346 q 912 -333 903 -345 q 930 -297 922 -321 l 954 -302 q 937 -339 947 -322 q 911 -368 927 -357 q 871 -378 895 -378 m 1217 -378 l 1137 -378 l 1137 -357 q 1115 -370 1133 -363 q 1075 -378 1097 -378 q 1018 -357 1042 -378 q 990 -305 993 -336 l 990 -187 q 985 -163 990 -168 q 960 -158 979 -158 l 960 -136 l 1040 -112 l 1040 -319 q 1050 -344 1040 -334 q 1075 -354 1060 -354 q 1117 -340 1100 -354 q 1137 -305 1134 -326 l 1137 -187 q 1131 -163 1137 -168 q 1106 -158 1125 -158 l 1106 -136 l 1187 -112 l 1187 -326 q 1192 -350 1187 -345 q 1217 -355 1198 -355 l 1217 -378 m 1501 -378 l 1421 -378 l 1421 -355 q 1394 -371 1413 -364 q 1354 -378 1375 -378 q 1272 -339 1306 -378 q 1238 -246 1238 -300 q 1272 -153 1238 -193 q 1354 -114 1306 -114 q 1382 -117 1369 -114 q 1405 -126 1395 -121 q 1421 -136 1415 -131 l 1421 -85 q 1419 -66 1421 -72 q 1410 -58 1417 -60 q 1391 -56 1404 -56 l 1391 -34 l 1472 -10 l 1472 -326 q 1474 -345 1472 -338 q 1482 -353 1476 -351 q 1501 -355 1489 -355 l 1501 -378 m 1354 -354 q 1407 -323 1392 -354 q 1421 -246 1421 -292 q 1407 -169 1421 -200 q 1354 -138 1392 -138 q 1306 -172 1322 -140 q 1290 -244 1290 -203 q 1306 -320 1290 -286 q 1354 -354 1322 -354 m 1642 -378 l 1531 -378 l 1531 -355 q 1550 -353 1544 -355 q 1559 -345 1556 -351 q 1561 -326 1561 -338 l 1561 -187 q 1559 -168 1561 -174 q 1550 -160 1556 -162 q 1531 -158 1544 -158 l 1531 -136 l 1612 -113 l 1612 -326 q 1614 -345 1612 -338 q 1623 -353 1616 -351 q 1642 -355 1629 -355 l 1642 -378 m 1584 -98 q 1563 -89 1572 -98 q 1554 -68 1554 -79 q 1563 -47 1554 -56 q 1584 -38 1572 -38 q 1605 -47 1596 -38 q 1613 -68 1613 -56 q 1605 -89 1613 -79 q 1584 -98 1596 -98 m 1796 -378 q 1703 -339 1742 -378 q 1664 -246 1664 -300 q 1703 -153 1664 -192 q 1796 -114 1742 -114 q 1889 -153 1850 -114 q 1928 -246 1928 -192 q 1889 -339 1928 -300 q 1796 -378 1850 -378 m 1796 -354 q 1859 -323 1841 -354 q 1876 -246 1876 -292 q 1859 -169 1876 -200 q 1796 -138 1841 -138 q 1734 -169 1752 -138 q 1716 -246 1716 -200 q 1734 -323 1716 -292 q 1796 -354 1752 -354 z "},"²":{"ha":438,"x_min":44,"x_max":394,"o":"m 256 540 q 235 541 246 540 q 135 552 172 552 q 103 549 113 552 q 80 540 94 547 l 44 540 q 106 677 56 620 q 153 721 128 702 q 203 755 178 739 q 274 809 243 781 q 321 882 306 838 q 324 903 324 893 q 309 943 324 928 q 273 958 294 958 q 228 936 239 958 q 221 913 222 926 q 218 887 219 901 l 217 869 q 204 840 215 850 q 178 829 193 829 q 152 840 163 829 q 147 846 149 843 q 143 854 145 850 q 142 866 142 859 q 158 910 142 886 q 201 951 174 935 q 271 971 234 971 l 273 971 q 341 957 314 970 q 381 923 368 944 q 394 877 394 903 q 336 774 394 823 q 282 733 312 752 q 220 696 252 714 q 154 656 184 676 q 103 615 123 636 q 81 569 83 593 q 116 581 98 578 q 153 584 134 584 q 183 583 169 584 q 214 582 198 582 q 258 587 236 582 q 299 605 279 591 q 335 646 319 619 l 336 646 q 349 626 345 637 q 353 607 353 615 q 324 560 353 581 q 256 540 296 540 z "},"³":{"ha":387,"x_min":44,"x_max":343,"o":"m 164 542 q 115 550 137 542 q 79 568 93 557 q 44 632 44 595 q 50 659 44 645 q 70 684 56 672 q 104 703 83 696 q 98 680 100 693 q 97 661 97 666 q 101 624 97 643 q 112 590 104 606 q 131 564 119 574 q 157 554 142 554 q 206 575 183 554 q 243 629 229 596 q 257 699 257 663 q 241 756 257 734 q 195 778 225 778 q 188 779 188 778 l 189 779 l 189 796 q 229 818 210 799 q 259 864 247 838 q 271 915 271 891 q 260 949 271 937 q 230 962 249 962 q 199 949 213 962 q 188 929 191 941 q 185 905 186 917 q 180 879 185 889 q 169 868 176 871 q 155 864 162 864 q 134 872 144 864 q 123 894 123 880 q 125 904 123 899 q 150 943 132 928 q 191 965 168 958 q 239 972 215 972 q 312 954 285 972 q 342 906 338 935 l 343 897 q 331 854 343 876 q 293 815 318 833 q 229 788 268 798 q 308 748 282 774 q 334 686 334 722 q 311 618 334 651 q 248 563 287 585 q 164 542 210 542 z "},"´":{"ha":2195,"x_min":50,"x_max":2097,"o":"m 306 148 l 152 148 l 152 159 q 174 207 152 191 q 229 222 197 222 q 283 207 261 222 q 306 159 306 191 l 306 148 m 395 4 l 50 4 l 50 906 l 395 906 l 395 4 m 229 625 q 292 651 266 625 q 319 715 319 677 q 293 778 319 751 q 229 804 267 804 q 165 778 193 804 q 139 715 139 750 q 166 651 139 677 q 229 625 193 625 m 319 106 l 319 159 q 292 222 319 196 q 229 249 266 249 q 165 223 191 249 q 139 159 139 197 l 139 106 l 151 106 q 152 116 151 113 q 156 120 153 119 q 166 121 159 121 l 292 121 q 301 120 298 121 q 306 116 304 119 q 307 106 307 113 l 319 106 m 319 260 l 319 387 l 248 401 l 248 389 q 275 381 262 387 q 297 366 288 376 q 306 338 306 356 l 306 302 l 218 302 l 218 318 q 228 332 218 332 l 237 330 l 237 342 l 190 353 l 190 340 q 205 319 205 334 l 205 302 l 152 302 l 152 333 q 189 379 152 374 l 189 391 l 139 383 l 139 260 l 152 260 q 154 272 152 269 q 166 275 157 275 l 292 275 q 304 272 301 275 q 307 260 307 269 l 319 260 m 319 414 l 319 459 l 307 459 q 305 448 307 452 q 300 444 304 445 q 289 443 297 443 l 187 443 l 319 500 l 319 512 l 182 572 l 291 572 q 304 569 301 572 q 307 556 307 566 l 319 556 l 319 614 l 307 614 q 306 607 307 610 q 304 602 305 604 q 299 600 302 600 q 291 599 296 599 l 167 599 q 154 602 157 599 q 151 614 151 604 l 139 614 l 139 577 l 283 514 q 224 486 233 488 q 139 451 214 484 l 139 414 l 151 414 q 154 428 151 425 q 169 431 157 431 l 289 431 q 300 429 297 431 q 305 425 304 428 q 307 414 307 421 l 319 414 m 229 652 q 174 667 196 652 q 152 715 152 683 q 174 762 152 746 q 229 777 196 777 q 283 762 261 777 q 306 715 306 746 q 283 667 306 683 q 229 652 261 652 m 794 500 l 684 500 l 684 524 q 699 525 693 524 q 708 528 705 526 q 712 536 711 531 q 713 550 713 541 l 713 678 l 589 678 l 589 581 q 591 544 589 551 q 591 537 591 540 q 593 532 592 534 q 596 528 595 530 q 600 526 598 527 q 605 524 602 525 q 612 524 608 524 q 620 524 615 524 l 620 500 l 509 500 l 509 524 q 529 526 523 524 q 537 533 535 528 q 539 550 539 539 l 539 789 q 536 808 539 802 q 527 815 534 814 q 509 817 521 817 l 509 841 l 619 841 l 619 817 q 596 813 602 817 q 589 797 590 810 l 589 702 l 713 702 l 713 789 q 708 812 713 806 q 684 817 703 817 l 684 841 l 793 841 l 793 817 q 770 813 775 817 q 764 797 765 810 l 764 553 q 769 528 764 533 q 794 524 775 524 l 794 500 m 935 500 q 888 509 910 500 q 834 553 856 522 q 813 632 813 585 q 849 729 813 694 q 932 764 884 764 q 1016 729 985 764 q 1046 640 1046 694 l 865 640 q 873 590 865 615 q 899 549 881 566 q 947 532 917 532 q 1021 590 996 531 l 1043 581 q 999 522 1029 545 q 935 500 968 500 m 996 663 q 992 690 995 675 q 973 727 987 714 q 932 740 958 740 q 885 722 902 740 q 865 663 867 703 l 996 663 m 1185 500 l 1075 500 l 1075 524 q 1094 526 1088 524 q 1102 534 1100 528 q 1105 553 1105 540 l 1105 691 q 1102 710 1105 704 q 1094 718 1100 716 q 1075 720 1088 720 l 1075 742 l 1155 766 l 1155 553 q 1157 534 1155 540 q 1166 526 1160 528 q 1185 524 1173 524 l 1185 500 m 1127 781 q 1106 790 1116 781 q 1097 810 1097 799 q 1106 831 1097 823 q 1127 840 1116 840 q 1148 831 1139 840 q 1157 810 1157 823 q 1148 790 1157 799 q 1127 781 1139 781 m 1472 500 l 1361 500 l 1361 524 q 1386 529 1380 524 q 1391 553 1392 534 l 1391 706 q 1381 730 1391 721 q 1356 740 1371 740 q 1315 726 1332 740 q 1295 692 1298 713 l 1295 553 q 1301 529 1295 534 q 1326 524 1307 524 l 1326 500 l 1215 500 l 1215 524 q 1234 526 1228 524 q 1243 534 1240 528 q 1245 553 1245 540 l 1245 691 q 1240 715 1245 710 q 1215 720 1234 720 l 1215 742 l 1295 766 l 1295 744 q 1315 756 1299 748 q 1353 764 1332 764 q 1392 758 1376 763 q 1417 743 1407 752 q 1433 724 1428 734 q 1440 703 1438 713 q 1442 683 1442 692 l 1442 550 q 1452 527 1442 530 q 1472 524 1461 524 l 1472 500 m 1684 500 l 1501 500 l 1632 740 q 1559 726 1584 740 q 1528 669 1535 712 l 1504 669 l 1520 764 l 1702 764 l 1572 524 q 1645 538 1620 524 q 1676 595 1669 553 l 1699 595 l 1684 500 m 1854 500 q 1807 509 1829 500 q 1753 553 1774 522 q 1732 632 1732 585 q 1768 729 1732 694 q 1851 764 1803 764 q 1934 729 1904 764 q 1965 640 1965 694 l 1784 640 q 1792 590 1784 615 q 1818 549 1800 566 q 1866 532 1836 532 q 1940 590 1914 531 l 1961 581 q 1918 522 1948 544 q 1854 500 1887 500 m 1914 663 q 1911 690 1914 675 q 1892 727 1906 714 q 1851 740 1877 740 q 1804 722 1821 740 q 1784 663 1786 703 l 1914 663 m 2097 500 l 1986 500 l 1986 524 q 2002 525 1996 524 q 2010 529 2007 526 q 2015 537 2013 532 q 2016 553 2016 543 l 2016 793 q 2014 813 2016 806 q 2005 821 2011 819 q 1986 823 1999 823 l 1986 845 l 2066 869 l 2066 553 q 2069 534 2066 540 q 2078 526 2071 528 q 2097 524 2084 524 l 2097 500 m 635 61 q 575 70 603 61 q 530 87 547 78 q 509 100 512 96 l 522 198 l 545 198 q 557 130 545 154 q 590 95 569 105 q 636 85 610 85 q 689 99 673 85 q 705 136 705 113 q 685 179 705 163 q 637 207 665 195 q 581 232 609 219 q 533 266 553 245 q 514 319 514 286 q 530 366 514 348 q 570 393 546 384 q 618 401 593 401 q 663 396 642 401 q 700 384 684 391 q 726 370 715 377 q 739 360 736 363 l 726 269 l 703 269 q 679 352 703 328 q 618 377 655 377 q 571 367 590 377 q 553 335 553 357 q 572 299 553 313 q 621 274 592 286 q 679 248 650 262 q 727 211 707 233 q 747 152 747 189 q 716 86 747 111 q 635 61 686 61 m 871 60 q 824 82 838 60 q 810 143 810 104 l 810 300 l 775 300 l 775 324 q 836 404 836 323 l 861 404 l 861 325 l 925 325 l 925 300 l 861 300 l 861 154 q 864 108 861 123 q 887 93 867 93 q 912 106 903 94 q 930 142 922 118 l 954 137 q 937 99 947 117 q 911 71 927 82 q 871 60 895 60 m 1217 61 l 1137 61 l 1137 81 q 1115 68 1133 76 q 1075 61 1097 61 q 1018 82 1042 61 q 990 134 993 103 l 990 252 q 985 276 990 271 q 960 281 979 281 l 960 302 l 1040 327 l 1040 119 q 1050 95 1040 104 q 1075 85 1060 85 q 1117 99 1100 85 q 1137 134 1134 113 l 1137 252 q 1131 276 1137 271 q 1106 281 1125 281 l 1106 302 l 1187 327 l 1187 113 q 1192 89 1187 94 q 1217 84 1198 84 l 1217 61 m 1501 60 l 1421 60 l 1421 83 q 1394 67 1413 75 q 1354 60 1375 60 q 1272 100 1306 60 q 1238 193 1238 139 q 1272 286 1238 246 q 1354 325 1306 325 q 1382 321 1369 325 q 1405 313 1395 318 q 1421 302 1415 308 l 1421 354 q 1419 373 1421 367 q 1410 381 1417 379 q 1391 383 1404 383 l 1391 405 l 1472 429 l 1472 113 q 1474 94 1472 100 q 1482 86 1476 88 q 1501 84 1489 84 l 1501 60 m 1354 85 q 1407 116 1392 85 q 1421 193 1421 146 q 1407 270 1421 239 q 1354 300 1392 300 q 1306 267 1322 298 q 1290 195 1290 235 q 1306 119 1290 153 q 1354 85 1322 85 m 1642 61 l 1531 61 l 1531 84 q 1550 86 1544 84 q 1559 94 1556 88 q 1561 113 1561 100 l 1561 252 q 1559 271 1561 264 q 1550 279 1556 277 q 1531 281 1544 281 l 1531 302 l 1612 326 l 1612 113 q 1614 94 1612 100 q 1623 86 1616 88 q 1642 84 1629 84 l 1642 61 m 1584 341 q 1563 350 1572 341 q 1554 371 1554 359 q 1563 392 1554 383 q 1584 401 1572 401 q 1605 392 1596 401 q 1613 371 1613 383 q 1605 350 1613 359 q 1584 341 1596 341 m 1796 61 q 1703 100 1742 61 q 1664 193 1664 139 q 1703 286 1664 247 q 1796 325 1742 325 q 1889 286 1850 325 q 1928 193 1928 247 q 1889 100 1928 139 q 1796 61 1850 61 m 1796 85 q 1859 116 1841 85 q 1876 193 1876 146 q 1859 270 1876 239 q 1796 300 1841 300 q 1734 270 1752 300 q 1716 193 1716 239 q 1734 116 1716 146 q 1796 85 1752 85 z "},"µ":{"ha":800,"x_min":0,"x_max":0,"o":""},"¶":{"ha":694,"x_min":63,"x_max":630,"o":"m 630 973 l 630 926 l 544 926 l 544 0 l 488 0 l 488 926 l 376 926 l 376 0 l 319 0 l 319 500 q 132 570 201 506 q 63 736 63 634 q 136 908 63 843 q 330 973 209 973 l 630 973 z "},"·":{"ha":345,"x_min":98,"x_max":247,"o":"m 172 432 q 119 454 141 432 q 98 507 98 475 q 119 559 98 537 q 172 581 141 581 q 225 559 203 581 q 247 507 247 537 q 225 454 247 475 q 172 432 203 432 z "},"∙":{"ha":345,"x_min":98,"x_max":247,"o":"m 172 432 q 119 454 141 432 q 98 507 98 475 q 119 559 98 537 q 172 581 141 581 q 225 559 203 581 q 247 507 247 537 q 225 454 247 475 q 172 432 203 432 z "},"¸":{"ha":336,"x_min":44,"x_max":292,"o":"m 151 -311 q 85 -296 111 -311 q 44 -260 59 -280 l 81 -232 q 106 -255 90 -245 q 149 -265 123 -265 q 195 -254 177 -265 q 223 -224 214 -242 q 232 -188 232 -207 q 215 -140 232 -161 q 166 -119 199 -119 q 111 -135 134 -119 q 75 -169 89 -150 l 50 -152 l 157 14 l 196 14 l 132 -90 q 182 -80 154 -80 l 186 -80 q 265 -114 239 -83 q 292 -181 292 -144 q 275 -242 292 -212 q 228 -292 259 -272 q 151 -311 196 -311 z "},"¹":{"ha":281,"x_min":44,"x_max":237,"o":"m 124 541 l 44 541 l 138 901 l 114 875 l 87 875 l 177 971 l 237 971 l 124 541 z "},"º":{"ha":431,"x_min":44,"x_max":387,"o":"m 186 560 q 247 606 219 565 q 292 708 274 647 q 309 828 309 768 q 294 918 309 885 q 253 954 278 951 q 250 954 251 954 q 204 930 227 954 q 163 868 182 907 q 133 782 144 829 q 122 686 122 734 q 138 595 122 630 q 182 560 154 560 l 186 560 m 179 541 q 109 563 139 541 q 61 623 78 585 q 44 710 44 661 q 61 808 44 761 q 108 892 79 855 q 175 951 137 929 q 253 973 212 973 q 323 951 292 973 q 370 891 353 929 q 387 804 387 852 q 367 699 387 752 q 309 605 347 646 q 248 558 281 575 q 179 541 214 541 z "},"»":{"ha":640,"x_min":50,"x_max":2097,"o":"m 306 148 l 152 148 l 152 159 q 174 207 152 191 q 229 222 197 222 q 283 207 261 222 q 306 159 306 191 l 306 148 m 395 4 l 50 4 l 50 906 l 395 906 l 395 4 m 229 625 q 292 651 266 625 q 319 715 319 677 q 293 778 319 751 q 229 804 267 804 q 165 778 193 804 q 139 715 139 750 q 166 651 139 677 q 229 625 193 625 m 319 106 l 319 159 q 292 222 319 196 q 229 249 266 249 q 165 223 191 249 q 139 159 139 197 l 139 106 l 151 106 q 152 116 151 113 q 156 120 153 119 q 166 121 159 121 l 292 121 q 301 120 298 121 q 306 116 304 119 q 307 106 307 113 l 319 106 m 319 260 l 319 387 l 248 401 l 248 389 q 275 381 262 387 q 297 366 288 376 q 306 338 306 356 l 306 302 l 218 302 l 218 318 q 228 332 218 332 l 237 330 l 237 342 l 190 353 l 190 340 q 205 319 205 334 l 205 302 l 152 302 l 152 333 q 189 379 152 374 l 189 391 l 139 383 l 139 260 l 152 260 q 154 272 152 269 q 166 275 157 275 l 292 275 q 304 272 301 275 q 307 260 307 269 l 319 260 m 319 414 l 319 459 l 307 459 q 305 448 307 452 q 300 444 304 445 q 289 443 297 443 l 187 443 l 319 500 l 319 512 l 182 572 l 291 572 q 304 569 301 572 q 307 556 307 566 l 319 556 l 319 614 l 307 614 q 306 607 307 610 q 304 602 305 604 q 299 600 302 600 q 291 599 296 599 l 167 599 q 154 602 157 599 q 151 614 151 604 l 139 614 l 139 577 l 283 514 q 224 486 233 488 q 139 451 214 484 l 139 414 l 151 414 q 154 428 151 425 q 169 431 157 431 l 289 431 q 300 429 297 431 q 305 425 304 428 q 307 414 307 421 l 319 414 m 229 652 q 174 667 196 652 q 152 715 152 683 q 174 762 152 746 q 229 777 196 777 q 283 762 261 777 q 306 715 306 746 q 283 667 306 683 q 229 652 261 652 m 794 500 l 684 500 l 684 524 q 699 525 693 524 q 708 528 705 526 q 712 536 711 531 q 713 550 713 541 l 713 678 l 589 678 l 589 581 q 591 544 589 551 q 591 537 591 540 q 593 532 592 534 q 596 528 595 530 q 600 526 598 527 q 605 524 602 525 q 612 524 608 524 q 620 524 615 524 l 620 500 l 509 500 l 509 524 q 529 526 523 524 q 537 533 535 528 q 539 550 539 539 l 539 789 q 536 808 539 802 q 527 815 534 814 q 509 817 521 817 l 509 841 l 619 841 l 619 817 q 596 813 602 817 q 589 797 590 810 l 589 702 l 713 702 l 713 789 q 708 812 713 806 q 684 817 703 817 l 684 841 l 793 841 l 793 817 q 770 813 775 817 q 764 797 765 810 l 764 553 q 769 528 764 533 q 794 524 775 524 l 794 500 m 935 500 q 888 509 910 500 q 834 553 856 522 q 813 632 813 585 q 849 729 813 694 q 932 764 884 764 q 1016 729 985 764 q 1046 640 1046 694 l 865 640 q 873 590 865 615 q 899 549 881 566 q 947 532 917 532 q 1021 590 996 531 l 1043 581 q 999 522 1029 545 q 935 500 968 500 m 996 663 q 992 690 995 675 q 973 727 987 714 q 932 740 958 740 q 885 722 902 740 q 865 663 867 703 l 996 663 m 1185 500 l 1075 500 l 1075 524 q 1094 526 1088 524 q 1102 534 1100 528 q 1105 553 1105 540 l 1105 691 q 1102 710 1105 704 q 1094 718 1100 716 q 1075 720 1088 720 l 1075 742 l 1155 766 l 1155 553 q 1157 534 1155 540 q 1166 526 1160 528 q 1185 524 1173 524 l 1185 500 m 1127 781 q 1106 790 1116 781 q 1097 810 1097 799 q 1106 831 1097 823 q 1127 840 1116 840 q 1148 831 1139 840 q 1157 810 1157 823 q 1148 790 1157 799 q 1127 781 1139 781 m 1472 500 l 1361 500 l 1361 524 q 1386 529 1380 524 q 1391 553 1392 534 l 1391 706 q 1381 730 1391 721 q 1356 740 1371 740 q 1315 726 1332 740 q 1295 692 1298 713 l 1295 553 q 1301 529 1295 534 q 1326 524 1307 524 l 1326 500 l 1215 500 l 1215 524 q 1234 526 1228 524 q 1243 534 1240 528 q 1245 553 1245 540 l 1245 691 q 1240 715 1245 710 q 1215 720 1234 720 l 1215 742 l 1295 766 l 1295 744 q 1315 756 1299 748 q 1353 764 1332 764 q 1392 758 1376 763 q 1417 743 1407 752 q 1433 724 1428 734 q 1440 703 1438 713 q 1442 683 1442 692 l 1442 550 q 1452 527 1442 530 q 1472 524 1461 524 l 1472 500 m 1684 500 l 1501 500 l 1632 740 q 1559 726 1584 740 q 1528 669 1535 712 l 1504 669 l 1520 764 l 1702 764 l 1572 524 q 1645 538 1620 524 q 1676 595 1669 553 l 1699 595 l 1684 500 m 1854 500 q 1807 509 1829 500 q 1753 553 1774 522 q 1732 632 1732 585 q 1768 729 1732 694 q 1851 764 1803 764 q 1934 729 1904 764 q 1965 640 1965 694 l 1784 640 q 1792 590 1784 615 q 1818 549 1800 566 q 1866 532 1836 532 q 1940 590 1914 531 l 1961 581 q 1918 522 1948 544 q 1854 500 1887 500 m 1914 663 q 1911 690 1914 675 q 1892 727 1906 714 q 1851 740 1877 740 q 1804 722 1821 740 q 1784 663 1786 703 l 1914 663 m 2097 500 l 1986 500 l 1986 524 q 2002 525 1996 524 q 2010 529 2007 526 q 2015 537 2013 532 q 2016 553 2016 543 l 2016 793 q 2014 813 2016 806 q 2005 821 2011 819 q 1986 823 1999 823 l 1986 845 l 2066 869 l 2066 553 q 2069 534 2066 540 q 2078 526 2071 528 q 2097 524 2084 524 l 2097 500 m 635 61 q 575 70 603 61 q 530 87 547 78 q 509 100 512 96 l 522 198 l 545 198 q 557 130 545 154 q 590 95 569 105 q 636 85 610 85 q 689 99 673 85 q 705 136 705 113 q 685 179 705 163 q 637 207 665 195 q 581 232 609 219 q 533 266 553 245 q 514 319 514 286 q 530 366 514 348 q 570 393 546 384 q 618 401 593 401 q 663 396 642 401 q 700 384 684 391 q 726 370 715 377 q 739 360 736 363 l 726 269 l 703 269 q 679 352 703 328 q 618 377 655 377 q 571 367 590 377 q 553 335 553 357 q 572 299 553 313 q 621 274 592 286 q 679 248 650 262 q 727 211 707 233 q 747 152 747 189 q 716 86 747 111 q 635 61 686 61 m 871 60 q 824 82 838 60 q 810 143 810 104 l 810 300 l 775 300 l 775 324 q 836 404 836 323 l 861 404 l 861 325 l 925 325 l 925 300 l 861 300 l 861 154 q 864 108 861 123 q 887 93 867 93 q 912 106 903 94 q 930 142 922 118 l 954 137 q 937 99 947 117 q 911 71 927 82 q 871 60 895 60 m 1217 61 l 1137 61 l 1137 81 q 1115 68 1133 76 q 1075 61 1097 61 q 1018 82 1042 61 q 990 134 993 103 l 990 252 q 985 276 990 271 q 960 281 979 281 l 960 302 l 1040 327 l 1040 119 q 1050 95 1040 104 q 1075 85 1060 85 q 1117 99 1100 85 q 1137 134 1134 113 l 1137 252 q 1131 276 1137 271 q 1106 281 1125 281 l 1106 302 l 1187 327 l 1187 113 q 1192 89 1187 94 q 1217 84 1198 84 l 1217 61 m 1501 60 l 1421 60 l 1421 83 q 1394 67 1413 75 q 1354 60 1375 60 q 1272 100 1306 60 q 1238 193 1238 139 q 1272 286 1238 246 q 1354 325 1306 325 q 1382 321 1369 325 q 1405 313 1395 318 q 1421 302 1415 308 l 1421 354 q 1419 373 1421 367 q 1410 381 1417 379 q 1391 383 1404 383 l 1391 405 l 1472 429 l 1472 113 q 1474 94 1472 100 q 1482 86 1476 88 q 1501 84 1489 84 l 1501 60 m 1354 85 q 1407 116 1392 85 q 1421 193 1421 146 q 1407 270 1421 239 q 1354 300 1392 300 q 1306 267 1322 298 q 1290 195 1290 235 q 1306 119 1290 153 q 1354 85 1322 85 m 1642 61 l 1531 61 l 1531 84 q 1550 86 1544 84 q 1559 94 1556 88 q 1561 113 1561 100 l 1561 252 q 1559 271 1561 264 q 1550 279 1556 277 q 1531 281 1544 281 l 1531 302 l 1612 326 l 1612 113 q 1614 94 1612 100 q 1623 86 1616 88 q 1642 84 1629 84 l 1642 61 m 1584 341 q 1563 350 1572 341 q 1554 371 1554 359 q 1563 392 1554 383 q 1584 401 1572 401 q 1605 392 1596 401 q 1613 371 1613 383 q 1605 350 1613 359 q 1584 341 1596 341 m 1796 61 q 1703 100 1742 61 q 1664 193 1664 139 q 1703 286 1664 247 q 1796 325 1742 325 q 1889 286 1850 325 q 1928 193 1928 247 q 1889 100 1928 139 q 1796 61 1850 61 m 1796 85 q 1859 116 1841 85 q 1876 193 1876 146 q 1859 270 1876 239 q 1796 300 1841 300 q 1734 270 1752 300 q 1716 193 1716 239 q 1734 116 1716 146 q 1796 85 1752 85 z "},"¼":{"ha":793,"x_min":44,"x_max":749,"o":"m 134 3 l 44 3 l 621 970 l 713 970 l 134 3 m 155 541 l 75 541 l 170 901 l 145 875 l 119 875 l 208 971 l 269 971 l 155 541 m 634 1 l 554 1 l 592 148 l 455 148 q 468 188 455 163 q 496 234 481 213 q 514 259 510 254 q 545 332 545 294 q 533 382 545 355 q 528 407 528 396 q 540 436 528 425 q 568 447 552 447 q 592 438 581 447 q 609 410 604 429 q 612 390 612 399 q 603 350 612 369 q 581 312 594 330 q 553 277 567 294 l 536 257 q 512 224 523 240 q 494 194 502 208 q 483 168 487 180 l 597 168 l 662 417 l 749 433 l 678 168 l 702 168 l 696 148 l 673 148 l 634 1 z "},"½":{"ha":792,"x_min":44,"x_max":748,"o":"m 134 3 l 44 3 l 621 970 l 713 970 l 134 3 m 155 541 l 75 541 l 170 901 l 145 875 l 119 875 l 208 971 l 269 971 l 155 541 m 610 6 q 590 7 600 6 q 489 18 526 18 q 457 16 467 18 q 434 6 448 13 l 398 6 q 460 144 410 86 q 507 187 482 168 q 557 222 532 205 q 629 275 597 247 q 675 349 661 304 q 678 370 678 359 q 663 409 678 394 q 627 424 648 424 q 583 402 593 424 q 575 379 577 392 q 572 353 573 367 l 572 336 q 558 306 569 316 q 532 296 547 296 q 506 307 518 296 q 502 313 504 309 q 497 321 499 316 q 496 332 496 326 q 512 376 496 352 q 555 418 528 401 q 625 437 588 437 l 628 437 q 695 423 668 436 q 735 390 722 410 q 748 343 748 369 q 690 240 748 290 q 636 199 666 218 q 574 163 606 180 q 508 122 539 142 q 457 81 477 102 q 435 35 437 60 q 470 47 452 44 q 507 50 488 50 q 538 49 524 50 q 568 48 552 48 q 612 53 590 48 q 653 72 633 58 q 689 113 673 85 l 690 113 q 703 92 699 103 q 707 73 707 81 q 679 26 707 47 q 610 6 650 6 z "},"¾":{"ha":785,"x_min":44,"x_max":741,"o":"m 134 3 l 44 3 l 621 970 l 713 970 l 134 3 m 626 3 l 546 3 l 584 150 l 447 150 q 460 190 447 165 q 488 236 473 215 q 506 261 502 256 q 536 334 536 296 q 525 385 536 357 q 519 409 519 398 q 532 438 519 427 q 559 449 544 449 q 584 440 572 449 q 601 412 596 431 q 604 392 604 401 q 595 352 604 371 q 572 314 586 332 q 545 279 559 296 l 528 259 q 504 226 515 242 q 486 196 494 210 q 475 170 479 182 l 589 170 l 654 419 l 741 435 l 670 170 l 694 170 l 688 150 l 665 150 l 626 3 m 165 542 q 116 550 138 542 q 80 568 94 557 q 45 632 45 595 q 51 659 45 645 q 70 684 57 672 q 104 703 83 696 q 99 680 100 693 q 98 661 98 666 q 101 624 98 643 q 113 590 105 606 q 132 564 120 574 q 158 554 143 554 q 207 575 184 554 q 243 629 229 596 q 258 699 258 663 q 242 756 258 734 q 196 778 226 778 q 189 779 189 778 l 189 779 l 189 796 q 229 818 211 799 q 259 864 248 838 q 271 915 271 891 q 260 949 271 937 q 231 962 250 962 q 199 949 214 962 q 189 929 191 941 q 186 905 186 917 q 181 879 186 889 q 170 868 176 871 q 155 864 163 864 q 134 872 144 864 q 124 894 124 880 q 125 904 124 899 q 151 943 133 928 q 192 965 168 958 q 240 972 216 972 q 312 954 286 972 q 343 906 339 935 l 344 897 q 331 854 344 876 q 294 815 319 833 q 230 788 269 798 q 309 748 283 774 q 335 686 335 722 q 311 618 335 651 q 249 563 288 585 q 165 542 210 542 z "},"¿":{"ha":654,"x_min":29,"x_max":595,"o":"m 450 566 q 500 564 489 565 q 511 562 511 562 q 446 380 486 436 q 362 300 407 325 q 275 242 317 275 q 203 126 233 209 q 189 39 189 81 q 221 -65 189 -25 q 319 -104 254 -104 q 387 -94 364 -104 q 418 -64 410 -83 q 426 -21 426 -45 q 423 24 426 0 q 420 73 420 48 q 440 144 420 119 q 494 170 461 170 q 534 158 515 170 q 566 123 553 146 q 578 65 578 100 q 532 -49 574 -5 q 430 -114 491 -94 q 306 -135 368 -135 q 168 -101 231 -135 q 67 -10 105 -67 q 29 115 29 47 q 42 191 29 152 q 128 301 71 269 q 251 354 185 333 q 371 419 316 374 q 450 566 425 463 m 501 835 q 567 807 540 835 q 595 741 595 780 q 567 675 595 703 q 501 648 540 648 q 435 675 463 648 q 407 741 407 703 q 435 807 407 780 q 501 835 463 835 z "},"À":{"ha":2195,"x_min":50,"x_max":2097,"o":"m 306 148 l 152 148 l 152 159 q 174 207 152 191 q 229 222 197 222 q 283 207 261 222 q 306 159 306 191 l 306 148 m 395 4 l 50 4 l 50 906 l 395 906 l 395 4 m 229 625 q 292 651 266 625 q 319 715 319 677 q 293 778 319 751 q 229 804 267 804 q 165 778 193 804 q 139 715 139 750 q 166 651 139 677 q 229 625 193 625 m 319 106 l 319 159 q 292 222 319 196 q 229 249 266 249 q 165 223 191 249 q 139 159 139 197 l 139 106 l 151 106 q 152 116 151 113 q 156 120 153 119 q 166 121 159 121 l 292 121 q 301 120 298 121 q 306 116 304 119 q 307 106 307 113 l 319 106 m 319 260 l 319 387 l 248 401 l 248 389 q 275 381 262 387 q 297 366 288 376 q 306 338 306 356 l 306 302 l 218 302 l 218 318 q 228 332 218 332 l 237 330 l 237 342 l 190 353 l 190 340 q 205 319 205 334 l 205 302 l 152 302 l 152 333 q 189 379 152 374 l 189 391 l 139 383 l 139 260 l 152 260 q 154 272 152 269 q 166 275 157 275 l 292 275 q 304 272 301 275 q 307 260 307 269 l 319 260 m 319 414 l 319 459 l 307 459 q 305 448 307 452 q 300 444 304 445 q 289 443 297 443 l 187 443 l 319 500 l 319 512 l 182 572 l 291 572 q 304 569 301 572 q 307 556 307 566 l 319 556 l 319 614 l 307 614 q 306 607 307 610 q 304 602 305 604 q 299 600 302 600 q 291 599 296 599 l 167 599 q 154 602 157 599 q 151 614 151 604 l 139 614 l 139 577 l 283 514 q 224 486 233 488 q 139 451 214 484 l 139 414 l 151 414 q 154 428 151 425 q 169 431 157 431 l 289 431 q 300 429 297 431 q 305 425 304 428 q 307 414 307 421 l 319 414 m 229 652 q 174 667 196 652 q 152 715 152 683 q 174 762 152 746 q 229 777 196 777 q 283 762 261 777 q 306 715 306 746 q 283 667 306 683 q 229 652 261 652 m 794 500 l 684 500 l 684 524 q 699 525 693 524 q 708 528 705 526 q 712 536 711 531 q 713 550 713 541 l 713 678 l 589 678 l 589 581 q 591 544 589 551 q 591 537 591 540 q 593 532 592 534 q 596 528 595 530 q 600 526 598 527 q 605 524 602 525 q 612 524 608 524 q 620 524 615 524 l 620 500 l 509 500 l 509 524 q 529 526 523 524 q 537 533 535 528 q 539 550 539 539 l 539 789 q 536 808 539 802 q 527 815 534 814 q 509 817 521 817 l 509 841 l 619 841 l 619 817 q 596 813 602 817 q 589 797 590 810 l 589 702 l 713 702 l 713 789 q 708 812 713 806 q 684 817 703 817 l 684 841 l 793 841 l 793 817 q 770 813 775 817 q 764 797 765 810 l 764 553 q 769 528 764 533 q 794 524 775 524 l 794 500 m 935 500 q 888 509 910 500 q 834 553 856 522 q 813 632 813 585 q 849 729 813 694 q 932 764 884 764 q 1016 729 985 764 q 1046 640 1046 694 l 865 640 q 873 590 865 615 q 899 549 881 566 q 947 532 917 532 q 1021 590 996 531 l 1043 581 q 999 522 1029 545 q 935 500 968 500 m 996 663 q 992 690 995 675 q 973 727 987 714 q 932 740 958 740 q 885 722 902 740 q 865 663 867 703 l 996 663 m 1185 500 l 1075 500 l 1075 524 q 1094 526 1088 524 q 1102 534 1100 528 q 1105 553 1105 540 l 1105 691 q 1102 710 1105 704 q 1094 718 1100 716 q 1075 720 1088 720 l 1075 742 l 1155 766 l 1155 553 q 1157 534 1155 540 q 1166 526 1160 528 q 1185 524 1173 524 l 1185 500 m 1127 781 q 1106 790 1116 781 q 1097 810 1097 799 q 1106 831 1097 823 q 1127 840 1116 840 q 1148 831 1139 840 q 1157 810 1157 823 q 1148 790 1157 799 q 1127 781 1139 781 m 1472 500 l 1361 500 l 1361 524 q 1386 529 1380 524 q 1391 553 1392 534 l 1391 706 q 1381 730 1391 721 q 1356 740 1371 740 q 1315 726 1332 740 q 1295 692 1298 713 l 1295 553 q 1301 529 1295 534 q 1326 524 1307 524 l 1326 500 l 1215 500 l 1215 524 q 1234 526 1228 524 q 1243 534 1240 528 q 1245 553 1245 540 l 1245 691 q 1240 715 1245 710 q 1215 720 1234 720 l 1215 742 l 1295 766 l 1295 744 q 1315 756 1299 748 q 1353 764 1332 764 q 1392 758 1376 763 q 1417 743 1407 752 q 1433 724 1428 734 q 1440 703 1438 713 q 1442 683 1442 692 l 1442 550 q 1452 527 1442 530 q 1472 524 1461 524 l 1472 500 m 1684 500 l 1501 500 l 1632 740 q 1559 726 1584 740 q 1528 669 1535 712 l 1504 669 l 1520 764 l 1702 764 l 1572 524 q 1645 538 1620 524 q 1676 595 1669 553 l 1699 595 l 1684 500 m 1854 500 q 1807 509 1829 500 q 1753 553 1774 522 q 1732 632 1732 585 q 1768 729 1732 694 q 1851 764 1803 764 q 1934 729 1904 764 q 1965 640 1965 694 l 1784 640 q 1792 590 1784 615 q 1818 549 1800 566 q 1866 532 1836 532 q 1940 590 1914 531 l 1961 581 q 1918 522 1948 544 q 1854 500 1887 500 m 1914 663 q 1911 690 1914 675 q 1892 727 1906 714 q 1851 740 1877 740 q 1804 722 1821 740 q 1784 663 1786 703 l 1914 663 m 2097 500 l 1986 500 l 1986 524 q 2002 525 1996 524 q 2010 529 2007 526 q 2015 537 2013 532 q 2016 553 2016 543 l 2016 793 q 2014 813 2016 806 q 2005 821 2011 819 q 1986 823 1999 823 l 1986 845 l 2066 869 l 2066 553 q 2069 534 2066 540 q 2078 526 2071 528 q 2097 524 2084 524 l 2097 500 m 635 61 q 575 70 603 61 q 530 87 547 78 q 509 100 512 96 l 522 198 l 545 198 q 557 130 545 154 q 590 95 569 105 q 636 85 610 85 q 689 99 673 85 q 705 136 705 113 q 685 179 705 163 q 637 207 665 195 q 581 232 609 219 q 533 266 553 245 q 514 319 514 286 q 530 366 514 348 q 570 393 546 384 q 618 401 593 401 q 663 396 642 401 q 700 384 684 391 q 726 370 715 377 q 739 360 736 363 l 726 269 l 703 269 q 679 352 703 328 q 618 377 655 377 q 571 367 590 377 q 553 335 553 357 q 572 299 553 313 q 621 274 592 286 q 679 248 650 262 q 727 211 707 233 q 747 152 747 189 q 716 86 747 111 q 635 61 686 61 m 871 60 q 824 82 838 60 q 810 143 810 104 l 810 300 l 775 300 l 775 324 q 836 404 836 323 l 861 404 l 861 325 l 925 325 l 925 300 l 861 300 l 861 154 q 864 108 861 123 q 887 93 867 93 q 912 106 903 94 q 930 142 922 118 l 954 137 q 937 99 947 117 q 911 71 927 82 q 871 60 895 60 m 1217 61 l 1137 61 l 1137 81 q 1115 68 1133 76 q 1075 61 1097 61 q 1018 82 1042 61 q 990 134 993 103 l 990 252 q 985 276 990 271 q 960 281 979 281 l 960 302 l 1040 327 l 1040 119 q 1050 95 1040 104 q 1075 85 1060 85 q 1117 99 1100 85 q 1137 134 1134 113 l 1137 252 q 1131 276 1137 271 q 1106 281 1125 281 l 1106 302 l 1187 327 l 1187 113 q 1192 89 1187 94 q 1217 84 1198 84 l 1217 61 m 1501 60 l 1421 60 l 1421 83 q 1394 67 1413 75 q 1354 60 1375 60 q 1272 100 1306 60 q 1238 193 1238 139 q 1272 286 1238 246 q 1354 325 1306 325 q 1382 321 1369 325 q 1405 313 1395 318 q 1421 302 1415 308 l 1421 354 q 1419 373 1421 367 q 1410 381 1417 379 q 1391 383 1404 383 l 1391 405 l 1472 429 l 1472 113 q 1474 94 1472 100 q 1482 86 1476 88 q 1501 84 1489 84 l 1501 60 m 1354 85 q 1407 116 1392 85 q 1421 193 1421 146 q 1407 270 1421 239 q 1354 300 1392 300 q 1306 267 1322 298 q 1290 195 1290 235 q 1306 119 1290 153 q 1354 85 1322 85 m 1642 61 l 1531 61 l 1531 84 q 1550 86 1544 84 q 1559 94 1556 88 q 1561 113 1561 100 l 1561 252 q 1559 271 1561 264 q 1550 279 1556 277 q 1531 281 1544 281 l 1531 302 l 1612 326 l 1612 113 q 1614 94 1612 100 q 1623 86 1616 88 q 1642 84 1629 84 l 1642 61 m 1584 341 q 1563 350 1572 341 q 1554 371 1554 359 q 1563 392 1554 383 q 1584 401 1572 401 q 1605 392 1596 401 q 1613 371 1613 383 q 1605 350 1613 359 q 1584 341 1596 341 m 1796 61 q 1703 100 1742 61 q 1664 193 1664 139 q 1703 286 1664 247 q 1796 325 1742 325 q 1889 286 1850 325 q 1928 193 1928 247 q 1889 100 1928 139 q 1796 61 1850 61 m 1796 85 q 1859 116 1841 85 q 1876 193 1876 146 q 1859 270 1876 239 q 1796 300 1841 300 q 1734 270 1752 300 q 1716 193 1716 239 q 1734 116 1716 146 q 1796 85 1752 85 z "},"Á":{"ha":2195,"x_min":50,"x_max":2097,"o":"m 306 148 l 152 148 l 152 159 q 174 207 152 191 q 229 222 197 222 q 283 207 261 222 q 306 159 306 191 l 306 148 m 395 4 l 50 4 l 50 906 l 395 906 l 395 4 m 229 625 q 292 651 266 625 q 319 715 319 677 q 293 778 319 751 q 229 804 267 804 q 165 778 193 804 q 139 715 139 750 q 166 651 139 677 q 229 625 193 625 m 319 106 l 319 159 q 292 222 319 196 q 229 249 266 249 q 165 223 191 249 q 139 159 139 197 l 139 106 l 151 106 q 152 116 151 113 q 156 120 153 119 q 166 121 159 121 l 292 121 q 301 120 298 121 q 306 116 304 119 q 307 106 307 113 l 319 106 m 319 260 l 319 387 l 248 401 l 248 389 q 275 381 262 387 q 297 366 288 376 q 306 338 306 356 l 306 302 l 218 302 l 218 318 q 228 332 218 332 l 237 330 l 237 342 l 190 353 l 190 340 q 205 319 205 334 l 205 302 l 152 302 l 152 333 q 189 379 152 374 l 189 391 l 139 383 l 139 260 l 152 260 q 154 272 152 269 q 166 275 157 275 l 292 275 q 304 272 301 275 q 307 260 307 269 l 319 260 m 319 414 l 319 459 l 307 459 q 305 448 307 452 q 300 444 304 445 q 289 443 297 443 l 187 443 l 319 500 l 319 512 l 182 572 l 291 572 q 304 569 301 572 q 307 556 307 566 l 319 556 l 319 614 l 307 614 q 306 607 307 610 q 304 602 305 604 q 299 600 302 600 q 291 599 296 599 l 167 599 q 154 602 157 599 q 151 614 151 604 l 139 614 l 139 577 l 283 514 q 224 486 233 488 q 139 451 214 484 l 139 414 l 151 414 q 154 428 151 425 q 169 431 157 431 l 289 431 q 300 429 297 431 q 305 425 304 428 q 307 414 307 421 l 319 414 m 229 652 q 174 667 196 652 q 152 715 152 683 q 174 762 152 746 q 229 777 196 777 q 283 762 261 777 q 306 715 306 746 q 283 667 306 683 q 229 652 261 652 m 794 500 l 684 500 l 684 524 q 699 525 693 524 q 708 528 705 526 q 712 536 711 531 q 713 550 713 541 l 713 678 l 589 678 l 589 581 q 591 544 589 551 q 591 537 591 540 q 593 532 592 534 q 596 528 595 530 q 600 526 598 527 q 605 524 602 525 q 612 524 608 524 q 620 524 615 524 l 620 500 l 509 500 l 509 524 q 529 526 523 524 q 537 533 535 528 q 539 550 539 539 l 539 789 q 536 808 539 802 q 527 815 534 814 q 509 817 521 817 l 509 841 l 619 841 l 619 817 q 596 813 602 817 q 589 797 590 810 l 589 702 l 713 702 l 713 789 q 708 812 713 806 q 684 817 703 817 l 684 841 l 793 841 l 793 817 q 770 813 775 817 q 764 797 765 810 l 764 553 q 769 528 764 533 q 794 524 775 524 l 794 500 m 935 500 q 888 509 910 500 q 834 553 856 522 q 813 632 813 585 q 849 729 813 694 q 932 764 884 764 q 1016 729 985 764 q 1046 640 1046 694 l 865 640 q 873 590 865 615 q 899 549 881 566 q 947 532 917 532 q 1021 590 996 531 l 1043 581 q 999 522 1029 545 q 935 500 968 500 m 996 663 q 992 690 995 675 q 973 727 987 714 q 932 740 958 740 q 885 722 902 740 q 865 663 867 703 l 996 663 m 1185 500 l 1075 500 l 1075 524 q 1094 526 1088 524 q 1102 534 1100 528 q 1105 553 1105 540 l 1105 691 q 1102 710 1105 704 q 1094 718 1100 716 q 1075 720 1088 720 l 1075 742 l 1155 766 l 1155 553 q 1157 534 1155 540 q 1166 526 1160 528 q 1185 524 1173 524 l 1185 500 m 1127 781 q 1106 790 1116 781 q 1097 810 1097 799 q 1106 831 1097 823 q 1127 840 1116 840 q 1148 831 1139 840 q 1157 810 1157 823 q 1148 790 1157 799 q 1127 781 1139 781 m 1472 500 l 1361 500 l 1361 524 q 1386 529 1380 524 q 1391 553 1392 534 l 1391 706 q 1381 730 1391 721 q 1356 740 1371 740 q 1315 726 1332 740 q 1295 692 1298 713 l 1295 553 q 1301 529 1295 534 q 1326 524 1307 524 l 1326 500 l 1215 500 l 1215 524 q 1234 526 1228 524 q 1243 534 1240 528 q 1245 553 1245 540 l 1245 691 q 1240 715 1245 710 q 1215 720 1234 720 l 1215 742 l 1295 766 l 1295 744 q 1315 756 1299 748 q 1353 764 1332 764 q 1392 758 1376 763 q 1417 743 1407 752 q 1433 724 1428 734 q 1440 703 1438 713 q 1442 683 1442 692 l 1442 550 q 1452 527 1442 530 q 1472 524 1461 524 l 1472 500 m 1684 500 l 1501 500 l 1632 740 q 1559 726 1584 740 q 1528 669 1535 712 l 1504 669 l 1520 764 l 1702 764 l 1572 524 q 1645 538 1620 524 q 1676 595 1669 553 l 1699 595 l 1684 500 m 1854 500 q 1807 509 1829 500 q 1753 553 1774 522 q 1732 632 1732 585 q 1768 729 1732 694 q 1851 764 1803 764 q 1934 729 1904 764 q 1965 640 1965 694 l 1784 640 q 1792 590 1784 615 q 1818 549 1800 566 q 1866 532 1836 532 q 1940 590 1914 531 l 1961 581 q 1918 522 1948 544 q 1854 500 1887 500 m 1914 663 q 1911 690 1914 675 q 1892 727 1906 714 q 1851 740 1877 740 q 1804 722 1821 740 q 1784 663 1786 703 l 1914 663 m 2097 500 l 1986 500 l 1986 524 q 2002 525 1996 524 q 2010 529 2007 526 q 2015 537 2013 532 q 2016 553 2016 543 l 2016 793 q 2014 813 2016 806 q 2005 821 2011 819 q 1986 823 1999 823 l 1986 845 l 2066 869 l 2066 553 q 2069 534 2066 540 q 2078 526 2071 528 q 2097 524 2084 524 l 2097 500 m 635 61 q 575 70 603 61 q 530 87 547 78 q 509 100 512 96 l 522 198 l 545 198 q 557 130 545 154 q 590 95 569 105 q 636 85 610 85 q 689 99 673 85 q 705 136 705 113 q 685 179 705 163 q 637 207 665 195 q 581 232 609 219 q 533 266 553 245 q 514 319 514 286 q 530 366 514 348 q 570 393 546 384 q 618 401 593 401 q 663 396 642 401 q 700 384 684 391 q 726 370 715 377 q 739 360 736 363 l 726 269 l 703 269 q 679 352 703 328 q 618 377 655 377 q 571 367 590 377 q 553 335 553 357 q 572 299 553 313 q 621 274 592 286 q 679 248 650 262 q 727 211 707 233 q 747 152 747 189 q 716 86 747 111 q 635 61 686 61 m 871 60 q 824 82 838 60 q 810 143 810 104 l 810 300 l 775 300 l 775 324 q 836 404 836 323 l 861 404 l 861 325 l 925 325 l 925 300 l 861 300 l 861 154 q 864 108 861 123 q 887 93 867 93 q 912 106 903 94 q 930 142 922 118 l 954 137 q 937 99 947 117 q 911 71 927 82 q 871 60 895 60 m 1217 61 l 1137 61 l 1137 81 q 1115 68 1133 76 q 1075 61 1097 61 q 1018 82 1042 61 q 990 134 993 103 l 990 252 q 985 276 990 271 q 960 281 979 281 l 960 302 l 1040 327 l 1040 119 q 1050 95 1040 104 q 1075 85 1060 85 q 1117 99 1100 85 q 1137 134 1134 113 l 1137 252 q 1131 276 1137 271 q 1106 281 1125 281 l 1106 302 l 1187 327 l 1187 113 q 1192 89 1187 94 q 1217 84 1198 84 l 1217 61 m 1501 60 l 1421 60 l 1421 83 q 1394 67 1413 75 q 1354 60 1375 60 q 1272 100 1306 60 q 1238 193 1238 139 q 1272 286 1238 246 q 1354 325 1306 325 q 1382 321 1369 325 q 1405 313 1395 318 q 1421 302 1415 308 l 1421 354 q 1419 373 1421 367 q 1410 381 1417 379 q 1391 383 1404 383 l 1391 405 l 1472 429 l 1472 113 q 1474 94 1472 100 q 1482 86 1476 88 q 1501 84 1489 84 l 1501 60 m 1354 85 q 1407 116 1392 85 q 1421 193 1421 146 q 1407 270 1421 239 q 1354 300 1392 300 q 1306 267 1322 298 q 1290 195 1290 235 q 1306 119 1290 153 q 1354 85 1322 85 m 1642 61 l 1531 61 l 1531 84 q 1550 86 1544 84 q 1559 94 1556 88 q 1561 113 1561 100 l 1561 252 q 1559 271 1561 264 q 1550 279 1556 277 q 1531 281 1544 281 l 1531 302 l 1612 326 l 1612 113 q 1614 94 1612 100 q 1623 86 1616 88 q 1642 84 1629 84 l 1642 61 m 1584 341 q 1563 350 1572 341 q 1554 371 1554 359 q 1563 392 1554 383 q 1584 401 1572 401 q 1605 392 1596 401 q 1613 371 1613 383 q 1605 350 1613 359 q 1584 341 1596 341 m 1796 61 q 1703 100 1742 61 q 1664 193 1664 139 q 1703 286 1664 247 q 1796 325 1742 325 q 1889 286 1850 325 q 1928 193 1928 247 q 1889 100 1928 139 q 1796 61 1850 61 m 1796 85 q 1859 116 1841 85 q 1876 193 1876 146 q 1859 270 1876 239 q 1796 300 1841 300 q 1734 270 1752 300 q 1716 193 1716 239 q 1734 116 1716 146 q 1796 85 1752 85 z "},"Â":{"ha":2195,"x_min":50,"x_max":2097,"o":"m 306 148 l 152 148 l 152 159 q 174 207 152 191 q 229 222 197 222 q 283 207 261 222 q 306 159 306 191 l 306 148 m 395 4 l 50 4 l 50 906 l 395 906 l 395 4 m 229 625 q 292 651 266 625 q 319 715 319 677 q 293 778 319 751 q 229 804 267 804 q 165 778 193 804 q 139 715 139 750 q 166 651 139 677 q 229 625 193 625 m 319 106 l 319 159 q 292 222 319 196 q 229 249 266 249 q 165 223 191 249 q 139 159 139 197 l 139 106 l 151 106 q 152 116 151 113 q 156 120 153 119 q 166 121 159 121 l 292 121 q 301 120 298 121 q 306 116 304 119 q 307 106 307 113 l 319 106 m 319 260 l 319 387 l 248 401 l 248 389 q 275 381 262 387 q 297 366 288 376 q 306 338 306 356 l 306 302 l 218 302 l 218 318 q 228 332 218 332 l 237 330 l 237 342 l 190 353 l 190 340 q 205 319 205 334 l 205 302 l 152 302 l 152 333 q 189 379 152 374 l 189 391 l 139 383 l 139 260 l 152 260 q 154 272 152 269 q 166 275 157 275 l 292 275 q 304 272 301 275 q 307 260 307 269 l 319 260 m 319 414 l 319 459 l 307 459 q 305 448 307 452 q 300 444 304 445 q 289 443 297 443 l 187 443 l 319 500 l 319 512 l 182 572 l 291 572 q 304 569 301 572 q 307 556 307 566 l 319 556 l 319 614 l 307 614 q 306 607 307 610 q 304 602 305 604 q 299 600 302 600 q 291 599 296 599 l 167 599 q 154 602 157 599 q 151 614 151 604 l 139 614 l 139 577 l 283 514 q 224 486 233 488 q 139 451 214 484 l 139 414 l 151 414 q 154 428 151 425 q 169 431 157 431 l 289 431 q 300 429 297 431 q 305 425 304 428 q 307 414 307 421 l 319 414 m 229 652 q 174 667 196 652 q 152 715 152 683 q 174 762 152 746 q 229 777 196 777 q 283 762 261 777 q 306 715 306 746 q 283 667 306 683 q 229 652 261 652 m 794 500 l 684 500 l 684 524 q 699 525 693 524 q 708 528 705 526 q 712 536 711 531 q 713 550 713 541 l 713 678 l 589 678 l 589 581 q 591 544 589 551 q 591 537 591 540 q 593 532 592 534 q 596 528 595 530 q 600 526 598 527 q 605 524 602 525 q 612 524 608 524 q 620 524 615 524 l 620 500 l 509 500 l 509 524 q 529 526 523 524 q 537 533 535 528 q 539 550 539 539 l 539 789 q 536 808 539 802 q 527 815 534 814 q 509 817 521 817 l 509 841 l 619 841 l 619 817 q 596 813 602 817 q 589 797 590 810 l 589 702 l 713 702 l 713 789 q 708 812 713 806 q 684 817 703 817 l 684 841 l 793 841 l 793 817 q 770 813 775 817 q 764 797 765 810 l 764 553 q 769 528 764 533 q 794 524 775 524 l 794 500 m 935 500 q 888 509 910 500 q 834 553 856 522 q 813 632 813 585 q 849 729 813 694 q 932 764 884 764 q 1016 729 985 764 q 1046 640 1046 694 l 865 640 q 873 590 865 615 q 899 549 881 566 q 947 532 917 532 q 1021 590 996 531 l 1043 581 q 999 522 1029 545 q 935 500 968 500 m 996 663 q 992 690 995 675 q 973 727 987 714 q 932 740 958 740 q 885 722 902 740 q 865 663 867 703 l 996 663 m 1185 500 l 1075 500 l 1075 524 q 1094 526 1088 524 q 1102 534 1100 528 q 1105 553 1105 540 l 1105 691 q 1102 710 1105 704 q 1094 718 1100 716 q 1075 720 1088 720 l 1075 742 l 1155 766 l 1155 553 q 1157 534 1155 540 q 1166 526 1160 528 q 1185 524 1173 524 l 1185 500 m 1127 781 q 1106 790 1116 781 q 1097 810 1097 799 q 1106 831 1097 823 q 1127 840 1116 840 q 1148 831 1139 840 q 1157 810 1157 823 q 1148 790 1157 799 q 1127 781 1139 781 m 1472 500 l 1361 500 l 1361 524 q 1386 529 1380 524 q 1391 553 1392 534 l 1391 706 q 1381 730 1391 721 q 1356 740 1371 740 q 1315 726 1332 740 q 1295 692 1298 713 l 1295 553 q 1301 529 1295 534 q 1326 524 1307 524 l 1326 500 l 1215 500 l 1215 524 q 1234 526 1228 524 q 1243 534 1240 528 q 1245 553 1245 540 l 1245 691 q 1240 715 1245 710 q 1215 720 1234 720 l 1215 742 l 1295 766 l 1295 744 q 1315 756 1299 748 q 1353 764 1332 764 q 1392 758 1376 763 q 1417 743 1407 752 q 1433 724 1428 734 q 1440 703 1438 713 q 1442 683 1442 692 l 1442 550 q 1452 527 1442 530 q 1472 524 1461 524 l 1472 500 m 1684 500 l 1501 500 l 1632 740 q 1559 726 1584 740 q 1528 669 1535 712 l 1504 669 l 1520 764 l 1702 764 l 1572 524 q 1645 538 1620 524 q 1676 595 1669 553 l 1699 595 l 1684 500 m 1854 500 q 1807 509 1829 500 q 1753 553 1774 522 q 1732 632 1732 585 q 1768 729 1732 694 q 1851 764 1803 764 q 1934 729 1904 764 q 1965 640 1965 694 l 1784 640 q 1792 590 1784 615 q 1818 549 1800 566 q 1866 532 1836 532 q 1940 590 1914 531 l 1961 581 q 1918 522 1948 544 q 1854 500 1887 500 m 1914 663 q 1911 690 1914 675 q 1892 727 1906 714 q 1851 740 1877 740 q 1804 722 1821 740 q 1784 663 1786 703 l 1914 663 m 2097 500 l 1986 500 l 1986 524 q 2002 525 1996 524 q 2010 529 2007 526 q 2015 537 2013 532 q 2016 553 2016 543 l 2016 793 q 2014 813 2016 806 q 2005 821 2011 819 q 1986 823 1999 823 l 1986 845 l 2066 869 l 2066 553 q 2069 534 2066 540 q 2078 526 2071 528 q 2097 524 2084 524 l 2097 500 m 635 61 q 575 70 603 61 q 530 87 547 78 q 509 100 512 96 l 522 198 l 545 198 q 557 130 545 154 q 590 95 569 105 q 636 85 610 85 q 689 99 673 85 q 705 136 705 113 q 685 179 705 163 q 637 207 665 195 q 581 232 609 219 q 533 266 553 245 q 514 319 514 286 q 530 366 514 348 q 570 393 546 384 q 618 401 593 401 q 663 396 642 401 q 700 384 684 391 q 726 370 715 377 q 739 360 736 363 l 726 269 l 703 269 q 679 352 703 328 q 618 377 655 377 q 571 367 590 377 q 553 335 553 357 q 572 299 553 313 q 621 274 592 286 q 679 248 650 262 q 727 211 707 233 q 747 152 747 189 q 716 86 747 111 q 635 61 686 61 m 871 60 q 824 82 838 60 q 810 143 810 104 l 810 300 l 775 300 l 775 324 q 836 404 836 323 l 861 404 l 861 325 l 925 325 l 925 300 l 861 300 l 861 154 q 864 108 861 123 q 887 93 867 93 q 912 106 903 94 q 930 142 922 118 l 954 137 q 937 99 947 117 q 911 71 927 82 q 871 60 895 60 m 1217 61 l 1137 61 l 1137 81 q 1115 68 1133 76 q 1075 61 1097 61 q 1018 82 1042 61 q 990 134 993 103 l 990 252 q 985 276 990 271 q 960 281 979 281 l 960 302 l 1040 327 l 1040 119 q 1050 95 1040 104 q 1075 85 1060 85 q 1117 99 1100 85 q 1137 134 1134 113 l 1137 252 q 1131 276 1137 271 q 1106 281 1125 281 l 1106 302 l 1187 327 l 1187 113 q 1192 89 1187 94 q 1217 84 1198 84 l 1217 61 m 1501 60 l 1421 60 l 1421 83 q 1394 67 1413 75 q 1354 60 1375 60 q 1272 100 1306 60 q 1238 193 1238 139 q 1272 286 1238 246 q 1354 325 1306 325 q 1382 321 1369 325 q 1405 313 1395 318 q 1421 302 1415 308 l 1421 354 q 1419 373 1421 367 q 1410 381 1417 379 q 1391 383 1404 383 l 1391 405 l 1472 429 l 1472 113 q 1474 94 1472 100 q 1482 86 1476 88 q 1501 84 1489 84 l 1501 60 m 1354 85 q 1407 116 1392 85 q 1421 193 1421 146 q 1407 270 1421 239 q 1354 300 1392 300 q 1306 267 1322 298 q 1290 195 1290 235 q 1306 119 1290 153 q 1354 85 1322 85 m 1642 61 l 1531 61 l 1531 84 q 1550 86 1544 84 q 1559 94 1556 88 q 1561 113 1561 100 l 1561 252 q 1559 271 1561 264 q 1550 279 1556 277 q 1531 281 1544 281 l 1531 302 l 1612 326 l 1612 113 q 1614 94 1612 100 q 1623 86 1616 88 q 1642 84 1629 84 l 1642 61 m 1584 341 q 1563 350 1572 341 q 1554 371 1554 359 q 1563 392 1554 383 q 1584 401 1572 401 q 1605 392 1596 401 q 1613 371 1613 383 q 1605 350 1613 359 q 1584 341 1596 341 m 1796 61 q 1703 100 1742 61 q 1664 193 1664 139 q 1703 286 1664 247 q 1796 325 1742 325 q 1889 286 1850 325 q 1928 193 1928 247 q 1889 100 1928 139 q 1796 61 1850 61 m 1796 85 q 1859 116 1841 85 q 1876 193 1876 146 q 1859 270 1876 239 q 1796 300 1841 300 q 1734 270 1752 300 q 1716 193 1716 239 q 1734 116 1716 146 q 1796 85 1752 85 z "},"Ã":{"ha":2195,"x_min":50,"x_max":2097,"o":"m 306 148 l 152 148 l 152 159 q 174 207 152 191 q 229 222 197 222 q 283 207 261 222 q 306 159 306 191 l 306 148 m 395 4 l 50 4 l 50 906 l 395 906 l 395 4 m 229 625 q 292 651 266 625 q 319 715 319 677 q 293 778 319 751 q 229 804 267 804 q 165 778 193 804 q 139 715 139 750 q 166 651 139 677 q 229 625 193 625 m 319 106 l 319 159 q 292 222 319 196 q 229 249 266 249 q 165 223 191 249 q 139 159 139 197 l 139 106 l 151 106 q 152 116 151 113 q 156 120 153 119 q 166 121 159 121 l 292 121 q 301 120 298 121 q 306 116 304 119 q 307 106 307 113 l 319 106 m 319 260 l 319 387 l 248 401 l 248 389 q 275 381 262 387 q 297 366 288 376 q 306 338 306 356 l 306 302 l 218 302 l 218 318 q 228 332 218 332 l 237 330 l 237 342 l 190 353 l 190 340 q 205 319 205 334 l 205 302 l 152 302 l 152 333 q 189 379 152 374 l 189 391 l 139 383 l 139 260 l 152 260 q 154 272 152 269 q 166 275 157 275 l 292 275 q 304 272 301 275 q 307 260 307 269 l 319 260 m 319 414 l 319 459 l 307 459 q 305 448 307 452 q 300 444 304 445 q 289 443 297 443 l 187 443 l 319 500 l 319 512 l 182 572 l 291 572 q 304 569 301 572 q 307 556 307 566 l 319 556 l 319 614 l 307 614 q 306 607 307 610 q 304 602 305 604 q 299 600 302 600 q 291 599 296 599 l 167 599 q 154 602 157 599 q 151 614 151 604 l 139 614 l 139 577 l 283 514 q 224 486 233 488 q 139 451 214 484 l 139 414 l 151 414 q 154 428 151 425 q 169 431 157 431 l 289 431 q 300 429 297 431 q 305 425 304 428 q 307 414 307 421 l 319 414 m 229 652 q 174 667 196 652 q 152 715 152 683 q 174 762 152 746 q 229 777 196 777 q 283 762 261 777 q 306 715 306 746 q 283 667 306 683 q 229 652 261 652 m 794 500 l 684 500 l 684 524 q 699 525 693 524 q 708 528 705 526 q 712 536 711 531 q 713 550 713 541 l 713 678 l 589 678 l 589 581 q 591 544 589 551 q 591 537 591 540 q 593 532 592 534 q 596 528 595 530 q 600 526 598 527 q 605 524 602 525 q 612 524 608 524 q 620 524 615 524 l 620 500 l 509 500 l 509 524 q 529 526 523 524 q 537 533 535 528 q 539 550 539 539 l 539 789 q 536 808 539 802 q 527 815 534 814 q 509 817 521 817 l 509 841 l 619 841 l 619 817 q 596 813 602 817 q 589 797 590 810 l 589 702 l 713 702 l 713 789 q 708 812 713 806 q 684 817 703 817 l 684 841 l 793 841 l 793 817 q 770 813 775 817 q 764 797 765 810 l 764 553 q 769 528 764 533 q 794 524 775 524 l 794 500 m 935 500 q 888 509 910 500 q 834 553 856 522 q 813 632 813 585 q 849 729 813 694 q 932 764 884 764 q 1016 729 985 764 q 1046 640 1046 694 l 865 640 q 873 590 865 615 q 899 549 881 566 q 947 532 917 532 q 1021 590 996 531 l 1043 581 q 999 522 1029 545 q 935 500 968 500 m 996 663 q 992 690 995 675 q 973 727 987 714 q 932 740 958 740 q 885 722 902 740 q 865 663 867 703 l 996 663 m 1185 500 l 1075 500 l 1075 524 q 1094 526 1088 524 q 1102 534 1100 528 q 1105 553 1105 540 l 1105 691 q 1102 710 1105 704 q 1094 718 1100 716 q 1075 720 1088 720 l 1075 742 l 1155 766 l 1155 553 q 1157 534 1155 540 q 1166 526 1160 528 q 1185 524 1173 524 l 1185 500 m 1127 781 q 1106 790 1116 781 q 1097 810 1097 799 q 1106 831 1097 823 q 1127 840 1116 840 q 1148 831 1139 840 q 1157 810 1157 823 q 1148 790 1157 799 q 1127 781 1139 781 m 1472 500 l 1361 500 l 1361 524 q 1386 529 1380 524 q 1391 553 1392 534 l 1391 706 q 1381 730 1391 721 q 1356 740 1371 740 q 1315 726 1332 740 q 1295 692 1298 713 l 1295 553 q 1301 529 1295 534 q 1326 524 1307 524 l 1326 500 l 1215 500 l 1215 524 q 1234 526 1228 524 q 1243 534 1240 528 q 1245 553 1245 540 l 1245 691 q 1240 715 1245 710 q 1215 720 1234 720 l 1215 742 l 1295 766 l 1295 744 q 1315 756 1299 748 q 1353 764 1332 764 q 1392 758 1376 763 q 1417 743 1407 752 q 1433 724 1428 734 q 1440 703 1438 713 q 1442 683 1442 692 l 1442 550 q 1452 527 1442 530 q 1472 524 1461 524 l 1472 500 m 1684 500 l 1501 500 l 1632 740 q 1559 726 1584 740 q 1528 669 1535 712 l 1504 669 l 1520 764 l 1702 764 l 1572 524 q 1645 538 1620 524 q 1676 595 1669 553 l 1699 595 l 1684 500 m 1854 500 q 1807 509 1829 500 q 1753 553 1774 522 q 1732 632 1732 585 q 1768 729 1732 694 q 1851 764 1803 764 q 1934 729 1904 764 q 1965 640 1965 694 l 1784 640 q 1792 590 1784 615 q 1818 549 1800 566 q 1866 532 1836 532 q 1940 590 1914 531 l 1961 581 q 1918 522 1948 544 q 1854 500 1887 500 m 1914 663 q 1911 690 1914 675 q 1892 727 1906 714 q 1851 740 1877 740 q 1804 722 1821 740 q 1784 663 1786 703 l 1914 663 m 2097 500 l 1986 500 l 1986 524 q 2002 525 1996 524 q 2010 529 2007 526 q 2015 537 2013 532 q 2016 553 2016 543 l 2016 793 q 2014 813 2016 806 q 2005 821 2011 819 q 1986 823 1999 823 l 1986 845 l 2066 869 l 2066 553 q 2069 534 2066 540 q 2078 526 2071 528 q 2097 524 2084 524 l 2097 500 m 635 61 q 575 70 603 61 q 530 87 547 78 q 509 100 512 96 l 522 198 l 545 198 q 557 130 545 154 q 590 95 569 105 q 636 85 610 85 q 689 99 673 85 q 705 136 705 113 q 685 179 705 163 q 637 207 665 195 q 581 232 609 219 q 533 266 553 245 q 514 319 514 286 q 530 366 514 348 q 570 393 546 384 q 618 401 593 401 q 663 396 642 401 q 700 384 684 391 q 726 370 715 377 q 739 360 736 363 l 726 269 l 703 269 q 679 352 703 328 q 618 377 655 377 q 571 367 590 377 q 553 335 553 357 q 572 299 553 313 q 621 274 592 286 q 679 248 650 262 q 727 211 707 233 q 747 152 747 189 q 716 86 747 111 q 635 61 686 61 m 871 60 q 824 82 838 60 q 810 143 810 104 l 810 300 l 775 300 l 775 324 q 836 404 836 323 l 861 404 l 861 325 l 925 325 l 925 300 l 861 300 l 861 154 q 864 108 861 123 q 887 93 867 93 q 912 106 903 94 q 930 142 922 118 l 954 137 q 937 99 947 117 q 911 71 927 82 q 871 60 895 60 m 1217 61 l 1137 61 l 1137 81 q 1115 68 1133 76 q 1075 61 1097 61 q 1018 82 1042 61 q 990 134 993 103 l 990 252 q 985 276 990 271 q 960 281 979 281 l 960 302 l 1040 327 l 1040 119 q 1050 95 1040 104 q 1075 85 1060 85 q 1117 99 1100 85 q 1137 134 1134 113 l 1137 252 q 1131 276 1137 271 q 1106 281 1125 281 l 1106 302 l 1187 327 l 1187 113 q 1192 89 1187 94 q 1217 84 1198 84 l 1217 61 m 1501 60 l 1421 60 l 1421 83 q 1394 67 1413 75 q 1354 60 1375 60 q 1272 100 1306 60 q 1238 193 1238 139 q 1272 286 1238 246 q 1354 325 1306 325 q 1382 321 1369 325 q 1405 313 1395 318 q 1421 302 1415 308 l 1421 354 q 1419 373 1421 367 q 1410 381 1417 379 q 1391 383 1404 383 l 1391 405 l 1472 429 l 1472 113 q 1474 94 1472 100 q 1482 86 1476 88 q 1501 84 1489 84 l 1501 60 m 1354 85 q 1407 116 1392 85 q 1421 193 1421 146 q 1407 270 1421 239 q 1354 300 1392 300 q 1306 267 1322 298 q 1290 195 1290 235 q 1306 119 1290 153 q 1354 85 1322 85 m 1642 61 l 1531 61 l 1531 84 q 1550 86 1544 84 q 1559 94 1556 88 q 1561 113 1561 100 l 1561 252 q 1559 271 1561 264 q 1550 279 1556 277 q 1531 281 1544 281 l 1531 302 l 1612 326 l 1612 113 q 1614 94 1612 100 q 1623 86 1616 88 q 1642 84 1629 84 l 1642 61 m 1584 341 q 1563 350 1572 341 q 1554 371 1554 359 q 1563 392 1554 383 q 1584 401 1572 401 q 1605 392 1596 401 q 1613 371 1613 383 q 1605 350 1613 359 q 1584 341 1596 341 m 1796 61 q 1703 100 1742 61 q 1664 193 1664 139 q 1703 286 1664 247 q 1796 325 1742 325 q 1889 286 1850 325 q 1928 193 1928 247 q 1889 100 1928 139 q 1796 61 1850 61 m 1796 85 q 1859 116 1841 85 q 1876 193 1876 146 q 1859 270 1876 239 q 1796 300 1841 300 q 1734 270 1752 300 q 1716 193 1716 239 q 1734 116 1716 146 q 1796 85 1752 85 z "},"Ä":{"ha":2195,"x_min":50,"x_max":2097,"o":"m 306 148 l 152 148 l 152 159 q 174 207 152 191 q 229 222 197 222 q 283 207 261 222 q 306 159 306 191 l 306 148 m 395 4 l 50 4 l 50 906 l 395 906 l 395 4 m 229 625 q 292 651 266 625 q 319 715 319 677 q 293 778 319 751 q 229 804 267 804 q 165 778 193 804 q 139 715 139 750 q 166 651 139 677 q 229 625 193 625 m 319 106 l 319 159 q 292 222 319 196 q 229 249 266 249 q 165 223 191 249 q 139 159 139 197 l 139 106 l 151 106 q 152 116 151 113 q 156 120 153 119 q 166 121 159 121 l 292 121 q 301 120 298 121 q 306 116 304 119 q 307 106 307 113 l 319 106 m 319 260 l 319 387 l 248 401 l 248 389 q 275 381 262 387 q 297 366 288 376 q 306 338 306 356 l 306 302 l 218 302 l 218 318 q 228 332 218 332 l 237 330 l 237 342 l 190 353 l 190 340 q 205 319 205 334 l 205 302 l 152 302 l 152 333 q 189 379 152 374 l 189 391 l 139 383 l 139 260 l 152 260 q 154 272 152 269 q 166 275 157 275 l 292 275 q 304 272 301 275 q 307 260 307 269 l 319 260 m 319 414 l 319 459 l 307 459 q 305 448 307 452 q 300 444 304 445 q 289 443 297 443 l 187 443 l 319 500 l 319 512 l 182 572 l 291 572 q 304 569 301 572 q 307 556 307 566 l 319 556 l 319 614 l 307 614 q 306 607 307 610 q 304 602 305 604 q 299 600 302 600 q 291 599 296 599 l 167 599 q 154 602 157 599 q 151 614 151 604 l 139 614 l 139 577 l 283 514 q 224 486 233 488 q 139 451 214 484 l 139 414 l 151 414 q 154 428 151 425 q 169 431 157 431 l 289 431 q 300 429 297 431 q 305 425 304 428 q 307 414 307 421 l 319 414 m 229 652 q 174 667 196 652 q 152 715 152 683 q 174 762 152 746 q 229 777 196 777 q 283 762 261 777 q 306 715 306 746 q 283 667 306 683 q 229 652 261 652 m 794 500 l 684 500 l 684 524 q 699 525 693 524 q 708 528 705 526 q 712 536 711 531 q 713 550 713 541 l 713 678 l 589 678 l 589 581 q 591 544 589 551 q 591 537 591 540 q 593 532 592 534 q 596 528 595 530 q 600 526 598 527 q 605 524 602 525 q 612 524 608 524 q 620 524 615 524 l 620 500 l 509 500 l 509 524 q 529 526 523 524 q 537 533 535 528 q 539 550 539 539 l 539 789 q 536 808 539 802 q 527 815 534 814 q 509 817 521 817 l 509 841 l 619 841 l 619 817 q 596 813 602 817 q 589 797 590 810 l 589 702 l 713 702 l 713 789 q 708 812 713 806 q 684 817 703 817 l 684 841 l 793 841 l 793 817 q 770 813 775 817 q 764 797 765 810 l 764 553 q 769 528 764 533 q 794 524 775 524 l 794 500 m 935 500 q 888 509 910 500 q 834 553 856 522 q 813 632 813 585 q 849 729 813 694 q 932 764 884 764 q 1016 729 985 764 q 1046 640 1046 694 l 865 640 q 873 590 865 615 q 899 549 881 566 q 947 532 917 532 q 1021 590 996 531 l 1043 581 q 999 522 1029 545 q 935 500 968 500 m 996 663 q 992 690 995 675 q 973 727 987 714 q 932 740 958 740 q 885 722 902 740 q 865 663 867 703 l 996 663 m 1185 500 l 1075 500 l 1075 524 q 1094 526 1088 524 q 1102 534 1100 528 q 1105 553 1105 540 l 1105 691 q 1102 710 1105 704 q 1094 718 1100 716 q 1075 720 1088 720 l 1075 742 l 1155 766 l 1155 553 q 1157 534 1155 540 q 1166 526 1160 528 q 1185 524 1173 524 l 1185 500 m 1127 781 q 1106 790 1116 781 q 1097 810 1097 799 q 1106 831 1097 823 q 1127 840 1116 840 q 1148 831 1139 840 q 1157 810 1157 823 q 1148 790 1157 799 q 1127 781 1139 781 m 1472 500 l 1361 500 l 1361 524 q 1386 529 1380 524 q 1391 553 1392 534 l 1391 706 q 1381 730 1391 721 q 1356 740 1371 740 q 1315 726 1332 740 q 1295 692 1298 713 l 1295 553 q 1301 529 1295 534 q 1326 524 1307 524 l 1326 500 l 1215 500 l 1215 524 q 1234 526 1228 524 q 1243 534 1240 528 q 1245 553 1245 540 l 1245 691 q 1240 715 1245 710 q 1215 720 1234 720 l 1215 742 l 1295 766 l 1295 744 q 1315 756 1299 748 q 1353 764 1332 764 q 1392 758 1376 763 q 1417 743 1407 752 q 1433 724 1428 734 q 1440 703 1438 713 q 1442 683 1442 692 l 1442 550 q 1452 527 1442 530 q 1472 524 1461 524 l 1472 500 m 1684 500 l 1501 500 l 1632 740 q 1559 726 1584 740 q 1528 669 1535 712 l 1504 669 l 1520 764 l 1702 764 l 1572 524 q 1645 538 1620 524 q 1676 595 1669 553 l 1699 595 l 1684 500 m 1854 500 q 1807 509 1829 500 q 1753 553 1774 522 q 1732 632 1732 585 q 1768 729 1732 694 q 1851 764 1803 764 q 1934 729 1904 764 q 1965 640 1965 694 l 1784 640 q 1792 590 1784 615 q 1818 549 1800 566 q 1866 532 1836 532 q 1940 590 1914 531 l 1961 581 q 1918 522 1948 544 q 1854 500 1887 500 m 1914 663 q 1911 690 1914 675 q 1892 727 1906 714 q 1851 740 1877 740 q 1804 722 1821 740 q 1784 663 1786 703 l 1914 663 m 2097 500 l 1986 500 l 1986 524 q 2002 525 1996 524 q 2010 529 2007 526 q 2015 537 2013 532 q 2016 553 2016 543 l 2016 793 q 2014 813 2016 806 q 2005 821 2011 819 q 1986 823 1999 823 l 1986 845 l 2066 869 l 2066 553 q 2069 534 2066 540 q 2078 526 2071 528 q 2097 524 2084 524 l 2097 500 m 635 61 q 575 70 603 61 q 530 87 547 78 q 509 100 512 96 l 522 198 l 545 198 q 557 130 545 154 q 590 95 569 105 q 636 85 610 85 q 689 99 673 85 q 705 136 705 113 q 685 179 705 163 q 637 207 665 195 q 581 232 609 219 q 533 266 553 245 q 514 319 514 286 q 530 366 514 348 q 570 393 546 384 q 618 401 593 401 q 663 396 642 401 q 700 384 684 391 q 726 370 715 377 q 739 360 736 363 l 726 269 l 703 269 q 679 352 703 328 q 618 377 655 377 q 571 367 590 377 q 553 335 553 357 q 572 299 553 313 q 621 274 592 286 q 679 248 650 262 q 727 211 707 233 q 747 152 747 189 q 716 86 747 111 q 635 61 686 61 m 871 60 q 824 82 838 60 q 810 143 810 104 l 810 300 l 775 300 l 775 324 q 836 404 836 323 l 861 404 l 861 325 l 925 325 l 925 300 l 861 300 l 861 154 q 864 108 861 123 q 887 93 867 93 q 912 106 903 94 q 930 142 922 118 l 954 137 q 937 99 947 117 q 911 71 927 82 q 871 60 895 60 m 1217 61 l 1137 61 l 1137 81 q 1115 68 1133 76 q 1075 61 1097 61 q 1018 82 1042 61 q 990 134 993 103 l 990 252 q 985 276 990 271 q 960 281 979 281 l 960 302 l 1040 327 l 1040 119 q 1050 95 1040 104 q 1075 85 1060 85 q 1117 99 1100 85 q 1137 134 1134 113 l 1137 252 q 1131 276 1137 271 q 1106 281 1125 281 l 1106 302 l 1187 327 l 1187 113 q 1192 89 1187 94 q 1217 84 1198 84 l 1217 61 m 1501 60 l 1421 60 l 1421 83 q 1394 67 1413 75 q 1354 60 1375 60 q 1272 100 1306 60 q 1238 193 1238 139 q 1272 286 1238 246 q 1354 325 1306 325 q 1382 321 1369 325 q 1405 313 1395 318 q 1421 302 1415 308 l 1421 354 q 1419 373 1421 367 q 1410 381 1417 379 q 1391 383 1404 383 l 1391 405 l 1472 429 l 1472 113 q 1474 94 1472 100 q 1482 86 1476 88 q 1501 84 1489 84 l 1501 60 m 1354 85 q 1407 116 1392 85 q 1421 193 1421 146 q 1407 270 1421 239 q 1354 300 1392 300 q 1306 267 1322 298 q 1290 195 1290 235 q 1306 119 1290 153 q 1354 85 1322 85 m 1642 61 l 1531 61 l 1531 84 q 1550 86 1544 84 q 1559 94 1556 88 q 1561 113 1561 100 l 1561 252 q 1559 271 1561 264 q 1550 279 1556 277 q 1531 281 1544 281 l 1531 302 l 1612 326 l 1612 113 q 1614 94 1612 100 q 1623 86 1616 88 q 1642 84 1629 84 l 1642 61 m 1584 341 q 1563 350 1572 341 q 1554 371 1554 359 q 1563 392 1554 383 q 1584 401 1572 401 q 1605 392 1596 401 q 1613 371 1613 383 q 1605 350 1613 359 q 1584 341 1596 341 m 1796 61 q 1703 100 1742 61 q 1664 193 1664 139 q 1703 286 1664 247 q 1796 325 1742 325 q 1889 286 1850 325 q 1928 193 1928 247 q 1889 100 1928 139 q 1796 61 1850 61 m 1796 85 q 1859 116 1841 85 q 1876 193 1876 146 q 1859 270 1876 239 q 1796 300 1841 300 q 1734 270 1752 300 q 1716 193 1716 239 q 1734 116 1716 146 q 1796 85 1752 85 z "},"Å":{"ha":2195,"x_min":50,"x_max":2097,"o":"m 306 148 l 152 148 l 152 159 q 174 207 152 191 q 229 222 197 222 q 283 207 261 222 q 306 159 306 191 l 306 148 m 395 4 l 50 4 l 50 906 l 395 906 l 395 4 m 229 625 q 292 651 266 625 q 319 715 319 677 q 293 778 319 751 q 229 804 267 804 q 165 778 193 804 q 139 715 139 750 q 166 651 139 677 q 229 625 193 625 m 319 106 l 319 159 q 292 222 319 196 q 229 249 266 249 q 165 223 191 249 q 139 159 139 197 l 139 106 l 151 106 q 152 116 151 113 q 156 120 153 119 q 166 121 159 121 l 292 121 q 301 120 298 121 q 306 116 304 119 q 307 106 307 113 l 319 106 m 319 260 l 319 387 l 248 401 l 248 389 q 275 381 262 387 q 297 366 288 376 q 306 338 306 356 l 306 302 l 218 302 l 218 318 q 228 332 218 332 l 237 330 l 237 342 l 190 353 l 190 340 q 205 319 205 334 l 205 302 l 152 302 l 152 333 q 189 379 152 374 l 189 391 l 139 383 l 139 260 l 152 260 q 154 272 152 269 q 166 275 157 275 l 292 275 q 304 272 301 275 q 307 260 307 269 l 319 260 m 319 414 l 319 459 l 307 459 q 305 448 307 452 q 300 444 304 445 q 289 443 297 443 l 187 443 l 319 500 l 319 512 l 182 572 l 291 572 q 304 569 301 572 q 307 556 307 566 l 319 556 l 319 614 l 307 614 q 306 607 307 610 q 304 602 305 604 q 299 600 302 600 q 291 599 296 599 l 167 599 q 154 602 157 599 q 151 614 151 604 l 139 614 l 139 577 l 283 514 q 224 486 233 488 q 139 451 214 484 l 139 414 l 151 414 q 154 428 151 425 q 169 431 157 431 l 289 431 q 300 429 297 431 q 305 425 304 428 q 307 414 307 421 l 319 414 m 229 652 q 174 667 196 652 q 152 715 152 683 q 174 762 152 746 q 229 777 196 777 q 283 762 261 777 q 306 715 306 746 q 283 667 306 683 q 229 652 261 652 m 794 500 l 684 500 l 684 524 q 699 525 693 524 q 708 528 705 526 q 712 536 711 531 q 713 550 713 541 l 713 678 l 589 678 l 589 581 q 591 544 589 551 q 591 537 591 540 q 593 532 592 534 q 596 528 595 530 q 600 526 598 527 q 605 524 602 525 q 612 524 608 524 q 620 524 615 524 l 620 500 l 509 500 l 509 524 q 529 526 523 524 q 537 533 535 528 q 539 550 539 539 l 539 789 q 536 808 539 802 q 527 815 534 814 q 509 817 521 817 l 509 841 l 619 841 l 619 817 q 596 813 602 817 q 589 797 590 810 l 589 702 l 713 702 l 713 789 q 708 812 713 806 q 684 817 703 817 l 684 841 l 793 841 l 793 817 q 770 813 775 817 q 764 797 765 810 l 764 553 q 769 528 764 533 q 794 524 775 524 l 794 500 m 935 500 q 888 509 910 500 q 834 553 856 522 q 813 632 813 585 q 849 729 813 694 q 932 764 884 764 q 1016 729 985 764 q 1046 640 1046 694 l 865 640 q 873 590 865 615 q 899 549 881 566 q 947 532 917 532 q 1021 590 996 531 l 1043 581 q 999 522 1029 545 q 935 500 968 500 m 996 663 q 992 690 995 675 q 973 727 987 714 q 932 740 958 740 q 885 722 902 740 q 865 663 867 703 l 996 663 m 1185 500 l 1075 500 l 1075 524 q 1094 526 1088 524 q 1102 534 1100 528 q 1105 553 1105 540 l 1105 691 q 1102 710 1105 704 q 1094 718 1100 716 q 1075 720 1088 720 l 1075 742 l 1155 766 l 1155 553 q 1157 534 1155 540 q 1166 526 1160 528 q 1185 524 1173 524 l 1185 500 m 1127 781 q 1106 790 1116 781 q 1097 810 1097 799 q 1106 831 1097 823 q 1127 840 1116 840 q 1148 831 1139 840 q 1157 810 1157 823 q 1148 790 1157 799 q 1127 781 1139 781 m 1472 500 l 1361 500 l 1361 524 q 1386 529 1380 524 q 1391 553 1392 534 l 1391 706 q 1381 730 1391 721 q 1356 740 1371 740 q 1315 726 1332 740 q 1295 692 1298 713 l 1295 553 q 1301 529 1295 534 q 1326 524 1307 524 l 1326 500 l 1215 500 l 1215 524 q 1234 526 1228 524 q 1243 534 1240 528 q 1245 553 1245 540 l 1245 691 q 1240 715 1245 710 q 1215 720 1234 720 l 1215 742 l 1295 766 l 1295 744 q 1315 756 1299 748 q 1353 764 1332 764 q 1392 758 1376 763 q 1417 743 1407 752 q 1433 724 1428 734 q 1440 703 1438 713 q 1442 683 1442 692 l 1442 550 q 1452 527 1442 530 q 1472 524 1461 524 l 1472 500 m 1684 500 l 1501 500 l 1632 740 q 1559 726 1584 740 q 1528 669 1535 712 l 1504 669 l 1520 764 l 1702 764 l 1572 524 q 1645 538 1620 524 q 1676 595 1669 553 l 1699 595 l 1684 500 m 1854 500 q 1807 509 1829 500 q 1753 553 1774 522 q 1732 632 1732 585 q 1768 729 1732 694 q 1851 764 1803 764 q 1934 729 1904 764 q 1965 640 1965 694 l 1784 640 q 1792 590 1784 615 q 1818 549 1800 566 q 1866 532 1836 532 q 1940 590 1914 531 l 1961 581 q 1918 522 1948 544 q 1854 500 1887 500 m 1914 663 q 1911 690 1914 675 q 1892 727 1906 714 q 1851 740 1877 740 q 1804 722 1821 740 q 1784 663 1786 703 l 1914 663 m 2097 500 l 1986 500 l 1986 524 q 2002 525 1996 524 q 2010 529 2007 526 q 2015 537 2013 532 q 2016 553 2016 543 l 2016 793 q 2014 813 2016 806 q 2005 821 2011 819 q 1986 823 1999 823 l 1986 845 l 2066 869 l 2066 553 q 2069 534 2066 540 q 2078 526 2071 528 q 2097 524 2084 524 l 2097 500 m 635 61 q 575 70 603 61 q 530 87 547 78 q 509 100 512 96 l 522 198 l 545 198 q 557 130 545 154 q 590 95 569 105 q 636 85 610 85 q 689 99 673 85 q 705 136 705 113 q 685 179 705 163 q 637 207 665 195 q 581 232 609 219 q 533 266 553 245 q 514 319 514 286 q 530 366 514 348 q 570 393 546 384 q 618 401 593 401 q 663 396 642 401 q 700 384 684 391 q 726 370 715 377 q 739 360 736 363 l 726 269 l 703 269 q 679 352 703 328 q 618 377 655 377 q 571 367 590 377 q 553 335 553 357 q 572 299 553 313 q 621 274 592 286 q 679 248 650 262 q 727 211 707 233 q 747 152 747 189 q 716 86 747 111 q 635 61 686 61 m 871 60 q 824 82 838 60 q 810 143 810 104 l 810 300 l 775 300 l 775 324 q 836 404 836 323 l 861 404 l 861 325 l 925 325 l 925 300 l 861 300 l 861 154 q 864 108 861 123 q 887 93 867 93 q 912 106 903 94 q 930 142 922 118 l 954 137 q 937 99 947 117 q 911 71 927 82 q 871 60 895 60 m 1217 61 l 1137 61 l 1137 81 q 1115 68 1133 76 q 1075 61 1097 61 q 1018 82 1042 61 q 990 134 993 103 l 990 252 q 985 276 990 271 q 960 281 979 281 l 960 302 l 1040 327 l 1040 119 q 1050 95 1040 104 q 1075 85 1060 85 q 1117 99 1100 85 q 1137 134 1134 113 l 1137 252 q 1131 276 1137 271 q 1106 281 1125 281 l 1106 302 l 1187 327 l 1187 113 q 1192 89 1187 94 q 1217 84 1198 84 l 1217 61 m 1501 60 l 1421 60 l 1421 83 q 1394 67 1413 75 q 1354 60 1375 60 q 1272 100 1306 60 q 1238 193 1238 139 q 1272 286 1238 246 q 1354 325 1306 325 q 1382 321 1369 325 q 1405 313 1395 318 q 1421 302 1415 308 l 1421 354 q 1419 373 1421 367 q 1410 381 1417 379 q 1391 383 1404 383 l 1391 405 l 1472 429 l 1472 113 q 1474 94 1472 100 q 1482 86 1476 88 q 1501 84 1489 84 l 1501 60 m 1354 85 q 1407 116 1392 85 q 1421 193 1421 146 q 1407 270 1421 239 q 1354 300 1392 300 q 1306 267 1322 298 q 1290 195 1290 235 q 1306 119 1290 153 q 1354 85 1322 85 m 1642 61 l 1531 61 l 1531 84 q 1550 86 1544 84 q 1559 94 1556 88 q 1561 113 1561 100 l 1561 252 q 1559 271 1561 264 q 1550 279 1556 277 q 1531 281 1544 281 l 1531 302 l 1612 326 l 1612 113 q 1614 94 1612 100 q 1623 86 1616 88 q 1642 84 1629 84 l 1642 61 m 1584 341 q 1563 350 1572 341 q 1554 371 1554 359 q 1563 392 1554 383 q 1584 401 1572 401 q 1605 392 1596 401 q 1613 371 1613 383 q 1605 350 1613 359 q 1584 341 1596 341 m 1796 61 q 1703 100 1742 61 q 1664 193 1664 139 q 1703 286 1664 247 q 1796 325 1742 325 q 1889 286 1850 325 q 1928 193 1928 247 q 1889 100 1928 139 q 1796 61 1850 61 m 1796 85 q 1859 116 1841 85 q 1876 193 1876 146 q 1859 270 1876 239 q 1796 300 1841 300 q 1734 270 1752 300 q 1716 193 1716 239 q 1734 116 1716 146 q 1796 85 1752 85 z "},"Æ":{"ha":2195,"x_min":50,"x_max":2097,"o":"m 306 148 l 152 148 l 152 159 q 174 207 152 191 q 229 222 197 222 q 283 207 261 222 q 306 159 306 191 l 306 148 m 395 4 l 50 4 l 50 906 l 395 906 l 395 4 m 229 625 q 292 651 266 625 q 319 715 319 677 q 293 778 319 751 q 229 804 267 804 q 165 778 193 804 q 139 715 139 750 q 166 651 139 677 q 229 625 193 625 m 319 106 l 319 159 q 292 222 319 196 q 229 249 266 249 q 165 223 191 249 q 139 159 139 197 l 139 106 l 151 106 q 152 116 151 113 q 156 120 153 119 q 166 121 159 121 l 292 121 q 301 120 298 121 q 306 116 304 119 q 307 106 307 113 l 319 106 m 319 260 l 319 387 l 248 401 l 248 389 q 275 381 262 387 q 297 366 288 376 q 306 338 306 356 l 306 302 l 218 302 l 218 318 q 228 332 218 332 l 237 330 l 237 342 l 190 353 l 190 340 q 205 319 205 334 l 205 302 l 152 302 l 152 333 q 189 379 152 374 l 189 391 l 139 383 l 139 260 l 152 260 q 154 272 152 269 q 166 275 157 275 l 292 275 q 304 272 301 275 q 307 260 307 269 l 319 260 m 319 414 l 319 459 l 307 459 q 305 448 307 452 q 300 444 304 445 q 289 443 297 443 l 187 443 l 319 500 l 319 512 l 182 572 l 291 572 q 304 569 301 572 q 307 556 307 566 l 319 556 l 319 614 l 307 614 q 306 607 307 610 q 304 602 305 604 q 299 600 302 600 q 291 599 296 599 l 167 599 q 154 602 157 599 q 151 614 151 604 l 139 614 l 139 577 l 283 514 q 224 486 233 488 q 139 451 214 484 l 139 414 l 151 414 q 154 428 151 425 q 169 431 157 431 l 289 431 q 300 429 297 431 q 305 425 304 428 q 307 414 307 421 l 319 414 m 229 652 q 174 667 196 652 q 152 715 152 683 q 174 762 152 746 q 229 777 196 777 q 283 762 261 777 q 306 715 306 746 q 283 667 306 683 q 229 652 261 652 m 794 500 l 684 500 l 684 524 q 699 525 693 524 q 708 528 705 526 q 712 536 711 531 q 713 550 713 541 l 713 678 l 589 678 l 589 581 q 591 544 589 551 q 591 537 591 540 q 593 532 592 534 q 596 528 595 530 q 600 526 598 527 q 605 524 602 525 q 612 524 608 524 q 620 524 615 524 l 620 500 l 509 500 l 509 524 q 529 526 523 524 q 537 533 535 528 q 539 550 539 539 l 539 789 q 536 808 539 802 q 527 815 534 814 q 509 817 521 817 l 509 841 l 619 841 l 619 817 q 596 813 602 817 q 589 797 590 810 l 589 702 l 713 702 l 713 789 q 708 812 713 806 q 684 817 703 817 l 684 841 l 793 841 l 793 817 q 770 813 775 817 q 764 797 765 810 l 764 553 q 769 528 764 533 q 794 524 775 524 l 794 500 m 935 500 q 888 509 910 500 q 834 553 856 522 q 813 632 813 585 q 849 729 813 694 q 932 764 884 764 q 1016 729 985 764 q 1046 640 1046 694 l 865 640 q 873 590 865 615 q 899 549 881 566 q 947 532 917 532 q 1021 590 996 531 l 1043 581 q 999 522 1029 545 q 935 500 968 500 m 996 663 q 992 690 995 675 q 973 727 987 714 q 932 740 958 740 q 885 722 902 740 q 865 663 867 703 l 996 663 m 1185 500 l 1075 500 l 1075 524 q 1094 526 1088 524 q 1102 534 1100 528 q 1105 553 1105 540 l 1105 691 q 1102 710 1105 704 q 1094 718 1100 716 q 1075 720 1088 720 l 1075 742 l 1155 766 l 1155 553 q 1157 534 1155 540 q 1166 526 1160 528 q 1185 524 1173 524 l 1185 500 m 1127 781 q 1106 790 1116 781 q 1097 810 1097 799 q 1106 831 1097 823 q 1127 840 1116 840 q 1148 831 1139 840 q 1157 810 1157 823 q 1148 790 1157 799 q 1127 781 1139 781 m 1472 500 l 1361 500 l 1361 524 q 1386 529 1380 524 q 1391 553 1392 534 l 1391 706 q 1381 730 1391 721 q 1356 740 1371 740 q 1315 726 1332 740 q 1295 692 1298 713 l 1295 553 q 1301 529 1295 534 q 1326 524 1307 524 l 1326 500 l 1215 500 l 1215 524 q 1234 526 1228 524 q 1243 534 1240 528 q 1245 553 1245 540 l 1245 691 q 1240 715 1245 710 q 1215 720 1234 720 l 1215 742 l 1295 766 l 1295 744 q 1315 756 1299 748 q 1353 764 1332 764 q 1392 758 1376 763 q 1417 743 1407 752 q 1433 724 1428 734 q 1440 703 1438 713 q 1442 683 1442 692 l 1442 550 q 1452 527 1442 530 q 1472 524 1461 524 l 1472 500 m 1684 500 l 1501 500 l 1632 740 q 1559 726 1584 740 q 1528 669 1535 712 l 1504 669 l 1520 764 l 1702 764 l 1572 524 q 1645 538 1620 524 q 1676 595 1669 553 l 1699 595 l 1684 500 m 1854 500 q 1807 509 1829 500 q 1753 553 1774 522 q 1732 632 1732 585 q 1768 729 1732 694 q 1851 764 1803 764 q 1934 729 1904 764 q 1965 640 1965 694 l 1784 640 q 1792 590 1784 615 q 1818 549 1800 566 q 1866 532 1836 532 q 1940 590 1914 531 l 1961 581 q 1918 522 1948 544 q 1854 500 1887 500 m 1914 663 q 1911 690 1914 675 q 1892 727 1906 714 q 1851 740 1877 740 q 1804 722 1821 740 q 1784 663 1786 703 l 1914 663 m 2097 500 l 1986 500 l 1986 524 q 2002 525 1996 524 q 2010 529 2007 526 q 2015 537 2013 532 q 2016 553 2016 543 l 2016 793 q 2014 813 2016 806 q 2005 821 2011 819 q 1986 823 1999 823 l 1986 845 l 2066 869 l 2066 553 q 2069 534 2066 540 q 2078 526 2071 528 q 2097 524 2084 524 l 2097 500 m 635 61 q 575 70 603 61 q 530 87 547 78 q 509 100 512 96 l 522 198 l 545 198 q 557 130 545 154 q 590 95 569 105 q 636 85 610 85 q 689 99 673 85 q 705 136 705 113 q 685 179 705 163 q 637 207 665 195 q 581 232 609 219 q 533 266 553 245 q 514 319 514 286 q 530 366 514 348 q 570 393 546 384 q 618 401 593 401 q 663 396 642 401 q 700 384 684 391 q 726 370 715 377 q 739 360 736 363 l 726 269 l 703 269 q 679 352 703 328 q 618 377 655 377 q 571 367 590 377 q 553 335 553 357 q 572 299 553 313 q 621 274 592 286 q 679 248 650 262 q 727 211 707 233 q 747 152 747 189 q 716 86 747 111 q 635 61 686 61 m 871 60 q 824 82 838 60 q 810 143 810 104 l 810 300 l 775 300 l 775 324 q 836 404 836 323 l 861 404 l 861 325 l 925 325 l 925 300 l 861 300 l 861 154 q 864 108 861 123 q 887 93 867 93 q 912 106 903 94 q 930 142 922 118 l 954 137 q 937 99 947 117 q 911 71 927 82 q 871 60 895 60 m 1217 61 l 1137 61 l 1137 81 q 1115 68 1133 76 q 1075 61 1097 61 q 1018 82 1042 61 q 990 134 993 103 l 990 252 q 985 276 990 271 q 960 281 979 281 l 960 302 l 1040 327 l 1040 119 q 1050 95 1040 104 q 1075 85 1060 85 q 1117 99 1100 85 q 1137 134 1134 113 l 1137 252 q 1131 276 1137 271 q 1106 281 1125 281 l 1106 302 l 1187 327 l 1187 113 q 1192 89 1187 94 q 1217 84 1198 84 l 1217 61 m 1501 60 l 1421 60 l 1421 83 q 1394 67 1413 75 q 1354 60 1375 60 q 1272 100 1306 60 q 1238 193 1238 139 q 1272 286 1238 246 q 1354 325 1306 325 q 1382 321 1369 325 q 1405 313 1395 318 q 1421 302 1415 308 l 1421 354 q 1419 373 1421 367 q 1410 381 1417 379 q 1391 383 1404 383 l 1391 405 l 1472 429 l 1472 113 q 1474 94 1472 100 q 1482 86 1476 88 q 1501 84 1489 84 l 1501 60 m 1354 85 q 1407 116 1392 85 q 1421 193 1421 146 q 1407 270 1421 239 q 1354 300 1392 300 q 1306 267 1322 298 q 1290 195 1290 235 q 1306 119 1290 153 q 1354 85 1322 85 m 1642 61 l 1531 61 l 1531 84 q 1550 86 1544 84 q 1559 94 1556 88 q 1561 113 1561 100 l 1561 252 q 1559 271 1561 264 q 1550 279 1556 277 q 1531 281 1544 281 l 1531 302 l 1612 326 l 1612 113 q 1614 94 1612 100 q 1623 86 1616 88 q 1642 84 1629 84 l 1642 61 m 1584 341 q 1563 350 1572 341 q 1554 371 1554 359 q 1563 392 1554 383 q 1584 401 1572 401 q 1605 392 1596 401 q 1613 371 1613 383 q 1605 350 1613 359 q 1584 341 1596 341 m 1796 61 q 1703 100 1742 61 q 1664 193 1664 139 q 1703 286 1664 247 q 1796 325 1742 325 q 1889 286 1850 325 q 1928 193 1928 247 q 1889 100 1928 139 q 1796 61 1850 61 m 1796 85 q 1859 116 1841 85 q 1876 193 1876 146 q 1859 270 1876 239 q 1796 300 1841 300 q 1734 270 1752 300 q 1716 193 1716 239 q 1734 116 1716 146 q 1796 85 1752 85 z "},"Ç":{"ha":2195,"x_min":50,"x_max":2097,"o":"m 306 148 l 152 148 l 152 159 q 174 207 152 191 q 229 222 197 222 q 283 207 261 222 q 306 159 306 191 l 306 148 m 395 4 l 50 4 l 50 906 l 395 906 l 395 4 m 229 625 q 292 651 266 625 q 319 715 319 677 q 293 778 319 751 q 229 804 267 804 q 165 778 193 804 q 139 715 139 750 q 166 651 139 677 q 229 625 193 625 m 319 106 l 319 159 q 292 222 319 196 q 229 249 266 249 q 165 223 191 249 q 139 159 139 197 l 139 106 l 151 106 q 152 116 151 113 q 156 120 153 119 q 166 121 159 121 l 292 121 q 301 120 298 121 q 306 116 304 119 q 307 106 307 113 l 319 106 m 319 260 l 319 387 l 248 401 l 248 389 q 275 381 262 387 q 297 366 288 376 q 306 338 306 356 l 306 302 l 218 302 l 218 318 q 228 332 218 332 l 237 330 l 237 342 l 190 353 l 190 340 q 205 319 205 334 l 205 302 l 152 302 l 152 333 q 189 379 152 374 l 189 391 l 139 383 l 139 260 l 152 260 q 154 272 152 269 q 166 275 157 275 l 292 275 q 304 272 301 275 q 307 260 307 269 l 319 260 m 319 414 l 319 459 l 307 459 q 305 448 307 452 q 300 444 304 445 q 289 443 297 443 l 187 443 l 319 500 l 319 512 l 182 572 l 291 572 q 304 569 301 572 q 307 556 307 566 l 319 556 l 319 614 l 307 614 q 306 607 307 610 q 304 602 305 604 q 299 600 302 600 q 291 599 296 599 l 167 599 q 154 602 157 599 q 151 614 151 604 l 139 614 l 139 577 l 283 514 q 224 486 233 488 q 139 451 214 484 l 139 414 l 151 414 q 154 428 151 425 q 169 431 157 431 l 289 431 q 300 429 297 431 q 305 425 304 428 q 307 414 307 421 l 319 414 m 229 652 q 174 667 196 652 q 152 715 152 683 q 174 762 152 746 q 229 777 196 777 q 283 762 261 777 q 306 715 306 746 q 283 667 306 683 q 229 652 261 652 m 794 500 l 684 500 l 684 524 q 699 525 693 524 q 708 528 705 526 q 712 536 711 531 q 713 550 713 541 l 713 678 l 589 678 l 589 581 q 591 544 589 551 q 591 537 591 540 q 593 532 592 534 q 596 528 595 530 q 600 526 598 527 q 605 524 602 525 q 612 524 608 524 q 620 524 615 524 l 620 500 l 509 500 l 509 524 q 529 526 523 524 q 537 533 535 528 q 539 550 539 539 l 539 789 q 536 808 539 802 q 527 815 534 814 q 509 817 521 817 l 509 841 l 619 841 l 619 817 q 596 813 602 817 q 589 797 590 810 l 589 702 l 713 702 l 713 789 q 708 812 713 806 q 684 817 703 817 l 684 841 l 793 841 l 793 817 q 770 813 775 817 q 764 797 765 810 l 764 553 q 769 528 764 533 q 794 524 775 524 l 794 500 m 935 500 q 888 509 910 500 q 834 553 856 522 q 813 632 813 585 q 849 729 813 694 q 932 764 884 764 q 1016 729 985 764 q 1046 640 1046 694 l 865 640 q 873 590 865 615 q 899 549 881 566 q 947 532 917 532 q 1021 590 996 531 l 1043 581 q 999 522 1029 545 q 935 500 968 500 m 996 663 q 992 690 995 675 q 973 727 987 714 q 932 740 958 740 q 885 722 902 740 q 865 663 867 703 l 996 663 m 1185 500 l 1075 500 l 1075 524 q 1094 526 1088 524 q 1102 534 1100 528 q 1105 553 1105 540 l 1105 691 q 1102 710 1105 704 q 1094 718 1100 716 q 1075 720 1088 720 l 1075 742 l 1155 766 l 1155 553 q 1157 534 1155 540 q 1166 526 1160 528 q 1185 524 1173 524 l 1185 500 m 1127 781 q 1106 790 1116 781 q 1097 810 1097 799 q 1106 831 1097 823 q 1127 840 1116 840 q 1148 831 1139 840 q 1157 810 1157 823 q 1148 790 1157 799 q 1127 781 1139 781 m 1472 500 l 1361 500 l 1361 524 q 1386 529 1380 524 q 1391 553 1392 534 l 1391 706 q 1381 730 1391 721 q 1356 740 1371 740 q 1315 726 1332 740 q 1295 692 1298 713 l 1295 553 q 1301 529 1295 534 q 1326 524 1307 524 l 1326 500 l 1215 500 l 1215 524 q 1234 526 1228 524 q 1243 534 1240 528 q 1245 553 1245 540 l 1245 691 q 1240 715 1245 710 q 1215 720 1234 720 l 1215 742 l 1295 766 l 1295 744 q 1315 756 1299 748 q 1353 764 1332 764 q 1392 758 1376 763 q 1417 743 1407 752 q 1433 724 1428 734 q 1440 703 1438 713 q 1442 683 1442 692 l 1442 550 q 1452 527 1442 530 q 1472 524 1461 524 l 1472 500 m 1684 500 l 1501 500 l 1632 740 q 1559 726 1584 740 q 1528 669 1535 712 l 1504 669 l 1520 764 l 1702 764 l 1572 524 q 1645 538 1620 524 q 1676 595 1669 553 l 1699 595 l 1684 500 m 1854 500 q 1807 509 1829 500 q 1753 553 1774 522 q 1732 632 1732 585 q 1768 729 1732 694 q 1851 764 1803 764 q 1934 729 1904 764 q 1965 640 1965 694 l 1784 640 q 1792 590 1784 615 q 1818 549 1800 566 q 1866 532 1836 532 q 1940 590 1914 531 l 1961 581 q 1918 522 1948 544 q 1854 500 1887 500 m 1914 663 q 1911 690 1914 675 q 1892 727 1906 714 q 1851 740 1877 740 q 1804 722 1821 740 q 1784 663 1786 703 l 1914 663 m 2097 500 l 1986 500 l 1986 524 q 2002 525 1996 524 q 2010 529 2007 526 q 2015 537 2013 532 q 2016 553 2016 543 l 2016 793 q 2014 813 2016 806 q 2005 821 2011 819 q 1986 823 1999 823 l 1986 845 l 2066 869 l 2066 553 q 2069 534 2066 540 q 2078 526 2071 528 q 2097 524 2084 524 l 2097 500 m 635 61 q 575 70 603 61 q 530 87 547 78 q 509 100 512 96 l 522 198 l 545 198 q 557 130 545 154 q 590 95 569 105 q 636 85 610 85 q 689 99 673 85 q 705 136 705 113 q 685 179 705 163 q 637 207 665 195 q 581 232 609 219 q 533 266 553 245 q 514 319 514 286 q 530 366 514 348 q 570 393 546 384 q 618 401 593 401 q 663 396 642 401 q 700 384 684 391 q 726 370 715 377 q 739 360 736 363 l 726 269 l 703 269 q 679 352 703 328 q 618 377 655 377 q 571 367 590 377 q 553 335 553 357 q 572 299 553 313 q 621 274 592 286 q 679 248 650 262 q 727 211 707 233 q 747 152 747 189 q 716 86 747 111 q 635 61 686 61 m 871 60 q 824 82 838 60 q 810 143 810 104 l 810 300 l 775 300 l 775 324 q 836 404 836 323 l 861 404 l 861 325 l 925 325 l 925 300 l 861 300 l 861 154 q 864 108 861 123 q 887 93 867 93 q 912 106 903 94 q 930 142 922 118 l 954 137 q 937 99 947 117 q 911 71 927 82 q 871 60 895 60 m 1217 61 l 1137 61 l 1137 81 q 1115 68 1133 76 q 1075 61 1097 61 q 1018 82 1042 61 q 990 134 993 103 l 990 252 q 985 276 990 271 q 960 281 979 281 l 960 302 l 1040 327 l 1040 119 q 1050 95 1040 104 q 1075 85 1060 85 q 1117 99 1100 85 q 1137 134 1134 113 l 1137 252 q 1131 276 1137 271 q 1106 281 1125 281 l 1106 302 l 1187 327 l 1187 113 q 1192 89 1187 94 q 1217 84 1198 84 l 1217 61 m 1501 60 l 1421 60 l 1421 83 q 1394 67 1413 75 q 1354 60 1375 60 q 1272 100 1306 60 q 1238 193 1238 139 q 1272 286 1238 246 q 1354 325 1306 325 q 1382 321 1369 325 q 1405 313 1395 318 q 1421 302 1415 308 l 1421 354 q 1419 373 1421 367 q 1410 381 1417 379 q 1391 383 1404 383 l 1391 405 l 1472 429 l 1472 113 q 1474 94 1472 100 q 1482 86 1476 88 q 1501 84 1489 84 l 1501 60 m 1354 85 q 1407 116 1392 85 q 1421 193 1421 146 q 1407 270 1421 239 q 1354 300 1392 300 q 1306 267 1322 298 q 1290 195 1290 235 q 1306 119 1290 153 q 1354 85 1322 85 m 1642 61 l 1531 61 l 1531 84 q 1550 86 1544 84 q 1559 94 1556 88 q 1561 113 1561 100 l 1561 252 q 1559 271 1561 264 q 1550 279 1556 277 q 1531 281 1544 281 l 1531 302 l 1612 326 l 1612 113 q 1614 94 1612 100 q 1623 86 1616 88 q 1642 84 1629 84 l 1642 61 m 1584 341 q 1563 350 1572 341 q 1554 371 1554 359 q 1563 392 1554 383 q 1584 401 1572 401 q 1605 392 1596 401 q 1613 371 1613 383 q 1605 350 1613 359 q 1584 341 1596 341 m 1796 61 q 1703 100 1742 61 q 1664 193 1664 139 q 1703 286 1664 247 q 1796 325 1742 325 q 1889 286 1850 325 q 1928 193 1928 247 q 1889 100 1928 139 q 1796 61 1850 61 m 1796 85 q 1859 116 1841 85 q 1876 193 1876 146 q 1859 270 1876 239 q 1796 300 1841 300 q 1734 270 1752 300 q 1716 193 1716 239 q 1734 116 1716 146 q 1796 85 1752 85 z "},"È":{"ha":2195,"x_min":50,"x_max":2097,"o":"m 306 148 l 152 148 l 152 159 q 174 207 152 191 q 229 222 197 222 q 283 207 261 222 q 306 159 306 191 l 306 148 m 395 4 l 50 4 l 50 906 l 395 906 l 395 4 m 229 625 q 292 651 266 625 q 319 715 319 677 q 293 778 319 751 q 229 804 267 804 q 165 778 193 804 q 139 715 139 750 q 166 651 139 677 q 229 625 193 625 m 319 106 l 319 159 q 292 222 319 196 q 229 249 266 249 q 165 223 191 249 q 139 159 139 197 l 139 106 l 151 106 q 152 116 151 113 q 156 120 153 119 q 166 121 159 121 l 292 121 q 301 120 298 121 q 306 116 304 119 q 307 106 307 113 l 319 106 m 319 260 l 319 387 l 248 401 l 248 389 q 275 381 262 387 q 297 366 288 376 q 306 338 306 356 l 306 302 l 218 302 l 218 318 q 228 332 218 332 l 237 330 l 237 342 l 190 353 l 190 340 q 205 319 205 334 l 205 302 l 152 302 l 152 333 q 189 379 152 374 l 189 391 l 139 383 l 139 260 l 152 260 q 154 272 152 269 q 166 275 157 275 l 292 275 q 304 272 301 275 q 307 260 307 269 l 319 260 m 319 414 l 319 459 l 307 459 q 305 448 307 452 q 300 444 304 445 q 289 443 297 443 l 187 443 l 319 500 l 319 512 l 182 572 l 291 572 q 304 569 301 572 q 307 556 307 566 l 319 556 l 319 614 l 307 614 q 306 607 307 610 q 304 602 305 604 q 299 600 302 600 q 291 599 296 599 l 167 599 q 154 602 157 599 q 151 614 151 604 l 139 614 l 139 577 l 283 514 q 224 486 233 488 q 139 451 214 484 l 139 414 l 151 414 q 154 428 151 425 q 169 431 157 431 l 289 431 q 300 429 297 431 q 305 425 304 428 q 307 414 307 421 l 319 414 m 229 652 q 174 667 196 652 q 152 715 152 683 q 174 762 152 746 q 229 777 196 777 q 283 762 261 777 q 306 715 306 746 q 283 667 306 683 q 229 652 261 652 m 794 500 l 684 500 l 684 524 q 699 525 693 524 q 708 528 705 526 q 712 536 711 531 q 713 550 713 541 l 713 678 l 589 678 l 589 581 q 591 544 589 551 q 591 537 591 540 q 593 532 592 534 q 596 528 595 530 q 600 526 598 527 q 605 524 602 525 q 612 524 608 524 q 620 524 615 524 l 620 500 l 509 500 l 509 524 q 529 526 523 524 q 537 533 535 528 q 539 550 539 539 l 539 789 q 536 808 539 802 q 527 815 534 814 q 509 817 521 817 l 509 841 l 619 841 l 619 817 q 596 813 602 817 q 589 797 590 810 l 589 702 l 713 702 l 713 789 q 708 812 713 806 q 684 817 703 817 l 684 841 l 793 841 l 793 817 q 770 813 775 817 q 764 797 765 810 l 764 553 q 769 528 764 533 q 794 524 775 524 l 794 500 m 935 500 q 888 509 910 500 q 834 553 856 522 q 813 632 813 585 q 849 729 813 694 q 932 764 884 764 q 1016 729 985 764 q 1046 640 1046 694 l 865 640 q 873 590 865 615 q 899 549 881 566 q 947 532 917 532 q 1021 590 996 531 l 1043 581 q 999 522 1029 545 q 935 500 968 500 m 996 663 q 992 690 995 675 q 973 727 987 714 q 932 740 958 740 q 885 722 902 740 q 865 663 867 703 l 996 663 m 1185 500 l 1075 500 l 1075 524 q 1094 526 1088 524 q 1102 534 1100 528 q 1105 553 1105 540 l 1105 691 q 1102 710 1105 704 q 1094 718 1100 716 q 1075 720 1088 720 l 1075 742 l 1155 766 l 1155 553 q 1157 534 1155 540 q 1166 526 1160 528 q 1185 524 1173 524 l 1185 500 m 1127 781 q 1106 790 1116 781 q 1097 810 1097 799 q 1106 831 1097 823 q 1127 840 1116 840 q 1148 831 1139 840 q 1157 810 1157 823 q 1148 790 1157 799 q 1127 781 1139 781 m 1472 500 l 1361 500 l 1361 524 q 1386 529 1380 524 q 1391 553 1392 534 l 1391 706 q 1381 730 1391 721 q 1356 740 1371 740 q 1315 726 1332 740 q 1295 692 1298 713 l 1295 553 q 1301 529 1295 534 q 1326 524 1307 524 l 1326 500 l 1215 500 l 1215 524 q 1234 526 1228 524 q 1243 534 1240 528 q 1245 553 1245 540 l 1245 691 q 1240 715 1245 710 q 1215 720 1234 720 l 1215 742 l 1295 766 l 1295 744 q 1315 756 1299 748 q 1353 764 1332 764 q 1392 758 1376 763 q 1417 743 1407 752 q 1433 724 1428 734 q 1440 703 1438 713 q 1442 683 1442 692 l 1442 550 q 1452 527 1442 530 q 1472 524 1461 524 l 1472 500 m 1684 500 l 1501 500 l 1632 740 q 1559 726 1584 740 q 1528 669 1535 712 l 1504 669 l 1520 764 l 1702 764 l 1572 524 q 1645 538 1620 524 q 1676 595 1669 553 l 1699 595 l 1684 500 m 1854 500 q 1807 509 1829 500 q 1753 553 1774 522 q 1732 632 1732 585 q 1768 729 1732 694 q 1851 764 1803 764 q 1934 729 1904 764 q 1965 640 1965 694 l 1784 640 q 1792 590 1784 615 q 1818 549 1800 566 q 1866 532 1836 532 q 1940 590 1914 531 l 1961 581 q 1918 522 1948 544 q 1854 500 1887 500 m 1914 663 q 1911 690 1914 675 q 1892 727 1906 714 q 1851 740 1877 740 q 1804 722 1821 740 q 1784 663 1786 703 l 1914 663 m 2097 500 l 1986 500 l 1986 524 q 2002 525 1996 524 q 2010 529 2007 526 q 2015 537 2013 532 q 2016 553 2016 543 l 2016 793 q 2014 813 2016 806 q 2005 821 2011 819 q 1986 823 1999 823 l 1986 845 l 2066 869 l 2066 553 q 2069 534 2066 540 q 2078 526 2071 528 q 2097 524 2084 524 l 2097 500 m 635 61 q 575 70 603 61 q 530 87 547 78 q 509 100 512 96 l 522 198 l 545 198 q 557 130 545 154 q 590 95 569 105 q 636 85 610 85 q 689 99 673 85 q 705 136 705 113 q 685 179 705 163 q 637 207 665 195 q 581 232 609 219 q 533 266 553 245 q 514 319 514 286 q 530 366 514 348 q 570 393 546 384 q 618 401 593 401 q 663 396 642 401 q 700 384 684 391 q 726 370 715 377 q 739 360 736 363 l 726 269 l 703 269 q 679 352 703 328 q 618 377 655 377 q 571 367 590 377 q 553 335 553 357 q 572 299 553 313 q 621 274 592 286 q 679 248 650 262 q 727 211 707 233 q 747 152 747 189 q 716 86 747 111 q 635 61 686 61 m 871 60 q 824 82 838 60 q 810 143 810 104 l 810 300 l 775 300 l 775 324 q 836 404 836 323 l 861 404 l 861 325 l 925 325 l 925 300 l 861 300 l 861 154 q 864 108 861 123 q 887 93 867 93 q 912 106 903 94 q 930 142 922 118 l 954 137 q 937 99 947 117 q 911 71 927 82 q 871 60 895 60 m 1217 61 l 1137 61 l 1137 81 q 1115 68 1133 76 q 1075 61 1097 61 q 1018 82 1042 61 q 990 134 993 103 l 990 252 q 985 276 990 271 q 960 281 979 281 l 960 302 l 1040 327 l 1040 119 q 1050 95 1040 104 q 1075 85 1060 85 q 1117 99 1100 85 q 1137 134 1134 113 l 1137 252 q 1131 276 1137 271 q 1106 281 1125 281 l 1106 302 l 1187 327 l 1187 113 q 1192 89 1187 94 q 1217 84 1198 84 l 1217 61 m 1501 60 l 1421 60 l 1421 83 q 1394 67 1413 75 q 1354 60 1375 60 q 1272 100 1306 60 q 1238 193 1238 139 q 1272 286 1238 246 q 1354 325 1306 325 q 1382 321 1369 325 q 1405 313 1395 318 q 1421 302 1415 308 l 1421 354 q 1419 373 1421 367 q 1410 381 1417 379 q 1391 383 1404 383 l 1391 405 l 1472 429 l 1472 113 q 1474 94 1472 100 q 1482 86 1476 88 q 1501 84 1489 84 l 1501 60 m 1354 85 q 1407 116 1392 85 q 1421 193 1421 146 q 1407 270 1421 239 q 1354 300 1392 300 q 1306 267 1322 298 q 1290 195 1290 235 q 1306 119 1290 153 q 1354 85 1322 85 m 1642 61 l 1531 61 l 1531 84 q 1550 86 1544 84 q 1559 94 1556 88 q 1561 113 1561 100 l 1561 252 q 1559 271 1561 264 q 1550 279 1556 277 q 1531 281 1544 281 l 1531 302 l 1612 326 l 1612 113 q 1614 94 1612 100 q 1623 86 1616 88 q 1642 84 1629 84 l 1642 61 m 1584 341 q 1563 350 1572 341 q 1554 371 1554 359 q 1563 392 1554 383 q 1584 401 1572 401 q 1605 392 1596 401 q 1613 371 1613 383 q 1605 350 1613 359 q 1584 341 1596 341 m 1796 61 q 1703 100 1742 61 q 1664 193 1664 139 q 1703 286 1664 247 q 1796 325 1742 325 q 1889 286 1850 325 q 1928 193 1928 247 q 1889 100 1928 139 q 1796 61 1850 61 m 1796 85 q 1859 116 1841 85 q 1876 193 1876 146 q 1859 270 1876 239 q 1796 300 1841 300 q 1734 270 1752 300 q 1716 193 1716 239 q 1734 116 1716 146 q 1796 85 1752 85 z "},"É":{"ha":2195,"x_min":50,"x_max":2097,"o":"m 306 148 l 152 148 l 152 159 q 174 207 152 191 q 229 222 197 222 q 283 207 261 222 q 306 159 306 191 l 306 148 m 395 4 l 50 4 l 50 906 l 395 906 l 395 4 m 229 625 q 292 651 266 625 q 319 715 319 677 q 293 778 319 751 q 229 804 267 804 q 165 778 193 804 q 139 715 139 750 q 166 651 139 677 q 229 625 193 625 m 319 106 l 319 159 q 292 222 319 196 q 229 249 266 249 q 165 223 191 249 q 139 159 139 197 l 139 106 l 151 106 q 152 116 151 113 q 156 120 153 119 q 166 121 159 121 l 292 121 q 301 120 298 121 q 306 116 304 119 q 307 106 307 113 l 319 106 m 319 260 l 319 387 l 248 401 l 248 389 q 275 381 262 387 q 297 366 288 376 q 306 338 306 356 l 306 302 l 218 302 l 218 318 q 228 332 218 332 l 237 330 l 237 342 l 190 353 l 190 340 q 205 319 205 334 l 205 302 l 152 302 l 152 333 q 189 379 152 374 l 189 391 l 139 383 l 139 260 l 152 260 q 154 272 152 269 q 166 275 157 275 l 292 275 q 304 272 301 275 q 307 260 307 269 l 319 260 m 319 414 l 319 459 l 307 459 q 305 448 307 452 q 300 444 304 445 q 289 443 297 443 l 187 443 l 319 500 l 319 512 l 182 572 l 291 572 q 304 569 301 572 q 307 556 307 566 l 319 556 l 319 614 l 307 614 q 306 607 307 610 q 304 602 305 604 q 299 600 302 600 q 291 599 296 599 l 167 599 q 154 602 157 599 q 151 614 151 604 l 139 614 l 139 577 l 283 514 q 224 486 233 488 q 139 451 214 484 l 139 414 l 151 414 q 154 428 151 425 q 169 431 157 431 l 289 431 q 300 429 297 431 q 305 425 304 428 q 307 414 307 421 l 319 414 m 229 652 q 174 667 196 652 q 152 715 152 683 q 174 762 152 746 q 229 777 196 777 q 283 762 261 777 q 306 715 306 746 q 283 667 306 683 q 229 652 261 652 m 794 500 l 684 500 l 684 524 q 699 525 693 524 q 708 528 705 526 q 712 536 711 531 q 713 550 713 541 l 713 678 l 589 678 l 589 581 q 591 544 589 551 q 591 537 591 540 q 593 532 592 534 q 596 528 595 530 q 600 526 598 527 q 605 524 602 525 q 612 524 608 524 q 620 524 615 524 l 620 500 l 509 500 l 509 524 q 529 526 523 524 q 537 533 535 528 q 539 550 539 539 l 539 789 q 536 808 539 802 q 527 815 534 814 q 509 817 521 817 l 509 841 l 619 841 l 619 817 q 596 813 602 817 q 589 797 590 810 l 589 702 l 713 702 l 713 789 q 708 812 713 806 q 684 817 703 817 l 684 841 l 793 841 l 793 817 q 770 813 775 817 q 764 797 765 810 l 764 553 q 769 528 764 533 q 794 524 775 524 l 794 500 m 935 500 q 888 509 910 500 q 834 553 856 522 q 813 632 813 585 q 849 729 813 694 q 932 764 884 764 q 1016 729 985 764 q 1046 640 1046 694 l 865 640 q 873 590 865 615 q 899 549 881 566 q 947 532 917 532 q 1021 590 996 531 l 1043 581 q 999 522 1029 545 q 935 500 968 500 m 996 663 q 992 690 995 675 q 973 727 987 714 q 932 740 958 740 q 885 722 902 740 q 865 663 867 703 l 996 663 m 1185 500 l 1075 500 l 1075 524 q 1094 526 1088 524 q 1102 534 1100 528 q 1105 553 1105 540 l 1105 691 q 1102 710 1105 704 q 1094 718 1100 716 q 1075 720 1088 720 l 1075 742 l 1155 766 l 1155 553 q 1157 534 1155 540 q 1166 526 1160 528 q 1185 524 1173 524 l 1185 500 m 1127 781 q 1106 790 1116 781 q 1097 810 1097 799 q 1106 831 1097 823 q 1127 840 1116 840 q 1148 831 1139 840 q 1157 810 1157 823 q 1148 790 1157 799 q 1127 781 1139 781 m 1472 500 l 1361 500 l 1361 524 q 1386 529 1380 524 q 1391 553 1392 534 l 1391 706 q 1381 730 1391 721 q 1356 740 1371 740 q 1315 726 1332 740 q 1295 692 1298 713 l 1295 553 q 1301 529 1295 534 q 1326 524 1307 524 l 1326 500 l 1215 500 l 1215 524 q 1234 526 1228 524 q 1243 534 1240 528 q 1245 553 1245 540 l 1245 691 q 1240 715 1245 710 q 1215 720 1234 720 l 1215 742 l 1295 766 l 1295 744 q 1315 756 1299 748 q 1353 764 1332 764 q 1392 758 1376 763 q 1417 743 1407 752 q 1433 724 1428 734 q 1440 703 1438 713 q 1442 683 1442 692 l 1442 550 q 1452 527 1442 530 q 1472 524 1461 524 l 1472 500 m 1684 500 l 1501 500 l 1632 740 q 1559 726 1584 740 q 1528 669 1535 712 l 1504 669 l 1520 764 l 1702 764 l 1572 524 q 1645 538 1620 524 q 1676 595 1669 553 l 1699 595 l 1684 500 m 1854 500 q 1807 509 1829 500 q 1753 553 1774 522 q 1732 632 1732 585 q 1768 729 1732 694 q 1851 764 1803 764 q 1934 729 1904 764 q 1965 640 1965 694 l 1784 640 q 1792 590 1784 615 q 1818 549 1800 566 q 1866 532 1836 532 q 1940 590 1914 531 l 1961 581 q 1918 522 1948 544 q 1854 500 1887 500 m 1914 663 q 1911 690 1914 675 q 1892 727 1906 714 q 1851 740 1877 740 q 1804 722 1821 740 q 1784 663 1786 703 l 1914 663 m 2097 500 l 1986 500 l 1986 524 q 2002 525 1996 524 q 2010 529 2007 526 q 2015 537 2013 532 q 2016 553 2016 543 l 2016 793 q 2014 813 2016 806 q 2005 821 2011 819 q 1986 823 1999 823 l 1986 845 l 2066 869 l 2066 553 q 2069 534 2066 540 q 2078 526 2071 528 q 2097 524 2084 524 l 2097 500 m 635 61 q 575 70 603 61 q 530 87 547 78 q 509 100 512 96 l 522 198 l 545 198 q 557 130 545 154 q 590 95 569 105 q 636 85 610 85 q 689 99 673 85 q 705 136 705 113 q 685 179 705 163 q 637 207 665 195 q 581 232 609 219 q 533 266 553 245 q 514 319 514 286 q 530 366 514 348 q 570 393 546 384 q 618 401 593 401 q 663 396 642 401 q 700 384 684 391 q 726 370 715 377 q 739 360 736 363 l 726 269 l 703 269 q 679 352 703 328 q 618 377 655 377 q 571 367 590 377 q 553 335 553 357 q 572 299 553 313 q 621 274 592 286 q 679 248 650 262 q 727 211 707 233 q 747 152 747 189 q 716 86 747 111 q 635 61 686 61 m 871 60 q 824 82 838 60 q 810 143 810 104 l 810 300 l 775 300 l 775 324 q 836 404 836 323 l 861 404 l 861 325 l 925 325 l 925 300 l 861 300 l 861 154 q 864 108 861 123 q 887 93 867 93 q 912 106 903 94 q 930 142 922 118 l 954 137 q 937 99 947 117 q 911 71 927 82 q 871 60 895 60 m 1217 61 l 1137 61 l 1137 81 q 1115 68 1133 76 q 1075 61 1097 61 q 1018 82 1042 61 q 990 134 993 103 l 990 252 q 985 276 990 271 q 960 281 979 281 l 960 302 l 1040 327 l 1040 119 q 1050 95 1040 104 q 1075 85 1060 85 q 1117 99 1100 85 q 1137 134 1134 113 l 1137 252 q 1131 276 1137 271 q 1106 281 1125 281 l 1106 302 l 1187 327 l 1187 113 q 1192 89 1187 94 q 1217 84 1198 84 l 1217 61 m 1501 60 l 1421 60 l 1421 83 q 1394 67 1413 75 q 1354 60 1375 60 q 1272 100 1306 60 q 1238 193 1238 139 q 1272 286 1238 246 q 1354 325 1306 325 q 1382 321 1369 325 q 1405 313 1395 318 q 1421 302 1415 308 l 1421 354 q 1419 373 1421 367 q 1410 381 1417 379 q 1391 383 1404 383 l 1391 405 l 1472 429 l 1472 113 q 1474 94 1472 100 q 1482 86 1476 88 q 1501 84 1489 84 l 1501 60 m 1354 85 q 1407 116 1392 85 q 1421 193 1421 146 q 1407 270 1421 239 q 1354 300 1392 300 q 1306 267 1322 298 q 1290 195 1290 235 q 1306 119 1290 153 q 1354 85 1322 85 m 1642 61 l 1531 61 l 1531 84 q 1550 86 1544 84 q 1559 94 1556 88 q 1561 113 1561 100 l 1561 252 q 1559 271 1561 264 q 1550 279 1556 277 q 1531 281 1544 281 l 1531 302 l 1612 326 l 1612 113 q 1614 94 1612 100 q 1623 86 1616 88 q 1642 84 1629 84 l 1642 61 m 1584 341 q 1563 350 1572 341 q 1554 371 1554 359 q 1563 392 1554 383 q 1584 401 1572 401 q 1605 392 1596 401 q 1613 371 1613 383 q 1605 350 1613 359 q 1584 341 1596 341 m 1796 61 q 1703 100 1742 61 q 1664 193 1664 139 q 1703 286 1664 247 q 1796 325 1742 325 q 1889 286 1850 325 q 1928 193 1928 247 q 1889 100 1928 139 q 1796 61 1850 61 m 1796 85 q 1859 116 1841 85 q 1876 193 1876 146 q 1859 270 1876 239 q 1796 300 1841 300 q 1734 270 1752 300 q 1716 193 1716 239 q 1734 116 1716 146 q 1796 85 1752 85 z "},"Ê":{"ha":2195,"x_min":50,"x_max":2097,"o":"m 306 148 l 152 148 l 152 159 q 174 207 152 191 q 229 222 197 222 q 283 207 261 222 q 306 159 306 191 l 306 148 m 395 4 l 50 4 l 50 906 l 395 906 l 395 4 m 229 625 q 292 651 266 625 q 319 715 319 677 q 293 778 319 751 q 229 804 267 804 q 165 778 193 804 q 139 715 139 750 q 166 651 139 677 q 229 625 193 625 m 319 106 l 319 159 q 292 222 319 196 q 229 249 266 249 q 165 223 191 249 q 139 159 139 197 l 139 106 l 151 106 q 152 116 151 113 q 156 120 153 119 q 166 121 159 121 l 292 121 q 301 120 298 121 q 306 116 304 119 q 307 106 307 113 l 319 106 m 319 260 l 319 387 l 248 401 l 248 389 q 275 381 262 387 q 297 366 288 376 q 306 338 306 356 l 306 302 l 218 302 l 218 318 q 228 332 218 332 l 237 330 l 237 342 l 190 353 l 190 340 q 205 319 205 334 l 205 302 l 152 302 l 152 333 q 189 379 152 374 l 189 391 l 139 383 l 139 260 l 152 260 q 154 272 152 269 q 166 275 157 275 l 292 275 q 304 272 301 275 q 307 260 307 269 l 319 260 m 319 414 l 319 459 l 307 459 q 305 448 307 452 q 300 444 304 445 q 289 443 297 443 l 187 443 l 319 500 l 319 512 l 182 572 l 291 572 q 304 569 301 572 q 307 556 307 566 l 319 556 l 319 614 l 307 614 q 306 607 307 610 q 304 602 305 604 q 299 600 302 600 q 291 599 296 599 l 167 599 q 154 602 157 599 q 151 614 151 604 l 139 614 l 139 577 l 283 514 q 224 486 233 488 q 139 451 214 484 l 139 414 l 151 414 q 154 428 151 425 q 169 431 157 431 l 289 431 q 300 429 297 431 q 305 425 304 428 q 307 414 307 421 l 319 414 m 229 652 q 174 667 196 652 q 152 715 152 683 q 174 762 152 746 q 229 777 196 777 q 283 762 261 777 q 306 715 306 746 q 283 667 306 683 q 229 652 261 652 m 794 500 l 684 500 l 684 524 q 699 525 693 524 q 708 528 705 526 q 712 536 711 531 q 713 550 713 541 l 713 678 l 589 678 l 589 581 q 591 544 589 551 q 591 537 591 540 q 593 532 592 534 q 596 528 595 530 q 600 526 598 527 q 605 524 602 525 q 612 524 608 524 q 620 524 615 524 l 620 500 l 509 500 l 509 524 q 529 526 523 524 q 537 533 535 528 q 539 550 539 539 l 539 789 q 536 808 539 802 q 527 815 534 814 q 509 817 521 817 l 509 841 l 619 841 l 619 817 q 596 813 602 817 q 589 797 590 810 l 589 702 l 713 702 l 713 789 q 708 812 713 806 q 684 817 703 817 l 684 841 l 793 841 l 793 817 q 770 813 775 817 q 764 797 765 810 l 764 553 q 769 528 764 533 q 794 524 775 524 l 794 500 m 935 500 q 888 509 910 500 q 834 553 856 522 q 813 632 813 585 q 849 729 813 694 q 932 764 884 764 q 1016 729 985 764 q 1046 640 1046 694 l 865 640 q 873 590 865 615 q 899 549 881 566 q 947 532 917 532 q 1021 590 996 531 l 1043 581 q 999 522 1029 545 q 935 500 968 500 m 996 663 q 992 690 995 675 q 973 727 987 714 q 932 740 958 740 q 885 722 902 740 q 865 663 867 703 l 996 663 m 1185 500 l 1075 500 l 1075 524 q 1094 526 1088 524 q 1102 534 1100 528 q 1105 553 1105 540 l 1105 691 q 1102 710 1105 704 q 1094 718 1100 716 q 1075 720 1088 720 l 1075 742 l 1155 766 l 1155 553 q 1157 534 1155 540 q 1166 526 1160 528 q 1185 524 1173 524 l 1185 500 m 1127 781 q 1106 790 1116 781 q 1097 810 1097 799 q 1106 831 1097 823 q 1127 840 1116 840 q 1148 831 1139 840 q 1157 810 1157 823 q 1148 790 1157 799 q 1127 781 1139 781 m 1472 500 l 1361 500 l 1361 524 q 1386 529 1380 524 q 1391 553 1392 534 l 1391 706 q 1381 730 1391 721 q 1356 740 1371 740 q 1315 726 1332 740 q 1295 692 1298 713 l 1295 553 q 1301 529 1295 534 q 1326 524 1307 524 l 1326 500 l 1215 500 l 1215 524 q 1234 526 1228 524 q 1243 534 1240 528 q 1245 553 1245 540 l 1245 691 q 1240 715 1245 710 q 1215 720 1234 720 l 1215 742 l 1295 766 l 1295 744 q 1315 756 1299 748 q 1353 764 1332 764 q 1392 758 1376 763 q 1417 743 1407 752 q 1433 724 1428 734 q 1440 703 1438 713 q 1442 683 1442 692 l 1442 550 q 1452 527 1442 530 q 1472 524 1461 524 l 1472 500 m 1684 500 l 1501 500 l 1632 740 q 1559 726 1584 740 q 1528 669 1535 712 l 1504 669 l 1520 764 l 1702 764 l 1572 524 q 1645 538 1620 524 q 1676 595 1669 553 l 1699 595 l 1684 500 m 1854 500 q 1807 509 1829 500 q 1753 553 1774 522 q 1732 632 1732 585 q 1768 729 1732 694 q 1851 764 1803 764 q 1934 729 1904 764 q 1965 640 1965 694 l 1784 640 q 1792 590 1784 615 q 1818 549 1800 566 q 1866 532 1836 532 q 1940 590 1914 531 l 1961 581 q 1918 522 1948 544 q 1854 500 1887 500 m 1914 663 q 1911 690 1914 675 q 1892 727 1906 714 q 1851 740 1877 740 q 1804 722 1821 740 q 1784 663 1786 703 l 1914 663 m 2097 500 l 1986 500 l 1986 524 q 2002 525 1996 524 q 2010 529 2007 526 q 2015 537 2013 532 q 2016 553 2016 543 l 2016 793 q 2014 813 2016 806 q 2005 821 2011 819 q 1986 823 1999 823 l 1986 845 l 2066 869 l 2066 553 q 2069 534 2066 540 q 2078 526 2071 528 q 2097 524 2084 524 l 2097 500 m 635 61 q 575 70 603 61 q 530 87 547 78 q 509 100 512 96 l 522 198 l 545 198 q 557 130 545 154 q 590 95 569 105 q 636 85 610 85 q 689 99 673 85 q 705 136 705 113 q 685 179 705 163 q 637 207 665 195 q 581 232 609 219 q 533 266 553 245 q 514 319 514 286 q 530 366 514 348 q 570 393 546 384 q 618 401 593 401 q 663 396 642 401 q 700 384 684 391 q 726 370 715 377 q 739 360 736 363 l 726 269 l 703 269 q 679 352 703 328 q 618 377 655 377 q 571 367 590 377 q 553 335 553 357 q 572 299 553 313 q 621 274 592 286 q 679 248 650 262 q 727 211 707 233 q 747 152 747 189 q 716 86 747 111 q 635 61 686 61 m 871 60 q 824 82 838 60 q 810 143 810 104 l 810 300 l 775 300 l 775 324 q 836 404 836 323 l 861 404 l 861 325 l 925 325 l 925 300 l 861 300 l 861 154 q 864 108 861 123 q 887 93 867 93 q 912 106 903 94 q 930 142 922 118 l 954 137 q 937 99 947 117 q 911 71 927 82 q 871 60 895 60 m 1217 61 l 1137 61 l 1137 81 q 1115 68 1133 76 q 1075 61 1097 61 q 1018 82 1042 61 q 990 134 993 103 l 990 252 q 985 276 990 271 q 960 281 979 281 l 960 302 l 1040 327 l 1040 119 q 1050 95 1040 104 q 1075 85 1060 85 q 1117 99 1100 85 q 1137 134 1134 113 l 1137 252 q 1131 276 1137 271 q 1106 281 1125 281 l 1106 302 l 1187 327 l 1187 113 q 1192 89 1187 94 q 1217 84 1198 84 l 1217 61 m 1501 60 l 1421 60 l 1421 83 q 1394 67 1413 75 q 1354 60 1375 60 q 1272 100 1306 60 q 1238 193 1238 139 q 1272 286 1238 246 q 1354 325 1306 325 q 1382 321 1369 325 q 1405 313 1395 318 q 1421 302 1415 308 l 1421 354 q 1419 373 1421 367 q 1410 381 1417 379 q 1391 383 1404 383 l 1391 405 l 1472 429 l 1472 113 q 1474 94 1472 100 q 1482 86 1476 88 q 1501 84 1489 84 l 1501 60 m 1354 85 q 1407 116 1392 85 q 1421 193 1421 146 q 1407 270 1421 239 q 1354 300 1392 300 q 1306 267 1322 298 q 1290 195 1290 235 q 1306 119 1290 153 q 1354 85 1322 85 m 1642 61 l 1531 61 l 1531 84 q 1550 86 1544 84 q 1559 94 1556 88 q 1561 113 1561 100 l 1561 252 q 1559 271 1561 264 q 1550 279 1556 277 q 1531 281 1544 281 l 1531 302 l 1612 326 l 1612 113 q 1614 94 1612 100 q 1623 86 1616 88 q 1642 84 1629 84 l 1642 61 m 1584 341 q 1563 350 1572 341 q 1554 371 1554 359 q 1563 392 1554 383 q 1584 401 1572 401 q 1605 392 1596 401 q 1613 371 1613 383 q 1605 350 1613 359 q 1584 341 1596 341 m 1796 61 q 1703 100 1742 61 q 1664 193 1664 139 q 1703 286 1664 247 q 1796 325 1742 325 q 1889 286 1850 325 q 1928 193 1928 247 q 1889 100 1928 139 q 1796 61 1850 61 m 1796 85 q 1859 116 1841 85 q 1876 193 1876 146 q 1859 270 1876 239 q 1796 300 1841 300 q 1734 270 1752 300 q 1716 193 1716 239 q 1734 116 1716 146 q 1796 85 1752 85 z "}}}
